<?xml version="1.0" standalone="no"?>
<!DOCTYPE svg PUBLIC "-//W3C//DTD SVG 1.1//EN" "http://www.w3.org/Graphics/SVG/1.1/DTD/svg11.dtd" >
<svg>
<metadata>
Created by FontForge 20120731 at Sat May  3 07:25:00 2014
 By World Wide Web Server
Copyright (c) 2011 by Daniel hernndez. All rights reserved.
</metadata>
<defs>
<font id="Sanchez-Regular" horiz-adv-x="613" >
  <font-face 
    font-family="Sanchez Regular"
    font-weight="400"
    font-stretch="normal"
    units-per-em="1000"
    panose-1="2 0 0 0 0 0 0 0 0 0"
    ascent="750"
    descent="-250"
    x-height="492"
    cap-height="718"
    bbox="-41.7878 -274 1054 1003.03"
    underline-thickness="50"
    underline-position="-50"
    unicode-range="U+0020-FB02"
  />
<missing-glyph horiz-adv-x="313" 
 />
    <glyph glyph-name="ff" unicode="ff" horiz-adv-x="753" 
d="M279 0h-226c-8 0 -13 4 -13 12v43c0 8 5 12 13 12h55v358h-57c-8 0 -13 4 -13 12v43c0 8 5 12 13 12h57v62c0 113 61 170 161 170c59 0 92 -32 101 -40c7 -6 8 -11 3 -17l-24 -31c-5 -5 -11 -7 -17 -2c-5 4 -25 19 -55 19c-54 0 -86 -34 -86 -100v-61h283v62
c0 113 61 170 161 170c59 0 92 -32 101 -40c7 -6 8 -11 3 -17l-24 -31c-5 -5 -11 -7 -17 -2c-5 4 -25 19 -55 19c-54 0 -86 -34 -86 -100v-61h128c8 0 13 -4 13 -12v-43c0 -8 -5 -12 -13 -12h-128v-358h88c8 0 12 -4 12 -12v-43c0 -8 -4 -12 -12 -12h-226c-8 0 -13 4 -13 12
v43c0 8 5 12 13 12h55v358h-283v-358h88c8 0 12 -4 12 -12v-43c0 -8 -4 -12 -12 -12z" />
    <glyph glyph-name="fi" unicode="fi" horiz-adv-x="665" 
d="M279 0h-226c-8 0 -13 4 -13 12v43c0 8 5 12 13 12h55v358h-57c-8 0 -13 4 -13 12v43c0 8 5 12 13 12h57v62c0 113 61 170 161 170c59 0 92 -32 101 -40c7 -6 8 -11 3 -17l-24 -31c-5 -5 -11 -7 -17 -2c-5 4 -25 19 -55 19c-54 0 -86 -34 -86 -100v-61h358
c8 0 12 -4 12 -12v-413h53c8 0 13 -4 13 -12v-43c0 -8 -5 -12 -13 -12h-191c-8 0 -13 4 -13 12v43c0 8 5 12 13 12h55v358h-287v-358h88c8 0 12 -4 12 -12v-43c0 -8 -4 -12 -12 -12zM574 600c0 -31 -25 -55 -56 -55s-56 24 -56 55s25 57 56 57s56 -26 56 -57z" />
    <glyph glyph-name="fl" unicode="fl" horiz-adv-x="680" 
d="M279 0h-226c-8 0 -13 4 -13 12v43c0 8 5 12 13 12h55v358h-57c-8 0 -13 4 -13 12v43c0 8 5 12 13 12h57v62c0 113 61 170 161 170c59 0 92 -32 101 -40c7 -6 8 -11 3 -17l-24 -31c-5 -5 -11 -7 -17 -2c-5 4 -25 19 -55 19c-54 0 -86 -34 -86 -100v-61h128
c8 0 13 -4 13 -12v-43c0 -8 -5 -12 -13 -12h-128v-358h88c8 0 12 -4 12 -12v-43c0 -8 -4 -12 -12 -12zM629 0h-191c-8 0 -13 4 -13 12v43c0 8 5 12 13 12h55v584h-55c-8 0 -13 4 -13 12v43c0 8 5 12 13 12h111c20 0 27 -8 27 -25v-626h53c8 0 13 -4 13 -12v-43
c0 -8 -5 -12 -13 -12z" />
    <glyph glyph-name=".notdef" horiz-adv-x="313" 
 />
    <glyph glyph-name=".notdef" horiz-adv-x="313" 
 />
    <glyph glyph-name="u" unicode="u" horiz-adv-x="608" 
d="M557 0h-87c-29 0 -43 11 -43 42v37h-3c-11 -23 -48 -86 -156 -86s-173 69 -174 174v258h-57c-8 0 -12 4 -12 12v43c0 8 5 12 12 12h96c29 0 43 -11 43 -42v-263c0 -75 36 -122 110 -122c100 0 133 83 133 85v275h-54c-8 0 -12 4 -12 12v43c0 8 5 12 12 12h124
c8 0 12 -4 12 -12v-413h56c8 0 13 -4 13 -12v-43c0 -8 -5 -12 -13 -12z" />
    <glyph glyph-name="h" unicode="h" horiz-adv-x="621" 
d="M570 0h-95c-29 0 -43 11 -43 42v263c0 75 -36 122 -110 122c-102 0 -133 -87 -133 -86v-274h53c8 0 13 -4 13 -12v-43c0 -8 -5 -12 -13 -12h-191c-8 0 -13 4 -13 12v43c0 8 5 12 13 12h55v584h-55c-8 0 -13 4 -13 12v43c0 8 5 12 13 12h126c8 0 12 -4 12 -12v-223
c0 -15 -3 -54 -4 -61h2c18 28 62 77 156 77c108 0 170 -69 171 -174v-258h56c8 0 13 -4 13 -12v-43c0 -8 -5 -12 -13 -12z" />
    <glyph glyph-name="m" unicode="m" horiz-adv-x="931" 
d="M880 0h-95c-30 0 -44 11 -44 42v263c0 75 -35 122 -109 122s-109 -46 -124 -69c4 -12 6 -27 6 -40v-251h56c8 0 12 -4 12 -12v-43c0 -8 -5 -12 -12 -12h-191c-8 0 -13 4 -13 12v43c0 8 5 12 13 12h53v238c0 75 -36 122 -110 122c-102 0 -133 -87 -133 -86v-274h49
c8 0 12 -4 12 -12v-43c0 -8 -5 -12 -12 -12h-187c-8 0 -13 4 -13 12v43c0 8 5 12 13 12h55v358h-55c-8 0 -13 4 -13 12v43c0 8 5 12 13 12h98c22 0 32 -6 32 -30l-2 -50h3c12 20 54 87 162 87c72 0 124 -31 149 -83c15 22 58 83 161 83c108 0 169 -69 169 -174l1 -258h56
c8 0 13 -4 13 -12v-43c0 -8 -5 -12 -13 -12z" />
    <glyph glyph-name="i" unicode="i" horiz-adv-x="293" 
d="M242 0h-191c-8 0 -13 4 -13 12v43c0 8 5 12 13 12h55v358h-55c-8 0 -13 4 -13 12v43c0 8 5 12 13 12h126c8 0 12 -4 12 -12v-413h53c8 0 13 -4 13 -12v-43c0 -8 -5 -12 -13 -12zM202 600c0 -31 -25 -55 -56 -55s-56 24 -56 55s25 57 56 57s56 -26 56 -57z" />
    <glyph glyph-name="c" unicode="c" horiz-adv-x="539" 
d="M465 144l29 -28c7 -6 7 -12 3 -18c-12 -22 -81 -105 -213 -105c-135 0 -246 95 -246 255c0 162 117 251 238 251c91 0 138 -44 159 -74h1l-1 55c0 8 5 13 13 13h38c8 0 12 -5 12 -13v-170c0 -8 -5 -12 -12 -12h-46c-7 0 -12 4 -12 12v17c-1 43 -55 102 -142 102
c-75 0 -164 -62 -164 -182c0 -119 84 -184 167 -184c86 0 145 55 159 78c4 7 11 8 17 3z" />
    <glyph glyph-name="o" unicode="o" horiz-adv-x="575" 
d="M287 -7c-142 0 -249 98 -249 255c0 158 111 251 250 251s248 -95 248 -251s-106 -255 -249 -255zM287 63c90 0 166 71 166 184c0 114 -79 182 -165 182c-87 0 -166 -68 -166 -182c0 -113 76 -184 165 -184z" />
    <glyph glyph-name="e" unicode="e" horiz-adv-x="538" 
d="M483 236h-360c5 -117 87 -173 166 -173c86 0 145 54 159 77c5 7 11 8 18 3l27 -27c7 -6 8 -12 4 -18c-13 -22 -81 -105 -213 -105c-135 0 -246 95 -246 255c0 162 116 251 236 251c143 0 226 -95 223 -250c0 -8 -5 -13 -14 -13zM125 297h289c-4 81 -52 136 -138 136
c-69 0 -139 -40 -151 -136z" />
    <glyph glyph-name="b" unicode="b" 
d="M170 0h-51c-7 0 -12 4 -12 12v639h-56c-8 0 -13 4 -13 12v43c0 8 5 12 13 12h123c8 0 13 -4 13 -12v-266c0 -4 -3 -39 -3 -39h3c20 48 74 98 163 98c136 0 224 -103 224 -250c0 -156 -92 -256 -225 -256c-90 0 -144 51 -165 101h-1v-82c0 -8 -5 -12 -13 -12zM338 63
c90 0 154 74 154 185c0 113 -69 181 -154 181c-82 0 -153 -65 -153 -182c0 -113 67 -184 153 -184z" />
    <glyph glyph-name="d" unicode="d" horiz-adv-x="612" 
d="M562 0h-87c-30 0 -44 11 -44 42v56h-1c-19 -49 -76 -105 -167 -105c-133 0 -225 100 -225 256c0 147 90 250 226 250c89 0 141 -50 162 -98h1s-1 20 -1 33v217h-56c-8 0 -13 4 -13 12v43c0 8 5 12 13 12h124c8 0 12 -4 12 -12v-639h56c8 0 12 -4 12 -12v-43
c0 -8 -5 -12 -12 -12zM275 63c86 0 152 71 152 184c0 117 -70 182 -152 182c-86 0 -155 -68 -155 -181c0 -111 65 -185 155 -185z" />
    <glyph glyph-name="p" unicode="p" 
d="M252 -225h-201c-8 0 -13 4 -13 12v43c0 8 5 12 13 12h56v583h-54c-8 0 -13 4 -13 12v43c0 8 5 12 13 12h117c8 0 13 -4 13 -12l-1 -79h1c22 47 76 98 166 98c133 0 225 -98 225 -252c0 -148 -87 -254 -224 -254c-89 0 -142 50 -163 98h-3s3 -32 3 -46v-203h65
c8 0 13 -4 13 -12v-43c0 -8 -5 -12 -13 -12zM338 63c88 0 154 72 154 182c0 114 -67 184 -154 184c-76 0 -153 -59 -153 -191c0 -113 76 -175 153 -175z" />
    <glyph glyph-name="q" unicode="q" 
d="M562 -225h-201c-8 0 -13 4 -13 12v43c0 8 5 12 13 12h65v208c0 13 3 45 3 45h-3c-21 -48 -74 -102 -163 -102c-137 0 -225 106 -225 254c0 155 93 252 225 252c90 0 144 -50 166 -97h2l-1 78c0 8 5 12 12 12h52c7 0 12 -4 12 -12v-638h56c8 0 12 -4 12 -12v-43
c0 -8 -4 -12 -12 -12zM275 63c84 0 152 69 152 183c0 117 -69 183 -152 183c-87 0 -155 -70 -155 -183c0 -111 67 -183 155 -183z" />
    <glyph glyph-name="l" unicode="l" horiz-adv-x="293" 
d="M242 0h-191c-8 0 -13 4 -13 12v43c0 8 5 12 13 12h55v584h-55c-8 0 -13 4 -13 12v43c0 8 5 12 13 12h111c20 0 27 -8 27 -25v-626h53c8 0 13 -4 13 -12v-43c0 -8 -5 -12 -13 -12z" />
    <glyph glyph-name="r" unicode="r" horiz-adv-x="421" 
d="M242 0h-191c-8 0 -13 4 -13 12v43c0 8 5 12 13 12h55v358h-55c-8 0 -13 4 -13 12v43c0 8 5 12 13 12h117c8 0 13 -4 13 -12v-125h3s33 139 214 139c8 0 13 -5 13 -13v-53c0 -8 -5 -13 -13 -13h-21c-121 0 -188 -94 -188 -180v-168h53c8 0 13 -4 13 -12v-43
c0 -8 -5 -12 -13 -12z" />
    <glyph glyph-name="g" unicode="g" horiz-adv-x="611" 
d="M268 -234c-131 0 -186 60 -194 66c-5 5 -8 12 -3 18l26 37c4 6 11 5 17 1c10 -7 53 -50 153 -50c89 0 159 39 159 143v114c-21 -49 -74 -102 -163 -102c-137 0 -225 106 -225 254c0 154 93 252 225 252c90 0 144 -51 166 -98h2l-1 79c0 8 4 12 12 12h118
c8 0 12 -4 12 -12v-43c0 -8 -4 -12 -12 -12h-54v-444c0 -148 -102 -215 -238 -215zM275 63c84 0 152 69 152 183c0 117 -69 183 -152 183c-87 0 -155 -70 -155 -184c0 -110 67 -182 155 -182z" />
    <glyph glyph-name="f" unicode="f" horiz-adv-x="387" 
d="M279 0h-226c-8 0 -13 4 -13 12v43c0 8 5 12 13 12h55v358h-57c-8 0 -13 4 -13 12v43c0 8 5 12 13 12h57v62c0 113 61 170 161 170c59 0 92 -32 101 -40c7 -6 8 -11 3 -17l-24 -31c-5 -5 -11 -7 -17 -2c-5 4 -25 19 -55 19c-54 0 -86 -34 -86 -100v-61h128
c8 0 13 -4 13 -12v-43c0 -8 -5 -12 -13 -12h-128v-358h88c8 0 12 -4 12 -12v-43c0 -8 -4 -12 -12 -12z" />
    <glyph glyph-name="j" unicode="j" horiz-adv-x="326" 
d="M288 601c0 -31 -25 -56 -56 -56s-56 25 -56 56c0 30 25 56 56 56s56 -26 56 -56zM189 -63v488h-56c-7 0 -12 4 -12 12v43c0 8 4 12 12 12h127c8 0 12 -4 12 -12v-544c0 -113 -61 -170 -161 -170c-59 0 -91 31 -100 39c-7 6 -7 13 -2 19l23 30c5 5 12 7 18 2
c5 -4 23 -19 54 -19c54 0 85 34 85 100z" />
    <glyph glyph-name="k" unicode="k" horiz-adv-x="614" 
d="M570 0h-54c-21 0 -39 11 -53 31l-177 240l-97 -90v-114h53c8 0 13 -4 13 -12v-43c0 -8 -5 -12 -13 -12h-191c-8 0 -13 4 -13 12v43c0 8 5 12 13 12h55v584h-55c-8 0 -13 4 -13 12v43c0 8 5 12 13 12h126c8 0 12 -4 12 -12v-448l182 167h-36c-8 0 -12 4 -12 12v43
c0 8 4 12 12 12h192c8 0 12 -4 12 -12v-43c0 -8 -4 -12 -12 -12h-65l-122 -107l187 -251h43c8 0 12 -4 12 -12v-43c0 -8 -5 -12 -12 -12z" />
    <glyph glyph-name="t" unicode="t" horiz-adv-x="401" 
d="M348 82l24 -31c6 -6 4 -13 -2 -19c-9 -8 -42 -39 -101 -39c-100 0 -161 57 -161 170v262h-56c-8 0 -14 5 -14 13v41c0 8 6 13 14 13h56v101c0 8 6 14 14 14h56c8 0 13 -6 13 -14v-101h127c8 0 14 -5 14 -13v-41c0 -8 -6 -13 -14 -13h-127v-260c0 -67 32 -101 86 -101
c30 0 49 15 53 19c7 6 13 5 18 -1z" />
    <glyph glyph-name="space" unicode=" " horiz-adv-x="313" 
 />
    <glyph glyph-name="a" unicode="a" horiz-adv-x="580" 
d="M529 0h-87c-29 0 -43 11 -43 42v51h-2c-18 -25 -74 -101 -195 -101c-93 0 -164 52 -164 139c0 114 110 159 268 159h84v12c0 95 -53 125 -130 125c-106 0 -147 -46 -151 -46c-5 -2 -11 -2 -15 3l-28 35c-5 6 -4 11 2 16c5 6 60 64 195 64c129 0 210 -54 210 -200v-232h56
c8 0 12 -4 12 -12v-43c0 -8 -4 -12 -12 -12zM390 149v81h-79c-104 0 -187 -13 -187 -88c0 -45 40 -79 103 -79c84 0 140 56 163 86z" />
    <glyph glyph-name="v" unicode="v" horiz-adv-x="588" 
d="M326 0h-67c-14 0 -17 4 -22 18l-159 407h-56c-7 0 -12 4 -12 12v43c0 8 4 12 12 12h186c8 0 12 -4 12 -12v-43c0 -8 -4 -12 -12 -12h-44l128 -337h2l130 337h-45c-8 0 -12 4 -12 12v43c0 8 4 12 12 12h186c8 0 13 -4 13 -12v-43c0 -8 -5 -12 -13 -12h-55l-161 -407
c-5 -14 -9 -18 -23 -18z" />
    <glyph glyph-name="w" unicode="w" horiz-adv-x="812" 
d="M576 0h-59c-14 0 -22 6 -24 21l-85 335h-2l-85 -335c-3 -15 -10 -21 -25 -21h-58c-15 0 -20 7 -24 21l-132 404h-56c-7 0 -12 4 -12 12v43c0 8 4 12 12 12h187c8 0 12 -4 12 -12v-43c0 -8 -5 -12 -12 -12h-46l101 -337h2l88 337h-39c-7 0 -12 4 -12 12v43c0 8 4 12 12 12
h176c8 0 12 -4 12 -12v-43c0 -8 -5 -12 -12 -12h-39l88 -337h2l100 337h-45c-8 0 -13 4 -13 12v43c0 8 5 12 13 12h186c8 0 12 -4 12 -12v-43c0 -8 -4 -12 -12 -12h-55l-132 -404c-5 -14 -10 -21 -24 -21z" />
    <glyph glyph-name="y" unicode="y" horiz-adv-x="590" 
d="M247 -63l27 74h-13c-13 0 -19 7 -26 25l-153 389h-55c-7 0 -12 4 -12 12v43c0 8 4 12 12 12h181c8 0 13 -4 13 -12v-43c0 -8 -5 -12 -13 -12h-41l129 -339h2l120 339h-45c-8 0 -12 4 -12 12v43c0 8 4 12 12 12h186c8 0 12 -4 12 -12v-43c0 -8 -4 -12 -12 -12h-56
l-178 -489c-39 -106 -75 -170 -170 -170c-59 0 -92 31 -101 39c-6 6 -8 12 -3 18l25 32c6 5 11 6 18 1c5 -4 22 -19 53 -19c51 0 74 29 100 100z" />
    <glyph glyph-name="x" unicode="x" horiz-adv-x="557" 
d="M523 0h-188c-8 0 -12 4 -12 12v43c0 8 4 12 12 12h50l-118 145l-110 -145h46c8 0 12 -4 12 -12v-43c0 -8 -5 -12 -12 -12h-169c-8 0 -12 4 -12 12v43c0 8 4 12 12 12h48l146 184l-146 174h-48c-7 0 -12 4 -12 12v43c0 8 4 12 12 12h188c8 0 12 -4 12 -12v-43
c0 -8 -5 -12 -12 -12h-47l118 -143l101 143h-40c-7 0 -12 4 -12 12v43c0 8 4 12 12 12h169c8 0 12 -4 12 -12v-43c0 -8 -4 -12 -12 -12h-54l-136 -185l146 -173h44c8 0 12 -4 12 -12v-43c0 -8 -5 -12 -12 -12z" />
    <glyph glyph-name="z" unicode="z" horiz-adv-x="519" 
d="M468 0h-417c-8 0 -13 4 -13 12v41c0 19 6 25 15 34l324 338h-271v-77c0 -8 -4 -12 -12 -12h-43c-8 0 -13 4 -13 12v132c0 8 5 12 13 12h417c8 0 13 -4 13 -12v-35c0 -14 -7 -24 -16 -32l-328 -346h275v79c0 8 5 12 13 12h43c8 0 13 -4 13 -12v-134c0 -8 -5 -12 -13 -12z
" />
    <glyph glyph-name="s" unicode="s" horiz-adv-x="486" 
d="M260 -7c-103 0 -149 55 -157 72h-2s2 -49 2 -52c0 -8 -6 -13 -14 -13h-34c-8 0 -13 5 -13 13v150c0 8 5 13 13 13h39c8 0 14 -5 14 -13v-20s28 -85 141 -85c71 0 108 29 108 78c0 99 -301 47 -301 221c0 89 72 142 167 142c75 0 118 -26 142 -58h2s-2 36 -2 37
c0 8 5 13 13 13h32c8 0 13 -5 13 -13v-139c0 -8 -5 -13 -13 -13h-39c-8 0 -14 5 -14 13v14c0 28 -33 80 -124 80c-49 0 -95 -27 -95 -78c0 -112 306 -53 306 -221c0 -73 -51 -141 -184 -141z" />
    <glyph glyph-name="A" unicode="A" horiz-adv-x="841" 
d="M768 0h-226c-8 0 -12 4 -12 12v51c0 8 4 12 12 12h70l-65 173h-279l-65 -173h70c8 0 12 -4 12 -12v-51c0 -8 -4 -12 -12 -12h-225c-8 0 -12 4 -12 12v51c0 8 4 12 12 12h67l215 568h-54c-8 0 -13 4 -13 12v51c0 8 5 12 13 12h136c33 0 47 -13 58 -43l230 -600h68
c8 0 12 -4 12 -12v-51c0 -8 -5 -12 -12 -12zM520 317l-111 297h-3l-112 -297h226z" />
    <glyph glyph-name="B" unicode="B" horiz-adv-x="681" 
d="M384 0h-323c-8 0 -13 4 -13 12v51c0 8 4 12 13 12h76v568h-76c-8 0 -13 4 -13 12v51c0 8 4 12 13 12h322c137 0 211 -80 211 -192c0 -67 -34 -120 -89 -151c96 -28 128 -93 128 -170c0 -120 -78 -205 -249 -205zM224 75h153c100 0 168 40 168 137c0 84 -59 125 -162 125
h-159v-262zM224 403h153c61 1 129 33 129 116c0 98 -73 124 -140 124h-142v-240z" />
    <glyph glyph-name="D" unicode="D" horiz-adv-x="740" 
d="M342 0h-287c-7 0 -12 4 -12 12v51c0 8 4 12 12 12h77v568h-77c-7 0 -12 4 -12 12v51c0 8 4 12 12 12h270c220 0 362 -133 362 -358c0 -224 -134 -360 -345 -360zM219 75h99c181 1 278 95 278 283c0 176 -94 285 -281 285h-96v-568z" />
    <glyph glyph-name="E" unicode="E" horiz-adv-x="653" 
d="M592 0h-531c-8 0 -13 4 -13 12v51c0 8 4 12 13 12h76v568h-76c-8 0 -13 4 -13 12v51c0 8 4 12 13 12h531c8 0 13 -4 13 -12v-161c0 -8 -5 -13 -13 -13h-54c-8 0 -12 5 -12 13v98h-302v-248h253c8 0 13 -4 13 -12v-51c0 -8 -5 -12 -13 -12h-253v-245h301v98
c0 8 5 12 13 12h54c8 0 13 -4 13 -12v-161c0 -8 -5 -12 -13 -12z" />
    <glyph glyph-name="F" unicode="F" horiz-adv-x="635" 
d="M337 0h-276c-8 0 -13 4 -13 12v51c0 8 4 12 13 12h76v568h-76c-8 0 -13 4 -13 12v51c0 8 4 12 13 12h513c8 0 13 -4 13 -12v-161c0 -8 -5 -13 -13 -13h-54c-8 0 -12 5 -12 13v98h-284v-248h235c9 0 13 -4 13 -12v-51c0 -8 -5 -12 -13 -12h-235v-245h113c8 0 12 -4 12 -12
v-51c0 -8 -4 -12 -12 -12z" />
    <glyph glyph-name="H" unicode="H" horiz-adv-x="820" 
d="M760 0h-241c-8 0 -12 4 -12 12v51c0 8 4 12 12 12h77v245h-372v-245h77c8 0 13 -4 13 -12v-51c0 -8 -5 -12 -13 -12h-240c-8 0 -13 4 -13 12v51c0 8 4 12 13 12h76v568h-76c-8 0 -13 4 -13 12v51c0 8 4 12 13 12h240c8 0 13 -4 13 -12v-51c0 -8 -5 -12 -13 -12h-77v-250
h372v250h-77c-8 0 -12 4 -12 12v51c0 8 4 12 12 12h241c8 0 12 -4 12 -12v-51c0 -8 -4 -12 -12 -12h-77v-568h77c8 0 12 -4 12 -12v-51c0 -8 -4 -12 -12 -12z" />
    <glyph glyph-name="I" unicode="I" horiz-adv-x="362" 
d="M301 0h-240c-8 0 -13 4 -13 12v51c0 8 4 12 13 12h76v568h-76c-8 0 -13 4 -13 12v51c0 8 4 12 13 12h240c8 0 13 -4 13 -12v-51c0 -8 -5 -12 -13 -12h-77v-568h77c8 0 13 -4 13 -12v-51c0 -8 -5 -12 -13 -12z" />
    <glyph glyph-name="L" unicode="L" horiz-adv-x="670" 
d="M608 0h-547c-8 0 -13 4 -13 12v51c0 8 4 12 13 12h76v568h-76c-8 0 -13 4 -13 12v51c0 8 4 12 13 12h239c8 0 13 -5 13 -13v-49c0 -8 -5 -13 -13 -13h-76v-568h318v98c0 8 5 12 13 12h54c8 0 12 -4 12 -12v-160c0 -8 -5 -13 -13 -13z" />
    <glyph glyph-name="T" unicode="T" horiz-adv-x="727" 
d="M478 0h-233c-8 0 -13 5 -13 13v49c0 8 5 13 13 13h76v568h-189v-106c0 -8 -6 -14 -14 -14h-56c-8 0 -14 6 -14 14v168c0 8 6 13 14 13h603c8 0 14 -5 14 -13v-168c0 -8 -6 -14 -14 -14h-57c-8 0 -13 6 -13 14v106h-187v-568h70c8 0 14 -5 14 -13v-49c0 -8 -6 -13 -14 -13
z" />
    <glyph glyph-name="C" unicode="C" horiz-adv-x="752" 
d="M655 209l42 -28c8 -6 7 -12 3 -20c-16 -31 -98 -168 -311 -168c-190 0 -341 144 -341 370c0 228 159 361 336 361c132 0 197 -64 225 -107l-1 89c-1 8 4 12 12 12h56c8 0 13 -4 13 -12v-218c0 -8 -5 -13 -13 -13h-63c-8 0 -12 5 -12 13v9c0 53 -86 145 -212 145
c-120 0 -248 -90 -248 -282c0 -190 128 -283 251 -283c155 0 221 86 244 126c5 9 12 12 19 6z" />
    <glyph glyph-name="G" unicode="G" horiz-adv-x="750" 
d="M690 0h-53c-8 0 -13 4 -13 12l1 69c-41 -41 -112 -88 -233 -88c-194 0 -344 144 -344 370c0 232 167 361 341 361c129 0 192 -55 220 -95l-1 77c-1 8 4 12 12 12h56c8 0 13 -4 13 -12v-206c0 -8 -5 -12 -13 -12h-63c-8 0 -12 4 -12 12v12c0 53 -83 130 -208 130
c-128 0 -252 -106 -252 -282c0 -186 129 -283 254 -283c127 0 193 56 222 101v78h-186c-8 0 -12 5 -12 13v46c0 8 4 12 12 12h259c8 0 12 -4 12 -12v-303c0 -8 -4 -12 -12 -12z" />
    <glyph glyph-name="O" unicode="O" horiz-adv-x="793" 
d="M397 -7c-196 0 -349 150 -349 370c0 228 168 361 349 361s347 -133 347 -361c0 -224 -151 -370 -347 -370zM397 74c126 0 254 98 254 286c0 192 -135 285 -254 285s-255 -93 -255 -285c0 -188 129 -286 255 -286z" />
    <glyph glyph-name="P" unicode="P" horiz-adv-x="658" 
d="M322 0h-261c-8 0 -13 4 -13 12v51c0 8 4 12 13 12h76v568h-76c-8 0 -13 4 -13 12v51c0 8 4 12 13 12h308c138 0 241 -85 241 -227c0 -140 -93 -220 -252 -220h-134v-196h98c8 0 12 -4 12 -12v-51c0 -8 -5 -12 -12 -12zM224 342h130c105 0 168 44 168 148
c0 109 -79 153 -167 153h-131v-301z" />
    <glyph glyph-name="R" unicode="R" horiz-adv-x="715" 
d="M655 0h-87c-29 0 -45 18 -60 48l-94 191c-14 30 -28 49 -63 50h-127v-214h90c8 0 12 -4 12 -12v-51c0 -8 -5 -12 -12 -12h-253c-8 0 -13 4 -13 12v51c0 8 4 12 13 12h76v568h-76c-8 0 -13 4 -13 12v51c0 8 4 12 13 12h308c138 0 241 -74 241 -216
c0 -104 -52 -171 -147 -196c17 -13 30 -35 47 -67l84 -164h61c8 0 12 -4 12 -12v-51c0 -8 -5 -12 -12 -12zM224 360h128c103 0 170 35 170 139c0 110 -79 144 -170 144h-128v-283z" />
    <glyph glyph-name="Q" unicode="Q" horiz-adv-x="769" 
d="M716 -26l15 -40c2 -6 0 -12 -7 -16c-9 -4 -57 -27 -127 -27c-185 0 -273 113 -272 113c-160 29 -277 167 -277 359c0 228 168 361 349 361s347 -133 347 -361c0 -210 -132 -351 -311 -367c3 -2 57 -38 166 -38c52 0 80 10 103 20c7 3 12 2 14 -4zM397 77
c126 0 254 95 254 283c0 192 -135 282 -254 282s-255 -90 -255 -282c0 -188 129 -283 255 -283z" />
    <glyph glyph-name="N" unicode="N" horiz-adv-x="820" 
d="M670 0h-54c-28 0 -39 12 -51 31l-289 452c-29 44 -50 84 -50 84h-2v-492h77c8 0 13 -4 13 -12v-51c0 -8 -5 -12 -13 -12h-240c-8 0 -13 4 -13 12v51c0 8 4 12 13 12h76v568h-76c-8 0 -13 4 -13 12v51c0 8 4 12 13 12h140c28 0 40 -17 51 -34l285 -446
c32 -50 57 -97 57 -97h2v502h-77c-8 0 -12 4 -12 12v51c0 8 4 12 12 12h241c8 0 12 -4 12 -12v-51c0 -8 -4 -12 -12 -12h-77v-631c0 -8 -5 -12 -13 -12z" />
    <glyph glyph-name="M" unicode="M" horiz-adv-x="919" 
d="M859 0h-231c-8 0 -12 4 -12 12v51c0 8 4 12 12 12h67v498h-1l-190 -472c-8 -20 -23 -30 -45 -30c-20 0 -35 10 -43 30l-190 472h-2v-498h67c8 0 13 -4 13 -12v-51c0 -8 -5 -12 -13 -12h-230c-8 0 -13 4 -13 12v51c0 8 4 12 13 12h76v568h-76c-8 0 -13 4 -13 12v51
c0 8 4 12 13 12h154c24 0 39 -13 47 -34l149 -360c18 -44 47 -126 47 -126h4s28 78 46 124l150 362c8 21 23 34 48 34h153c8 0 12 -4 12 -12v-51c0 -8 -5 -12 -12 -12h-77v-568h77c8 0 12 -4 12 -12v-51c0 -8 -5 -12 -12 -12z" />
    <glyph glyph-name="K" unicode="K" horiz-adv-x="763" 
d="M702 0h-87c-29 0 -45 18 -60 48l-94 191c-12 24 -26 52 -96 52h-141v-216h92c8 0 13 -4 13 -12v-51c0 -8 -5 -12 -13 -12h-255c-8 0 -13 4 -13 12v51c0 8 4 12 13 12h76v568h-76c-8 0 -13 4 -13 12v51c0 8 4 12 13 12h224c8 0 12 -4 12 -12v-51c0 -8 -5 -12 -12 -12h-61
v-281h105c133 0 209 63 209 281h-68c-8 0 -12 4 -12 12v51c0 8 4 12 12 12h223c8 0 12 -4 12 -12v-51c0 -8 -4 -12 -12 -12h-69c0 -171 -51 -269 -136 -315c34 -16 48 -44 66 -80l87 -173h61c8 0 12 -4 12 -12v-51c0 -8 -5 -12 -12 -12z" />
    <glyph glyph-name="U" unicode="U" horiz-adv-x="814" 
d="M590 260v383h-77c-8 0 -12 4 -12 12v51c0 8 4 12 12 12h241c8 0 12 -4 12 -12v-51c0 -8 -4 -12 -12 -12h-77v-374c0 -183 -100 -276 -269 -276c-170 0 -271 93 -271 276v374h-76c-8 0 -13 4 -13 12v51c0 8 4 12 13 12h240c8 0 13 -4 13 -12v-51c0 -8 -5 -12 -13 -12h-77
v-377c0 -110 44 -192 184 -192c130 0 182 76 182 186z" />
    <glyph glyph-name="J" unicode="J" horiz-adv-x="484" 
d="M259 262v381h-76c-8 0 -13 4 -13 12v51c0 8 5 12 13 12h240c8 0 13 -4 13 -12v-51c0 -8 -5 -12 -13 -12h-77v-372c0 -200 -94 -271 -285 -271c-8 0 -13 4 -13 12v51c0 8 4 12 13 12c152 0 198 64 198 187z" />
    <glyph glyph-name="V" unicode="V" horiz-adv-x="848" 
d="M444 0h-39c-27 0 -37 13 -47 40l-233 603h-64c-9 0 -13 4 -13 12v51c0 8 5 12 13 12h225c8 0 12 -4 12 -12v-51c0 -8 -4 -12 -12 -12h-68l203 -537h6l203 537h-68c-8 0 -13 4 -13 12v51c0 8 5 12 13 12h225c8 0 13 -4 13 -12v-51c0 -8 -5 -12 -13 -12h-66l-231 -603
c-9 -26 -18 -40 -46 -40z" />
    <glyph glyph-name="W" unicode="W" horiz-adv-x="1094" 
d="M748 0h-38c-26 0 -40 12 -47 40l-116 508h-3l-114 -508c-7 -28 -21 -40 -48 -40h-37c-27 0 -39 13 -48 40l-183 603h-63c-8 0 -13 4 -13 12v51c0 8 5 12 13 12h225c8 0 13 -4 13 -12v-51c0 -8 -5 -12 -13 -12h-70l155 -537h6l139 612h80l140 -612h6l155 537h-71
c-8 0 -12 4 -12 12v51c0 8 5 12 12 12h226c8 0 12 -4 12 -12v-51c0 -8 -4 -12 -12 -12h-64l-183 -603c-8 -27 -21 -40 -47 -40z" />
    <glyph glyph-name="Y" unicode="Y" horiz-adv-x="759" 
d="M500 0h-241c-7 0 -12 4 -12 12v51c0 8 4 12 12 12h77v214c-3 4 -147 264 -207 354h-68c-9 0 -13 4 -13 12v51c0 8 5 12 13 12h225c8 0 12 -4 12 -12v-51c0 -8 -4 -12 -12 -12h-66l157 -278h6l156 278h-66c-8 0 -12 4 -12 12v51c0 8 4 12 12 12h226c7 0 12 -4 12 -12v-51
c0 -8 -4 -12 -12 -12h-69c-62 -90 -204 -350 -207 -353v-215h77c8 0 12 -4 12 -12v-51c0 -8 -4 -12 -12 -12z" />
    <glyph glyph-name="X" unicode="X" horiz-adv-x="814" 
d="M746 0h-241c-8 0 -12 4 -12 12v51c0 8 4 12 12 12h66l-166 233l-171 -233h67c8 0 13 -4 13 -12v-51c0 -8 -5 -12 -13 -12h-240c-8 0 -13 4 -13 12v51c0 8 4 12 13 12h77l216 287l-217 281h-76c-9 0 -13 4 -13 12v51c0 8 5 12 13 12h240c8 0 13 -4 13 -12v-51
c0 -8 -5 -12 -13 -12h-68l170 -226l170 226h-61c-8 0 -12 4 -12 12v51c0 8 4 12 12 12h241c8 0 12 -4 12 -12v-51c0 -8 -4 -12 -12 -12h-83l-216 -281l212 -287h80c8 0 12 -4 12 -12v-51c0 -8 -5 -12 -12 -12z" />
    <glyph glyph-name="Z" unicode="Z" horiz-adv-x="641" 
d="M580 0h-518c-8 0 -14 5 -14 13v43c0 9 11 23 20 34l406 553h-342v-81c0 -8 -6 -14 -14 -14h-56c-8 0 -14 6 -14 14v143c0 8 6 13 14 13h518c8 0 13 -5 13 -13v-37c0 -13 -10 -29 -20 -41l-406 -552h343v81c0 8 5 14 13 14h57c8 0 13 -6 13 -14v-143c0 -8 -5 -13 -13 -13z
" />
    <glyph glyph-name="S" unicode="S" horiz-adv-x="666" 
d="M117 0h-56c-9 0 -13 4 -13 12v234c0 8 5 13 13 13h63c7 0 12 -5 12 -13v-21c0 -15 53 -151 214 -151c102 0 164 44 164 121c0 165 -444 78 -444 335c0 109 88 194 234 194c103 0 163 -35 198 -79l-2 62c0 8 5 12 13 12h56c8 0 12 -4 12 -12v-218c0 -8 -4 -12 -12 -12h-63
c-8 0 -12 4 -12 12v28c0 41 -47 125 -181 125c-90 0 -147 -48 -147 -112c0 -174 452 -89 452 -335c0 -108 -74 -202 -251 -202c-139 0 -213 75 -239 117l1 -98c0 -8 -4 -12 -12 -12z" />
    <glyph glyph-name="one" unicode="1" horiz-adv-x="508" 
d="M458 0h-395c-8 0 -13 4 -13 12v51c0 8 5 12 13 12h162v549l-138 -99c-6 -4 -12 -4 -17 3l-28 41c-5 6 -4 12 3 17l174 125c7 5 11 7 18 7h63c8 0 12 -4 12 -12v-631h146c8 0 12 -4 12 -12v-51c0 -8 -5 -12 -12 -12z" />
    <glyph glyph-name="zero" unicode="0" horiz-adv-x="654" 
d="M327 -7c-184 0 -289 150 -289 370c0 210 108 361 289 361s289 -151 289 -361c0 -219 -105 -370 -289 -370zM327 74c122 0 196 102 196 286c0 179 -76 285 -196 285c-121 0 -196 -107 -196 -285c0 -182 74 -286 196 -286z" />
    <glyph glyph-name="two" unicode="2" horiz-adv-x="602" 
d="M551 0h-500c-8 0 -13 4 -13 12v31c0 298 424 258 424 462c0 75 -64 139 -158 139c-116 0 -169 -66 -169 -145c0 -8 -5 -12 -13 -12h-65c-7 0 -12 4 -12 12c0 112 77 225 259 225c161 0 248 -102 248 -213c0 -258 -402 -241 -416 -436h340v72c0 8 5 12 12 12h63
c8 0 13 -4 13 -12v-135c0 -8 -5 -12 -13 -12z" />
    <glyph glyph-name="three" unicode="3" horiz-adv-x="590" 
d="M407 378v-1c31 0 144 -37 144 -178c0 -124 -106 -206 -265 -206c-165 0 -230 102 -243 117c-6 5 -6 12 0 17l43 40c6 6 12 5 18 0c29 -30 73 -93 182 -93c107 0 175 54 175 136c0 86 -63 127 -172 127h-40c-7 0 -12 5 -12 13v45c0 8 4 13 12 13h32c56 0 157 18 157 117
c0 63 -44 119 -147 119c-96 0 -135 -63 -135 -116c0 -8 -5 -12 -12 -12h-61c-8 0 -12 4 -12 12c0 119 86 196 220 196c172 0 238 -106 238 -191c0 -107 -97 -155 -122 -155z" />
    <glyph glyph-name="four" unicode="4" horiz-adv-x="608" 
d="M557 0h-288c-7 0 -12 4 -12 12v51c0 8 4 12 12 12h115v150h-333c-8 0 -12 5 -12 13v40c0 11 3 18 13 32l312 385c16 20 23 23 37 23h57c8 0 13 -4 13 -12v-411h79c8 0 13 -5 13 -13v-44c0 -8 -5 -13 -13 -13h-79v-150h86c8 0 13 -4 13 -12v-51c0 -8 -5 -12 -13 -12z
M384 295v315l-255 -315h255z" />
    <glyph glyph-name="five" unicode="5" horiz-adv-x="590" 
d="M286 -7c-163 0 -230 102 -243 117c-6 5 -6 12 0 17l43 40c6 6 12 5 18 0c29 -30 71 -93 182 -93c110 0 176 57 176 161c0 95 -67 159 -176 159c-76 0 -141 -26 -175 -34c-11 -2 -27 -2 -27 24v324c0 8 5 12 12 12h401c7 0 12 -4 12 -12v-130c0 -8 -5 -12 -12 -12h-64
c-7 0 -12 4 -12 12v67h-249v-203c10 2 59 20 132 20c162 0 248 -94 248 -231c0 -145 -105 -238 -266 -238z" />
    <glyph glyph-name="seven" unicode="7" horiz-adv-x="598" 
d="M301 0h-63c-8 0 -12 4 -12 12c0 438 231 421 237 637h-337v-72c0 -8 -5 -12 -12 -12h-63c-8 0 -13 4 -13 12v135c0 8 5 12 13 12h496c8 0 12 -4 12 -12v-33c-1 -266 -245 -256 -245 -666c0 -9 -5 -13 -13 -13z" />
    <glyph glyph-name="six" unicode="6" 
d="M535 523h-60c-8 0 -13 4 -13 12c0 45 -38 110 -135 110c-116 0 -181 -87 -193 -234c35 22 98 51 195 51c161 0 246 -94 246 -231c0 -136 -100 -238 -261 -238c-178 0 -276 146 -276 360c0 223 97 371 289 371c135 0 221 -78 221 -189c0 -8 -5 -12 -13 -12zM131 339
c3 -170 69 -265 182 -265c108 0 172 67 172 161c0 95 -66 159 -174 159c-93 0 -153 -37 -180 -55z" />
    <glyph glyph-name="nine" unicode="9" horiz-adv-x="612" 
d="M77 194h61c8 0 12 -4 12 -12c0 -45 38 -110 136 -110c116 0 180 87 192 234c-35 -22 -97 -51 -194 -51c-162 0 -246 94 -246 231c0 136 100 238 261 238c178 0 274 -146 274 -360c0 -223 -102 -371 -287 -371c-135 0 -221 78 -221 189c0 8 5 12 12 12zM482 378
c-3 170 -69 265 -182 265c-108 0 -172 -67 -172 -161c0 -95 66 -159 174 -159c92 0 153 37 180 55z" />
    <glyph glyph-name="eight" unicode="8" horiz-adv-x="608" 
d="M430 387v-1c30 0 140 -40 140 -181c0 -124 -107 -212 -265 -212c-160 0 -267 88 -267 212c0 141 109 181 140 181v1c-25 0 -116 42 -116 149c0 85 65 187 242 188c177 0 242 -103 242 -188c0 -107 -92 -149 -116 -149zM317 345h-26c-105 0 -163 -51 -163 -135
c0 -82 69 -136 176 -136s175 55 175 136c0 84 -58 135 -162 135zM456 527c0 62 -49 117 -152 117s-152 -55 -152 -117c0 -99 94 -118 150 -118c61 0 154 19 154 118z" />
    <glyph glyph-name="period" unicode="." horiz-adv-x="151" 
d="M123 40c0 -27 -21 -47 -47 -47c-27 0 -48 20 -48 47c0 26 21 47 48 47c26 0 47 -21 47 -47z" />
    <glyph glyph-name="comma" unicode="," horiz-adv-x="159" 
d="M45 -90v17c0 4 3 6 7 6c18 0 41 15 41 53c0 9 -2 12 -2 12s-6 -5 -19 -5c-24 0 -44 18 -44 46c0 27 21 47 48 47c34 0 55 -26 55 -73c0 -79 -37 -108 -79 -108c-4 0 -7 2 -7 5z" />
    <glyph glyph-name="colon" unicode=":" horiz-adv-x="171" 
d="M133 40c0 -27 -21 -47 -48 -47c-26 0 -47 20 -47 47c0 26 21 47 47 47c27 0 48 -21 48 -47zM133 440c0 -26 -21 -47 -48 -47c-26 0 -47 21 -47 47c0 27 21 48 47 48c27 0 48 -21 48 -48z" />
    <glyph glyph-name="semicolon" unicode=";" horiz-adv-x="179" 
d="M134 440c0 -26 -21 -47 -48 -47c-26 0 -47 21 -47 47c0 27 21 48 47 48c27 0 48 -21 48 -48zM55 -90v17c0 4 3 6 6 6c18 0 41 15 41 53c0 9 -2 12 -2 12s-5 -5 -19 -5c-23 0 -43 18 -43 46c0 27 21 47 47 47c35 0 56 -26 56 -73c0 -79 -37 -108 -80 -108c-3 0 -6 2 -6 5z
" />
    <glyph glyph-name="exclam" unicode="!" horiz-adv-x="182" 
d="M121 148h-60c-7 0 -12 4 -12 12v588c0 8 4 12 12 12h60c8 0 12 -4 12 -12v-588c0 -8 -5 -12 -12 -12zM144 4c0 -30 -23 -53 -53 -53c-29 0 -53 23 -53 53s24 53 53 53c30 0 53 -23 53 -53z" />
    <glyph glyph-name="plus" unicode="+" horiz-adv-x="401" 
d="M231 96h-58c-7 0 -12 5 -12 13v107h-109c-8 0 -14 5 -14 13v51c0 8 6 13 14 13h109v110c0 8 4 12 12 12h58c8 0 12 -4 12 -12v-110h106c8 0 13 -5 13 -13v-51c0 -8 -5 -13 -13 -13h-106v-107c0 -8 -5 -13 -12 -13z" />
    <glyph glyph-name="hyphen" unicode="-" horiz-adv-x="414" 
d="M363 222h-311c-8 0 -14 5 -14 13v51c0 8 6 13 14 13h311c8 0 13 -5 13 -13v-51c0 -8 -5 -13 -13 -13z" />
    <glyph glyph-name="parenright" unicode=")" horiz-adv-x="412" 
d="M38 -53v50c0 8 6 14 14 14c103 0 239 98 239 336c0 234 -133 340 -239 340c-9 0 -14 6 -14 13v51c0 8 6 13 14 13c150 0 321 -127 321 -414s-171 -417 -321 -417c-8 0 -14 6 -14 14z" />
    <glyph glyph-name="parenleft" unicode="(" horiz-adv-x="412" 
d="M373 -2v-51c0 -8 -5 -13 -13 -13c-150 0 -322 129 -322 417c0 286 172 414 322 414c8 0 13 -5 13 -13v-51c0 -8 -4 -13 -13 -13c-106 0 -239 -106 -239 -340c0 -238 136 -337 239 -337c8 0 13 -5 13 -13z" />
    <glyph glyph-name="endash" unicode="&#x2013;" horiz-adv-x="554" 
d="M503 222h-451c-8 0 -14 5 -14 13v51c0 8 6 13 14 13h451c8 0 13 -5 13 -13v-51c0 -8 -5 -13 -13 -13z" />
    <glyph glyph-name="emdash" unicode="&#x2014;" horiz-adv-x="879" 
d="M828 222h-776c-8 0 -14 5 -14 13v51c0 8 6 13 14 13h776c8 0 13 -5 13 -13v-51c0 -8 -5 -13 -13 -13z" />
    <glyph glyph-name="bracketleft" unicode="[" horiz-adv-x="304" 
d="M252 -71h-201c-8 0 -13 4 -13 12v813c0 8 5 12 13 12h201c8 0 14 -6 14 -14v-52c0 -8 -6 -13 -14 -13h-130v-679h130c8 0 14 -6 14 -14v-52c0 -8 -6 -13 -14 -13z" />
    <glyph glyph-name="bracketright" unicode="]" horiz-adv-x="304" 
d="M266 754v-813c0 -8 -5 -12 -13 -12h-201c-8 0 -14 5 -14 13v52c0 8 6 14 14 14h130v679h-130c-8 0 -14 5 -14 13v52c0 8 6 14 14 14h201c8 0 13 -4 13 -12z" />
    <glyph glyph-name="bar" unicode="|" horiz-adv-x="160" 
d="M110 -131h-59c-8 0 -13 4 -13 12v867c0 8 5 12 13 12h59c8 0 12 -4 12 -12v-867c0 -8 -4 -12 -12 -12z" />
    <glyph glyph-name="underscore" unicode="_" horiz-adv-x="554" 
d="M503 -100h-451c-8 0 -14 5 -14 13v51c0 8 6 13 14 13h451c8 0 13 -5 13 -13v-51c0 -8 -5 -13 -13 -13z" />
    <glyph glyph-name="equal" unicode="=" horiz-adv-x="423" 
d="M372 335h-320c-8 0 -14 6 -14 14v50c0 8 6 14 14 14h320c8 0 13 -6 13 -14v-50c0 -8 -5 -14 -13 -14zM372 100h-320c-8 0 -14 5 -14 13v51c0 8 6 13 14 13h320c8 0 13 -5 13 -13v-51c0 -8 -5 -13 -13 -13z" />
    <glyph glyph-name="ellipsis" unicode="&#x2026;" horiz-adv-x="397" 
d="M123 40c0 -27 -21 -47 -47 -47c-27 0 -48 20 -48 47c0 26 21 47 48 47c26 0 47 -21 47 -47zM247 40c0 -27 -21 -47 -48 -47c-26 0 -47 20 -47 47c0 26 21 47 47 47c27 0 48 -21 48 -47zM369 40c0 -27 -21 -47 -48 -47c-26 0 -47 20 -47 47c0 26 21 47 47 47
c27 0 48 -21 48 -47z" />
    <glyph glyph-name="dagger" unicode="&#x2020;" horiz-adv-x="425" 
d="M245 -131h-59c-8 0 -13 4 -13 12v615h-121c-8 0 -14 5 -14 13v51c0 8 6 13 14 13h121v175c0 8 5 12 13 12h59c8 0 12 -4 12 -12v-175h116c8 0 13 -5 13 -13v-51c0 -8 -5 -13 -13 -13h-116v-615c0 -8 -4 -12 -12 -12z" />
    <glyph glyph-name="daggerdbl" unicode="&#x2021;" horiz-adv-x="425" 
d="M245 -131h-59c-8 0 -13 4 -13 12v190h-121c-8 0 -14 6 -14 14v50c0 8 6 14 14 14h121v347h-121c-8 0 -14 5 -14 13v51c0 8 6 13 14 13h121v175c0 8 5 12 13 12h59c8 0 12 -4 12 -12v-175h116c8 0 13 -5 13 -13v-51c0 -8 -5 -13 -13 -13h-116v-347h116c8 0 13 -6 13 -14
v-50c0 -8 -5 -14 -13 -14h-116v-190c0 -8 -4 -12 -12 -12z" />
    <glyph glyph-name="brokenbar" unicode="&#xa6;" horiz-adv-x="160" 
d="M110 410h-59c-8 0 -13 4 -13 12v326c0 8 5 12 13 12h59c8 0 12 -4 12 -12v-326c0 -8 -4 -12 -12 -12zM110 -131h-59c-8 0 -13 4 -13 12v326c0 8 5 12 13 12h59c8 0 12 -4 12 -12v-326c0 -8 -4 -12 -12 -12z" />
    <glyph glyph-name="exclamdown" unicode="&#xa1;" horiz-adv-x="182" 
d="M121 -268h-60c-7 0 -12 4 -12 12v588c0 8 4 12 12 12h60c8 0 12 -4 12 -12v-588c0 -8 -5 -12 -12 -12zM144 488c0 -30 -23 -53 -53 -53c-29 0 -53 23 -53 53s24 53 53 53c30 0 53 -23 53 -53z" />
    <glyph glyph-name="slash" unicode="/" horiz-adv-x="405" 
d="M108 -74h-60c-7 0 -11 4 -9 12l242 810c3 8 9 12 17 12h59c8 0 11 -4 8 -12l-242 -810c-2 -8 -8 -12 -15 -12z" />
    <glyph glyph-name="backslash" unicode="\" horiz-adv-x="405" 
d="M123 748l242 -810c3 -8 -1 -12 -9 -12h-59c-8 0 -13 4 -16 12l-242 810c-2 8 1 12 9 12h59c8 0 14 -4 16 -12z" />
    <glyph glyph-name="quotedbl" unicode="&#x22;" horiz-adv-x="278" 
d="M90 561h-34c-8 0 -13 5 -13 13l-5 163c0 8 6 13 14 13h43c8 0 14 -5 13 -13l-5 -163c0 -8 -5 -13 -13 -13zM222 561h-34c-8 0 -13 5 -13 13l-5 163c0 8 5 13 13 13h44c8 0 14 -5 13 -13l-5 -163c0 -8 -5 -13 -13 -13z" />
    <glyph glyph-name="quotesingle" unicode="'" horiz-adv-x="147" 
d="M90 561h-34c-8 0 -13 5 -13 13l-5 163c0 8 6 13 14 13h43c8 0 13 -5 13 -13l-5 -163c0 -8 -5 -13 -13 -13z" />
    <glyph glyph-name="quoteleft" unicode="&#x2018;" horiz-adv-x="179" 
d="M124 770v-17c0 -4 -3 -6 -7 -6c-18 0 -41 -15 -41 -53c0 -9 2 -12 2 -12s6 5 19 5c24 0 44 -18 44 -46c0 -27 -21 -47 -48 -47c-34 0 -55 26 -55 73c0 79 37 109 79 109c4 0 7 -2 7 -6z" />
    <glyph glyph-name="quoteright" unicode="&#x2019;" horiz-adv-x="179" 
d="M55 567v17c0 4 3 6 6 6c18 0 41 15 41 53c0 9 -2 12 -2 12s-5 -5 -19 -5c-23 0 -43 18 -43 46c0 27 21 47 47 47c35 0 56 -26 56 -73c0 -79 -37 -109 -80 -109c-3 0 -6 2 -6 6z" />
    <glyph glyph-name="quotedblleft" unicode="&#x201c;" horiz-adv-x="341" 
d="M287 770v-17c0 -4 -3 -6 -7 -6c-18 0 -41 -15 -41 -53c0 -9 2 -12 2 -12s5 5 19 5c23 0 43 -18 43 -46c0 -27 -21 -47 -47 -47c-34 0 -55 26 -55 73c0 79 36 109 79 109c4 0 7 -2 7 -6zM124 770v-17c0 -4 -3 -6 -7 -6c-18 0 -41 -15 -41 -53c0 -9 2 -12 2 -12s6 5 19 5
c24 0 44 -18 44 -46c0 -27 -21 -47 -48 -47c-34 0 -55 26 -55 73c0 79 37 109 79 109c4 0 7 -2 7 -6z" />
    <glyph glyph-name="quotedblright" unicode="&#x201d;" horiz-adv-x="341" 
d="M55 567v17c0 4 3 6 6 6c18 0 41 15 41 53c0 9 -2 12 -2 12s-5 -5 -19 -5c-23 0 -43 18 -43 46c0 27 21 47 47 47c35 0 56 -26 56 -73c0 -79 -37 -109 -80 -109c-3 0 -6 2 -6 6zM217 567v17c0 4 3 6 7 6c18 0 41 15 41 53c0 9 -2 12 -2 12s-5 -5 -19 -5
c-23 0 -43 18 -43 46c0 27 21 47 47 47c34 0 55 -26 55 -73c0 -79 -36 -109 -79 -109c-4 0 -7 2 -7 6z" />
    <glyph glyph-name="minus" unicode="&#x2212;" horiz-adv-x="414" 
d="M363 222h-311c-8 0 -14 5 -14 13v51c0 8 6 13 14 13h311c8 0 13 -5 13 -13v-51c0 -8 -5 -13 -13 -13z" />
    <glyph glyph-name="less" unicode="&#x3c;" horiz-adv-x="438" 
d="M387 66l-335 160c-9 4 -14 11 -14 19v18c0 8 5 15 14 19l335 161c8 3 13 0 13 -8v-43c0 -8 -5 -16 -13 -20l-247 -118l247 -118c8 -3 13 -11 13 -19v-43c0 -8 -5 -11 -13 -8z" />
    <glyph glyph-name="greater" unicode="&#x3e;" horiz-adv-x="438" 
d="M400 263v-18c0 -8 -5 -15 -13 -19l-335 -160c-8 -3 -14 0 -14 8v43c0 8 6 16 14 19l246 118l-246 118c-8 4 -14 12 -14 20v43c0 8 6 11 14 8l335 -161c8 -4 13 -11 13 -19z" />
    <glyph glyph-name="guillemotright" unicode="&#xbb;" horiz-adv-x="521" 
d="M249 61c-6 -3 -13 -5 -13 5v44c0 8 5 16 13 22l165 114l-165 115c-8 5 -13 14 -13 22v44c0 9 7 10 13 5l220 -153c8 -5 14 -13 14 -21v-22c0 -8 -6 -17 -14 -23zM52 61c-6 -3 -14 -5 -14 5v44c0 8 6 16 14 22l165 114l-165 115c-8 5 -14 14 -14 22v44c0 9 7 10 14 5
l220 -153c7 -5 13 -13 13 -21v-22c0 -8 -5 -17 -13 -23z" />
    <glyph glyph-name="guillemotleft" unicode="&#xab;" horiz-adv-x="521" 
d="M272 61l-220 152c-8 6 -14 15 -14 23v22c0 8 6 16 14 21l220 153c5 3 13 5 13 -5v-44c0 -8 -6 -17 -13 -22l-165 -115l165 -114c7 -6 13 -14 13 -22v-44c0 -9 -7 -10 -13 -5zM469 61l-220 152c-8 6 -13 15 -13 23v22c0 8 6 16 13 21l220 153c6 3 14 5 14 -5v-44
c0 -8 -6 -17 -14 -22l-165 -115l165 -114c8 -6 14 -14 14 -22v-44c0 -9 -7 -10 -14 -5z" />
    <glyph glyph-name="braceright" unicode="}" horiz-adv-x="341" 
d="M52 -72c-8 0 -14 5 -14 13v52c0 8 6 13 14 13c58 0 84 23 84 85v112c0 89 65 128 65 128v34s-65 40 -65 129v106c0 62 -26 87 -84 87c-8 0 -14 5 -14 13v52c0 8 6 13 14 13c90 0 168 -37 168 -158v-114c0 -76 48 -115 69 -116c8 0 13 -5 13 -13v-31c0 -8 -5 -14 -13 -14
c-21 0 -69 -40 -69 -115v-120c0 -121 -78 -156 -168 -156z" />
    <glyph glyph-name="braceleft" unicode="{" horiz-adv-x="341" 
d="M302 -7v-52c0 -8 -5 -13 -13 -13c-90 0 -168 35 -168 156v120c0 75 -49 115 -69 115c-8 0 -14 6 -14 14v31c0 8 6 13 14 13c20 1 69 40 69 116v114c0 121 78 158 168 158c8 0 13 -5 13 -13v-52c0 -8 -5 -13 -13 -13c-59 0 -84 -25 -84 -87v-106c0 -89 -65 -129 -65 -129
v-34s65 -39 65 -128v-112c0 -62 25 -85 84 -85c8 0 13 -5 13 -13z" />
    <glyph glyph-name="acute" unicode="&#xb4;" horiz-adv-x="291" 
d="M251 706l-168 -134c-7 -4 -14 -4 -19 3l-25 29c-5 6 -5 14 2 19l161 141c6 6 13 5 19 -1l31 -38c5 -6 5 -13 -1 -19z" />
    <glyph glyph-name="aacute" unicode="&#xe1;" horiz-adv-x="580" 
d="M529 0h-87c-29 0 -43 11 -43 42v51h-2c-18 -25 -74 -101 -195 -101c-93 0 -164 52 -164 139c0 114 110 159 268 159h84v12c0 95 -53 125 -130 125c-106 0 -147 -46 -151 -46c-5 -2 -11 -2 -15 3l-28 35c-5 6 -4 11 2 16c5 6 60 64 195 64c129 0 210 -54 210 -200v-232h56
c8 0 12 -4 12 -12v-43c0 -8 -4 -12 -12 -12zM390 149v81h-79c-104 0 -187 -13 -187 -88c0 -45 40 -79 103 -79c84 0 140 56 163 86zM406 706l-168 -134c-7 -4 -14 -4 -19 3l-25 29c-5 6 -5 14 2 19l161 141c6 6 13 5 19 -1l31 -38c5 -6 5 -13 -1 -19z" />
    <glyph glyph-name="numbersign" unicode="#" horiz-adv-x="612" 
d="M507 112h-98l-31 -107c-2 -8 -8 -12 -15 -12h-49c-8 0 -12 4 -9 12l30 107h-130l-31 -107c-2 -8 -8 -12 -16 -12h-49c-8 0 -11 4 -9 12l31 107h-80c-8 0 -13 4 -13 12v37c0 8 5 12 13 12h97l36 126h-79c-8 0 -12 5 -12 13v36c0 8 4 13 12 13h97l32 109c2 8 8 13 16 13h50
c8 0 10 -5 8 -13l-32 -109h131l32 109c2 8 8 13 16 13h49c8 0 11 -5 8 -13l-31 -109h80c8 0 13 -5 13 -13v-36c0 -8 -5 -13 -13 -13h-98l-37 -126h81c8 0 12 -4 12 -12v-37c0 -8 -4 -12 -12 -12zM352 173l37 126h-131l-36 -126h130z" />
    <glyph glyph-name="grave" unicode="`" horiz-adv-x="291" 
d="M252 604l-25 -29c-6 -7 -13 -7 -19 -2l-168 134c-6 5 -6 12 -2 19l32 37c5 6 13 7 19 2l161 -142c7 -5 7 -13 2 -19z" />
    <glyph glyph-name="circumflex" unicode="&#x2c6;" horiz-adv-x="410" 
d="M372 604l-25 -29c-5 -6 -12 -7 -19 -2l-124 105l-122 -105c-6 -5 -14 -4 -19 2l-25 29c-4 6 -4 14 2 19l155 136c3 3 7 4 10 4c4 0 6 -1 10 -5l155 -135c5 -6 6 -13 2 -19z" />
    <glyph glyph-name="acircumflex" unicode="&#xe2;" horiz-adv-x="580" 
d="M529 0h-87c-29 0 -43 11 -43 42v51h-2c-18 -25 -74 -101 -195 -101c-93 0 -164 52 -164 139c0 114 110 159 268 159h84v12c0 95 -53 125 -130 125c-106 0 -147 -46 -151 -46c-5 -2 -11 -2 -15 3l-28 35c-5 6 -4 11 2 16c5 6 60 64 195 64c129 0 210 -54 210 -200v-232h56
c8 0 12 -4 12 -12v-43c0 -8 -4 -12 -12 -12zM390 149v81h-79c-104 0 -187 -13 -187 -88c0 -45 40 -79 103 -79c84 0 140 56 163 86zM448 604l-25 -29c-5 -6 -12 -7 -19 -2l-124 105l-122 -105c-6 -5 -14 -4 -19 2l-25 29c-4 6 -4 14 2 19l155 136c3 3 7 4 10 4
c4 0 6 -1 10 -5l155 -135c5 -6 6 -13 2 -19z" />
    <glyph glyph-name="agrave" unicode="&#xe0;" horiz-adv-x="580" 
d="M529 0h-87c-29 0 -43 11 -43 42v51h-2c-18 -25 -74 -101 -195 -101c-93 0 -164 52 -164 139c0 114 110 159 268 159h84v12c0 95 -53 125 -130 125c-106 0 -147 -46 -151 -46c-5 -2 -11 -2 -15 3l-28 35c-5 6 -4 11 2 16c5 6 60 64 195 64c129 0 210 -54 210 -200v-232h56
c8 0 12 -4 12 -12v-43c0 -8 -4 -12 -12 -12zM390 149v81h-79c-104 0 -187 -13 -187 -88c0 -45 40 -79 103 -79c84 0 140 56 163 86zM369 604l-25 -29c-6 -7 -13 -7 -19 -2l-168 134c-6 5 -6 12 -2 19l32 37c5 6 13 7 19 2l161 -142c7 -5 7 -13 2 -19z" />
    <glyph glyph-name="caron" unicode="&#x2c7;" horiz-adv-x="410" 
d="M370 713l-155 -135c-4 -4 -6 -5 -10 -5c-3 0 -7 1 -10 4l-155 136c-6 5 -6 13 -2 19l25 28c5 7 12 7 19 2l122 -105l124 105c7 5 14 5 19 -2l25 -28c4 -6 3 -13 -2 -19z" />
    <glyph glyph-name="macron" unicode="&#xaf;" horiz-adv-x="392" 
d="M344 554h-296c-8 0 -13 5 -13 13v42c0 8 5 14 13 14h296c8 0 13 -6 13 -14v-42c0 -8 -5 -13 -13 -13z" />
    <glyph glyph-name="amacron" unicode="&#x101;" horiz-adv-x="580" 
d="M529 0h-87c-29 0 -43 11 -43 42v51h-2c-18 -25 -74 -101 -195 -101c-93 0 -164 52 -164 139c0 114 110 159 268 159h84v12c0 95 -53 125 -130 125c-106 0 -147 -46 -151 -46c-5 -2 -11 -2 -15 3l-28 35c-5 6 -4 11 2 16c5 6 60 64 195 64c129 0 210 -54 210 -200v-232h56
c8 0 12 -4 12 -12v-43c0 -8 -4 -12 -12 -12zM390 149v81h-79c-104 0 -187 -13 -187 -88c0 -45 40 -79 103 -79c84 0 140 56 163 86zM423 554h-296c-8 0 -13 5 -13 13v42c0 8 5 14 13 14h296c8 0 13 -6 13 -14v-42c0 -8 -5 -13 -13 -13z" />
    <glyph glyph-name="cacute" unicode="&#x107;" horiz-adv-x="539" 
d="M445 706l-168 -134c-7 -4 -14 -4 -19 3l-25 29c-5 6 -5 14 2 19l161 141c6 6 13 5 19 -1l31 -38c5 -6 5 -13 -1 -19zM465 144l29 -28c7 -6 7 -12 3 -18c-12 -22 -81 -105 -213 -105c-135 0 -246 95 -246 255c0 162 117 251 238 251c91 0 138 -44 159 -74h1l-1 55
c0 8 5 13 13 13h38c8 0 12 -5 12 -13v-170c0 -8 -5 -12 -12 -12h-46c-7 0 -12 4 -12 12v17c-1 43 -55 102 -142 102c-75 0 -164 -62 -164 -182c0 -119 84 -184 167 -184c86 0 145 55 159 78c4 7 11 8 17 3z" />
    <glyph glyph-name="breve" unicode="&#x2d8;" horiz-adv-x="350" 
d="M270 715h32c8 0 13 -5 13 -13c0 -92 -60 -139 -141 -139c-80 0 -139 47 -139 139c0 8 5 13 13 13h32c8 0 13 -5 13 -13c0 -57 37 -88 81 -88c45 0 83 31 83 88c0 8 5 13 13 13z" />
    <glyph glyph-name="abreve" unicode="&#x103;" horiz-adv-x="580" 
d="M529 0h-87c-29 0 -43 11 -43 42v51h-2c-18 -25 -74 -101 -195 -101c-93 0 -164 52 -164 139c0 114 110 159 268 159h84v12c0 95 -53 125 -130 125c-106 0 -147 -46 -151 -46c-5 -2 -11 -2 -15 3l-28 35c-5 6 -4 11 2 16c5 6 60 64 195 64c129 0 210 -54 210 -200v-232h56
c8 0 12 -4 12 -12v-43c0 -8 -4 -12 -12 -12zM390 149v81h-79c-104 0 -187 -13 -187 -88c0 -45 40 -79 103 -79c84 0 140 56 163 86zM377 715h32c8 0 13 -5 13 -13c0 -92 -60 -139 -141 -139c-80 0 -139 47 -139 139c0 8 5 13 13 13h32c8 0 13 -5 13 -13c0 -57 37 -88 81 -88
c45 0 83 31 83 88c0 8 5 13 13 13z" />
    <glyph glyph-name="dieresis" unicode="&#xa8;" horiz-adv-x="313" 
d="M120 598c0 -24 -19 -42 -43 -42s-42 18 -42 42s18 43 42 43s43 -19 43 -43zM278 598c0 -24 -19 -42 -43 -42s-42 18 -42 42s18 43 42 43s43 -19 43 -43z" />
    <glyph glyph-name="hungarumlaut" unicode="&#x2dd;" horiz-adv-x="463" 
d="M251 715l-168 -134c-7 -4 -14 -4 -19 3l-25 29c-5 6 -5 14 2 19l161 141c5 6 13 5 19 -1l31 -38c5 -7 5 -14 -1 -19zM423 715l-168 -134c-6 -4 -13 -4 -19 3l-25 29c-5 6 -5 14 2 19l161 141c6 6 14 5 19 -1l32 -38c4 -7 4 -14 -2 -19z" />
    <glyph glyph-name="ring" unicode="&#x2da;" horiz-adv-x="225" 
d="M162 603c-16 -27 -51 -37 -78 -21s-37 52 -21 79s51 37 78 21s37 -52 21 -79zM139 623c6 15 -3 31 -18 36s-31 -2 -36 -18c-5 -15 3 -31 19 -36c15 -5 30 2 35 18z" />
    <glyph glyph-name="adieresis" unicode="&#xe4;" horiz-adv-x="580" 
d="M529 0h-87c-29 0 -43 11 -43 42v51h-2c-18 -25 -74 -101 -195 -101c-93 0 -164 52 -164 139c0 114 110 159 268 159h84v12c0 95 -53 125 -130 125c-106 0 -147 -46 -151 -46c-5 -2 -11 -2 -15 3l-28 35c-5 6 -4 11 2 16c5 6 60 64 195 64c129 0 210 -54 210 -200v-232h56
c8 0 12 -4 12 -12v-43c0 -8 -4 -12 -12 -12zM390 149v81h-79c-104 0 -187 -13 -187 -88c0 -45 40 -79 103 -79c84 0 140 56 163 86zM254 598c0 -24 -19 -42 -43 -42s-42 18 -42 42s18 43 42 43s43 -19 43 -43zM412 598c0 -24 -19 -42 -43 -42s-42 18 -42 42s18 43 42 43
s43 -19 43 -43z" />
    <glyph glyph-name="aring" unicode="&#xe5;" horiz-adv-x="580" 
d="M529 0h-87c-29 0 -43 11 -43 42v51h-2c-18 -25 -74 -101 -195 -101c-93 0 -164 52 -164 139c0 114 110 159 268 159h84v12c0 95 -53 125 -130 125c-106 0 -147 -46 -151 -46c-5 -2 -11 -2 -15 3l-28 35c-5 6 -4 11 2 16c5 6 60 64 195 64c129 0 210 -54 210 -200v-232h56
c8 0 12 -4 12 -12v-43c0 -8 -4 -12 -12 -12zM390 149v81h-79c-104 0 -187 -13 -187 -88c0 -45 40 -79 103 -79c84 0 140 56 163 86zM339 603c-16 -27 -51 -37 -78 -21s-37 52 -21 79s51 37 78 21s37 -52 21 -79zM316 623c6 15 -3 31 -18 36s-31 -2 -36 -18
c-5 -15 3 -31 19 -36c15 -5 30 2 35 18z" />
    <glyph glyph-name="cedilla" unicode="&#xb8;" horiz-adv-x="236" 
d="M113 -156c-40 0 -66 19 -72 23c-5 3 -8 10 -3 16l10 12c6 6 12 6 17 3c6 -4 23 -13 44 -13c31 0 43 12 43 33c0 20 -16 26 -49 26c-18 0 -23 5 -19 17l20 57l42 -1l-15 -42c6 0 70 1 70 -56c0 -46 -33 -75 -88 -75z" />
    <glyph glyph-name="ogonek" unicode="&#x2db;" horiz-adv-x="229" 
d="M182 -107l9 -13c5 -7 2 -14 -4 -17c-7 -5 -33 -24 -73 -24c-48 0 -79 30 -79 73c0 62 68 92 87 92h43c-6 -3 -78 -35 -78 -86c0 -21 15 -34 38 -34c16 0 30 5 39 10c7 4 14 5 18 -1z" />
    <glyph glyph-name="tilde" unicode="&#x2dc;" horiz-adv-x="384" 
d="M313 684h24c8 0 12 -4 12 -12c0 -71 -25 -113 -87 -113c-75 0 -92 63 -138 63c-27 0 -41 -12 -41 -57c0 -8 -4 -12 -12 -12h-24c-8 0 -12 4 -12 12c0 66 27 108 86 108c69 0 90 -65 138 -66c31 0 42 15 42 65c0 8 4 12 12 12z" />
    <glyph glyph-name="dotaccent" unicode="&#x2d9;" horiz-adv-x="173" 
d="M139 618c0 -29 -23 -52 -52 -52s-52 23 -52 52s23 53 52 53s52 -24 52 -53z" />
    <glyph glyph-name="commaaccent" horiz-adv-x="172" 
d="M51 -222v17c0 4 3 6 7 6c18 0 41 15 41 53c0 8 -2 11 -2 11s-5 -5 -19 -5c-23 0 -43 19 -43 47c0 26 21 47 47 47c34 0 55 -27 55 -73c0 -79 -36 -109 -79 -109c-4 0 -7 2 -7 6z" />
    <glyph glyph-name="aogonek" unicode="&#x105;" horiz-adv-x="580" 
d="M542 -107l9 -13c5 -7 2 -14 -4 -17c-7 -5 -33 -24 -73 -24c-48 0 -79 30 -79 73c0 49 42 78 69 88h-22c-29 0 -43 11 -43 42v51h-2c-18 -25 -74 -101 -195 -101c-93 0 -164 52 -164 139c0 114 110 159 268 159h84v12c0 95 -53 125 -130 125c-106 0 -147 -46 -151 -46
c-5 -2 -11 -2 -15 3l-28 35c-5 6 -4 11 2 16c5 6 60 64 195 64c129 0 210 -54 210 -200v-232h56c8 0 12 -4 12 -12v-43c0 -8 -4 -12 -12 -12h-12c-21 -10 -70 -39 -70 -82c0 -21 15 -34 38 -34c16 0 30 5 39 10c7 4 14 5 18 -1zM390 149v81h-79c-104 0 -187 -13 -187 -88
c0 -45 40 -79 103 -79c84 0 140 56 163 86z" />
    <glyph glyph-name="atilde" unicode="&#xe3;" horiz-adv-x="580" 
d="M529 0h-87c-29 0 -43 11 -43 42v51h-2c-18 -25 -74 -101 -195 -101c-93 0 -164 52 -164 139c0 114 110 159 268 159h84v12c0 95 -53 125 -130 125c-106 0 -147 -46 -151 -46c-5 -2 -11 -2 -15 3l-28 35c-5 6 -4 11 2 16c5 6 60 64 195 64c129 0 210 -54 210 -200v-232h56
c8 0 12 -4 12 -12v-43c0 -8 -4 -12 -12 -12zM390 149v81h-79c-104 0 -187 -13 -187 -88c0 -45 40 -79 103 -79c84 0 140 56 163 86zM401 684h24c8 0 12 -4 12 -12c0 -71 -25 -113 -87 -113c-75 0 -92 63 -138 63c-27 0 -41 -12 -41 -57c0 -8 -4 -12 -12 -12h-24
c-8 0 -12 4 -12 12c0 66 27 108 86 108c69 0 90 -65 138 -66c31 0 42 15 42 65c0 8 4 12 12 12z" />
    <glyph glyph-name="ae" unicode="&#xe6;" horiz-adv-x="890" 
d="M636 -8c-91 0 -170 42 -212 119c-29 -43 -99 -119 -222 -119c-93 0 -164 52 -164 139c0 114 110 159 268 159h84v13c0 95 -53 124 -130 124c-106 0 -147 -46 -151 -46c-5 -2 -11 -2 -15 3l-28 35c-5 6 -4 11 2 16c5 6 60 64 195 64c90 0 154 -27 183 -95
c41 61 109 94 180 94c144 0 225 -94 223 -249c0 -8 -6 -14 -14 -14h-360c5 -117 87 -173 166 -173c86 0 145 54 159 77c5 7 11 8 18 3l27 -27c7 -6 8 -12 4 -18c-13 -22 -81 -105 -213 -105zM397 167c-4 16 -7 51 -7 69h-79c-104 0 -187 -19 -187 -94c0 -45 40 -79 103 -79
c114 0 165 99 170 104zM477 290h289c-4 82 -52 142 -138 142c-69 0 -138 -45 -151 -142z" />
    <glyph glyph-name="ccaron" unicode="&#x10d;" horiz-adv-x="539" 
d="M456 713l-155 -135c-4 -4 -6 -5 -10 -5c-3 0 -7 1 -10 4l-155 136c-6 5 -6 13 -2 19l25 28c5 7 12 7 19 2l122 -105l124 105c7 5 14 5 19 -2l25 -28c4 -6 3 -13 -2 -19zM465 144l29 -28c7 -6 7 -12 3 -18c-12 -22 -81 -105 -213 -105c-135 0 -246 95 -246 255
c0 162 117 251 238 251c91 0 138 -44 159 -74h1l-1 55c0 8 5 13 13 13h38c8 0 12 -5 12 -13v-170c0 -8 -5 -12 -12 -12h-46c-7 0 -12 4 -12 12v17c-1 43 -55 102 -142 102c-75 0 -164 -62 -164 -182c0 -119 84 -184 167 -184c86 0 145 55 159 78c4 7 11 8 17 3z" />
    <glyph glyph-name="ccedilla" unicode="&#xe7;" horiz-adv-x="539" 
d="M287 -156c-40 0 -66 19 -72 23c-5 3 -8 10 -3 16l10 12c6 6 12 6 17 3c6 -4 23 -13 44 -13c31 0 43 12 43 33c0 20 -16 26 -49 26c-18 0 -23 5 -19 17l11 32c-128 7 -231 101 -231 255c0 162 117 251 238 251c91 0 138 -44 159 -74h1l-1 55c0 8 5 13 13 13h38
c8 0 12 -5 12 -13v-170c0 -8 -5 -12 -12 -12h-46c-7 0 -12 4 -12 12v17c-1 43 -55 102 -142 102c-75 0 -164 -62 -164 -182c0 -119 84 -184 167 -184c86 0 145 55 159 78c4 7 11 8 17 3l29 -28c7 -6 7 -12 3 -18c-11 -21 -72 -93 -185 -103l-7 -20c6 0 70 1 70 -56
c0 -46 -33 -75 -88 -75z" />
    <glyph glyph-name="ccircumflex" unicode="&#x109;" horiz-adv-x="539" 
d="M449 604l-25 -29c-5 -6 -12 -7 -19 -2l-124 105l-122 -105c-6 -5 -14 -4 -19 2l-25 29c-4 6 -4 14 2 19l155 136c3 3 7 4 10 4c4 0 6 -1 10 -5l155 -135c5 -6 6 -13 2 -19zM465 144l29 -28c7 -6 7 -12 3 -18c-12 -22 -81 -105 -213 -105c-135 0 -246 95 -246 255
c0 162 117 251 238 251c91 0 138 -44 159 -74h1l-1 55c0 8 5 13 13 13h38c8 0 12 -5 12 -13v-170c0 -8 -5 -12 -12 -12h-46c-7 0 -12 4 -12 12v17c-1 43 -55 102 -142 102c-75 0 -164 -62 -164 -182c0 -119 84 -184 167 -184c86 0 145 55 159 78c4 7 11 8 17 3z" />
    <glyph glyph-name="cdotaccent" unicode="&#x10b;" horiz-adv-x="539" 
d="M465 144l29 -28c7 -6 7 -12 3 -18c-12 -22 -81 -105 -213 -105c-135 0 -246 95 -246 255c0 162 117 251 238 251c91 0 138 -44 159 -74h1l-1 55c0 8 5 13 13 13h38c8 0 12 -5 12 -13v-170c0 -8 -5 -12 -12 -12h-46c-7 0 -12 4 -12 12v17c-1 43 -55 102 -142 102
c-75 0 -164 -62 -164 -182c0 -119 84 -184 167 -184c86 0 145 55 159 78c4 7 11 8 17 3zM334 618c0 -29 -23 -52 -52 -52s-52 23 -52 52s23 53 52 53s52 -24 52 -53z" />
    <glyph glyph-name="dcaron" unicode="&#x10f;" horiz-adv-x="640" 
d="M556 567v17c0 4 3 6 6 6c18 0 41 15 41 53c0 9 -2 12 -2 12s-5 -5 -19 -5c-23 0 -43 18 -43 46c0 27 21 47 47 47c35 0 56 -26 56 -73c0 -79 -37 -109 -80 -109c-3 0 -6 2 -6 6zM562 0h-87c-30 0 -44 11 -44 42v56h-1c-19 -49 -76 -105 -167 -105
c-133 0 -225 100 -225 256c0 147 90 250 226 250c89 0 141 -50 162 -98h1s-1 20 -1 33v217h-56c-8 0 -13 4 -13 12v43c0 8 5 12 13 12h124c8 0 12 -4 12 -12v-639h56c8 0 12 -4 12 -12v-43c0 -8 -5 -12 -12 -12zM275 63c86 0 152 71 152 184c0 117 -70 182 -152 182
c-86 0 -155 -68 -155 -181c0 -111 65 -185 155 -185z" />
    <glyph glyph-name="dcroat" unicode="&#x111;" horiz-adv-x="597" 
d="M562 0h-87c-30 0 -44 11 -44 42v56h-1c-19 -49 -76 -105 -167 -105c-133 0 -225 100 -225 256c0 147 90 250 226 250c89 0 141 -50 162 -98h1s-1 20 -1 33v121h-128c-7 0 -11 4 -11 11v16c0 7 4 11 11 11h128v58h-56c-8 0 -13 4 -13 12v43c0 8 5 12 13 12h124
c8 0 12 -4 12 -12v-113h56c7 0 11 -4 11 -11v-16c0 -7 -4 -11 -11 -11h-56v-488h56c8 0 12 -4 12 -12v-43c0 -8 -5 -12 -12 -12zM275 63c86 0 152 71 152 184c0 117 -70 182 -152 182c-86 0 -155 -68 -155 -181c0 -111 65 -185 155 -185z" />
    <glyph glyph-name="eacute" unicode="&#xe9;" horiz-adv-x="538" 
d="M416 706l-168 -134c-7 -4 -14 -4 -19 3l-25 29c-5 6 -5 14 2 19l161 141c6 6 13 5 19 -1l31 -38c5 -6 5 -13 -1 -19zM483 236h-360c5 -117 87 -173 166 -173c86 0 145 54 159 77c5 7 11 8 18 3l27 -27c7 -6 8 -12 4 -18c-13 -22 -81 -105 -213 -105
c-135 0 -246 95 -246 255c0 162 116 251 236 251c143 0 226 -95 223 -250c0 -8 -5 -13 -14 -13zM125 297h289c-4 81 -52 136 -138 136c-69 0 -139 -40 -151 -136z" />
    <glyph glyph-name="ebreve" unicode="&#x115;" horiz-adv-x="538" 
d="M483 236h-360c5 -117 87 -173 166 -173c86 0 145 54 159 77c5 7 11 8 18 3l27 -27c7 -6 8 -12 4 -18c-13 -22 -81 -105 -213 -105c-135 0 -246 95 -246 255c0 162 116 251 236 251c143 0 226 -95 223 -250c0 -8 -5 -13 -14 -13zM125 297h289c-4 81 -52 136 -138 136
c-69 0 -139 -40 -151 -136zM381 715h32c8 0 13 -5 13 -13c0 -92 -60 -139 -141 -139c-80 0 -139 47 -139 139c0 8 5 13 13 13h32c8 0 13 -5 13 -13c0 -57 37 -88 81 -88c45 0 83 31 83 88c0 8 5 13 13 13z" />
    <glyph glyph-name="ecaron" unicode="&#x11b;" horiz-adv-x="538" 
d="M439 713l-155 -135c-4 -4 -6 -5 -10 -5c-3 0 -7 1 -10 4l-155 136c-6 5 -6 13 -2 19l25 28c5 7 12 7 19 2l122 -105l124 105c7 5 14 5 19 -2l25 -28c4 -6 3 -13 -2 -19zM483 236h-360c5 -117 87 -173 166 -173c86 0 145 54 159 77c5 7 11 8 18 3l27 -27c7 -6 8 -12 4 -18
c-13 -22 -81 -105 -213 -105c-135 0 -246 95 -246 255c0 162 116 251 236 251c143 0 226 -95 223 -250c0 -8 -5 -13 -14 -13zM125 297h289c-4 81 -52 136 -138 136c-69 0 -139 -40 -151 -136z" />
    <glyph glyph-name="ecircumflex" unicode="&#xea;" horiz-adv-x="538" 
d="M443 604l-25 -29c-5 -6 -12 -7 -19 -2l-124 105l-122 -105c-6 -5 -14 -4 -19 2l-25 29c-4 6 -4 14 2 19l155 136c3 3 7 4 10 4c4 0 6 -1 10 -5l155 -135c5 -6 6 -13 2 -19zM483 236h-360c5 -117 87 -173 166 -173c86 0 145 54 159 77c5 7 11 8 18 3l27 -27
c7 -6 8 -12 4 -18c-13 -22 -81 -105 -213 -105c-135 0 -246 95 -246 255c0 162 116 251 236 251c143 0 226 -95 223 -250c0 -8 -5 -13 -14 -13zM125 297h289c-4 81 -52 136 -138 136c-69 0 -139 -40 -151 -136z" />
    <glyph glyph-name="edieresis" unicode="&#xeb;" horiz-adv-x="538" 
d="M236 598c0 -24 -19 -42 -43 -42s-42 18 -42 42s18 43 42 43s43 -19 43 -43zM394 598c0 -24 -19 -42 -43 -42s-42 18 -42 42s18 43 42 43s43 -19 43 -43zM483 236h-360c5 -117 87 -173 166 -173c86 0 145 54 159 77c5 7 11 8 18 3l27 -27c7 -6 8 -12 4 -18
c-13 -22 -81 -105 -213 -105c-135 0 -246 95 -246 255c0 162 116 251 236 251c143 0 226 -95 223 -250c0 -8 -5 -13 -14 -13zM125 297h289c-4 81 -52 136 -138 136c-69 0 -139 -40 -151 -136z" />
    <glyph glyph-name="edotaccent" unicode="&#x117;" horiz-adv-x="538" 
d="M483 236h-360c5 -117 87 -173 166 -173c86 0 145 54 159 77c5 7 11 8 18 3l27 -27c7 -6 8 -12 4 -18c-13 -22 -81 -105 -213 -105c-135 0 -246 95 -246 255c0 162 116 251 236 251c143 0 226 -95 223 -250c0 -8 -5 -13 -14 -13zM125 297h289c-4 81 -52 136 -138 136
c-69 0 -139 -40 -151 -136zM327 618c0 -29 -23 -52 -52 -52s-52 23 -52 52s23 53 52 53s52 -24 52 -53z" />
    <glyph glyph-name="egrave" unicode="&#xe8;" horiz-adv-x="538" 
d="M483 236h-360c5 -117 87 -173 166 -173c86 0 145 54 159 77c5 7 11 8 18 3l27 -27c7 -6 8 -12 4 -18c-13 -22 -81 -105 -213 -105c-135 0 -246 95 -246 255c0 162 116 251 236 251c143 0 226 -95 223 -250c0 -8 -5 -13 -14 -13zM125 297h289c-4 81 -52 136 -138 136
c-69 0 -139 -40 -151 -136zM372 604l-25 -29c-6 -7 -13 -7 -19 -2l-168 134c-6 5 -6 12 -2 19l32 37c5 6 13 7 19 2l161 -142c7 -5 7 -13 2 -19z" />
    <glyph glyph-name="emacron" unicode="&#x113;" horiz-adv-x="538" 
d="M483 236h-360c5 -117 87 -173 166 -173c86 0 145 54 159 77c5 7 11 8 18 3l27 -27c7 -6 8 -12 4 -18c-13 -22 -81 -105 -213 -105c-135 0 -246 95 -246 255c0 162 116 251 236 251c143 0 226 -95 223 -250c0 -8 -5 -13 -14 -13zM125 297h289c-4 81 -52 136 -138 136
c-69 0 -139 -40 -151 -136zM417 554h-296c-8 0 -13 5 -13 13v42c0 8 5 14 13 14h296c8 0 13 -6 13 -14v-42c0 -8 -5 -13 -13 -13z" />
    <glyph glyph-name="eogonek" unicode="&#x119;" horiz-adv-x="538" 
d="M483 236h-360c5 -117 87 -173 166 -173c86 0 145 54 159 77c5 7 11 8 18 3l27 -27c7 -6 8 -12 4 -18c-10 -18 -55 -73 -138 -95c-6 -3 -78 -35 -78 -86c0 -21 15 -34 38 -34c16 0 30 5 39 10c7 4 14 5 18 -1l9 -13c5 -7 2 -14 -4 -17c-7 -5 -33 -24 -73 -24
c-48 0 -79 30 -79 73c0 42 30 69 56 82h-1c-135 0 -246 95 -246 255c0 162 116 251 236 251c143 0 226 -95 223 -250c0 -8 -5 -13 -14 -13zM125 297h289c-4 81 -52 136 -138 136c-69 0 -139 -40 -151 -136z" />
    <glyph glyph-name="gbreve" unicode="&#x11f;" horiz-adv-x="611" 
d="M268 -234c-131 0 -186 60 -194 66c-5 5 -8 12 -3 18l26 37c4 6 11 5 17 1c10 -7 53 -50 153 -50c89 0 159 39 159 143v114c-21 -49 -74 -102 -163 -102c-137 0 -225 106 -225 254c0 154 93 252 225 252c90 0 144 -51 166 -98h2l-1 79c0 8 4 12 12 12h118
c8 0 12 -4 12 -12v-43c0 -8 -4 -12 -12 -12h-54v-444c0 -148 -102 -215 -238 -215zM275 63c84 0 152 69 152 183c0 117 -69 183 -152 183c-87 0 -155 -70 -155 -184c0 -110 67 -182 155 -182zM393 715h32c8 0 13 -5 13 -13c0 -92 -60 -139 -141 -139c-80 0 -139 47 -139 139
c0 8 5 13 13 13h32c8 0 13 -5 13 -13c0 -57 37 -88 81 -88c45 0 83 31 83 88c0 8 5 13 13 13z" />
    <glyph glyph-name="gcircumflex" unicode="&#x11d;" horiz-adv-x="611" 
d="M464 604l-25 -29c-5 -6 -12 -7 -19 -2l-124 105l-122 -105c-6 -5 -14 -4 -19 2l-25 29c-4 6 -4 14 2 19l155 136c3 3 7 4 10 4c4 0 6 -1 10 -5l155 -135c5 -6 6 -13 2 -19zM268 -234c-131 0 -186 60 -194 66c-5 5 -8 12 -3 18l26 37c4 6 11 5 17 1c10 -7 53 -50 153 -50
c89 0 159 39 159 143v114c-21 -49 -74 -102 -163 -102c-137 0 -225 106 -225 254c0 154 93 252 225 252c90 0 144 -51 166 -98h2l-1 79c0 8 4 12 12 12h118c8 0 12 -4 12 -12v-43c0 -8 -4 -12 -12 -12h-54v-444c0 -148 -102 -215 -238 -215zM275 63c84 0 152 69 152 183
c0 117 -69 183 -152 183c-87 0 -155 -70 -155 -184c0 -110 67 -182 155 -182z" />
    <glyph glyph-name="gcommaaccent" unicode="&#x123;" horiz-adv-x="611" 
d="M268 -234c-131 0 -186 60 -194 66c-5 5 -8 12 -3 18l26 37c4 6 11 5 17 1c10 -7 53 -50 153 -50c89 0 159 39 159 143v114c-21 -49 -74 -102 -163 -102c-137 0 -225 106 -225 254c0 154 93 252 225 252c90 0 144 -51 166 -98h2l-1 79c0 8 4 12 12 12h118
c8 0 12 -4 12 -12v-43c0 -8 -4 -12 -12 -12h-54v-444c0 -148 -102 -215 -238 -215zM275 63c84 0 152 69 152 183c0 117 -69 183 -152 183c-87 0 -155 -70 -155 -184c0 -110 67 -182 155 -182zM321 709v-17c0 -4 -3 -6 -7 -6c-18 0 -41 -15 -41 -53c0 -9 2 -12 2 -12
s6 5 19 5c24 0 44 -18 44 -46c0 -27 -21 -47 -48 -47c-34 0 -55 26 -55 73c0 79 37 109 79 109c4 0 7 -2 7 -6z" />
    <glyph glyph-name="gdotaccent" unicode="&#x121;" horiz-adv-x="611" 
d="M268 -234c-131 0 -186 60 -194 66c-5 5 -8 12 -3 18l26 37c4 6 11 5 17 1c10 -7 53 -50 153 -50c89 0 159 39 159 143v114c-21 -49 -74 -102 -163 -102c-137 0 -225 106 -225 254c0 154 93 252 225 252c90 0 144 -51 166 -98h2l-1 79c0 8 4 12 12 12h118
c8 0 12 -4 12 -12v-43c0 -8 -4 -12 -12 -12h-54v-444c0 -148 -102 -215 -238 -215zM275 63c84 0 152 69 152 183c0 117 -69 183 -152 183c-87 0 -155 -70 -155 -184c0 -110 67 -182 155 -182zM353 618c0 -29 -23 -52 -52 -52s-52 23 -52 52s23 53 52 53s52 -24 52 -53z" />
    <glyph glyph-name="hcircumflex" unicode="&#x125;" horiz-adv-x="621" 
d="M472 795l-25 -29c-5 -6 -12 -7 -19 -2l-124 105l-122 -105c-6 -5 -14 -4 -19 2l-25 29c-4 6 -4 14 2 19l155 136c3 3 7 4 10 4c4 0 6 -1 10 -5l155 -135c5 -6 6 -13 2 -19zM570 0h-95c-29 0 -43 11 -43 42v263c0 75 -36 122 -110 122c-102 0 -133 -87 -133 -86v-274h53
c8 0 13 -4 13 -12v-43c0 -8 -5 -12 -13 -12h-191c-8 0 -13 4 -13 12v43c0 8 5 12 13 12h55v584h-55c-8 0 -13 4 -13 12v43c0 8 5 12 13 12h126c8 0 12 -4 12 -12v-223c0 -15 -3 -54 -4 -61h2c18 28 62 77 156 77c108 0 170 -69 171 -174v-258h56c8 0 13 -4 13 -12v-43
c0 -8 -5 -12 -13 -12z" />
    <glyph glyph-name="hbar" unicode="&#x127;" horiz-adv-x="621" 
d="M570 0h-95c-29 0 -43 11 -43 42v263c0 75 -36 122 -110 122c-102 0 -133 -87 -133 -86v-274h53c8 0 13 -4 13 -12v-43c0 -8 -5 -12 -13 -12h-191c-8 0 -13 4 -13 12v43c0 8 5 12 13 12h55v492h-58c-7 0 -11 4 -11 11v16c0 7 4 11 11 11h58v54h-55c-8 0 -13 4 -13 12v43
c0 8 5 12 13 12h126c8 0 12 -4 12 -12v-109h123c7 0 11 -4 11 -11v-16c0 -7 -4 -11 -11 -11h-123v-76c0 -16 -3 -54 -4 -61h2c18 28 62 77 156 77c108 0 170 -69 171 -174v-258h56c8 0 13 -4 13 -12v-43c0 -8 -5 -12 -13 -12z" />
    <glyph glyph-name="iacute" unicode="&#xed;" horiz-adv-x="293" 
d="M242 0h-191c-8 0 -13 4 -13 12v43c0 8 5 12 13 12h55v358h-55c-8 0 -13 4 -13 12v43c0 8 5 12 13 12h126c8 0 12 -4 12 -12v-413h53c8 0 13 -4 13 -12v-43c0 -8 -5 -12 -13 -12zM309 706l-168 -134c-7 -4 -14 -4 -19 3l-25 29c-5 6 -5 14 2 19l161 141c6 6 13 5 19 -1
l31 -38c5 -6 5 -13 -1 -19z" />
    <glyph glyph-name="icircumflex" unicode="&#xee;" horiz-adv-x="293" 
d="M242 0h-191c-8 0 -13 4 -13 12v43c0 8 5 12 13 12h55v358h-55c-8 0 -13 4 -13 12v43c0 8 5 12 13 12h126c8 0 12 -4 12 -12v-413h53c8 0 13 -4 13 -12v-43c0 -8 -5 -12 -13 -12zM310 604l-25 -29c-5 -6 -12 -7 -19 -2l-124 105l-122 -105c-6 -5 -14 -4 -19 2l-25 29
c-4 6 -4 14 2 19l155 136c3 3 7 4 10 4c4 0 6 -1 10 -5l155 -135c5 -6 6 -13 2 -19z" />
    <glyph glyph-name="idieresis" unicode="&#xef;" horiz-adv-x="293" 
d="M242 0h-191c-8 0 -13 4 -13 12v43c0 8 5 12 13 12h55v358h-55c-8 0 -13 4 -13 12v43c0 8 5 12 13 12h126c8 0 12 -4 12 -12v-413h53c8 0 13 -4 13 -12v-43c0 -8 -5 -12 -13 -12zM117 598c0 -24 -19 -42 -43 -42s-42 18 -42 42s18 43 42 43s43 -19 43 -43zM275 598
c0 -24 -19 -42 -43 -42s-42 18 -42 42s18 43 42 43s43 -19 43 -43z" />
    <glyph glyph-name="igrave" unicode="&#xec;" horiz-adv-x="293" 
d="M242 0h-191c-8 0 -13 4 -13 12v43c0 8 5 12 13 12h55v358h-55c-8 0 -13 4 -13 12v43c0 8 5 12 13 12h126c8 0 12 -4 12 -12v-413h53c8 0 13 -4 13 -12v-43c0 -8 -5 -12 -13 -12zM175 599l-25 -29c-6 -7 -13 -7 -19 -2l-168 134c-6 5 -6 12 -2 19l32 37c5 6 13 7 19 2
l161 -142c7 -5 7 -13 2 -19z" />
    <glyph glyph-name="imacron" unicode="&#x12b;" horiz-adv-x="293" 
d="M242 0h-191c-8 0 -13 4 -13 12v43c0 8 5 12 13 12h55v358h-55c-8 0 -13 4 -13 12v43c0 8 5 12 13 12h126c8 0 12 -4 12 -12v-413h53c8 0 13 -4 13 -12v-43c0 -8 -5 -12 -13 -12zM282 554h-296c-8 0 -13 5 -13 13v42c0 8 5 14 13 14h296c8 0 13 -6 13 -14v-42
c0 -8 -5 -13 -13 -13z" />
    <glyph glyph-name="iogonek" unicode="&#x12f;" horiz-adv-x="302" 
d="M238 -107l9 -13c5 -7 2 -14 -4 -17c-7 -5 -33 -24 -73 -24c-48 0 -79 30 -79 73c0 49 42 78 69 88h-109c-8 0 -13 4 -13 12v43c0 8 5 12 13 12h55v358h-55c-8 0 -13 4 -13 12v43c0 8 5 12 13 12h126c8 0 12 -4 12 -12v-413h53c8 0 13 -4 13 -12v-43c0 -8 -5 -12 -13 -12
h-29c-21 -10 -70 -39 -70 -82c0 -21 15 -34 38 -34c16 0 30 5 39 10c7 4 14 5 18 -1zM202 600c0 -31 -25 -55 -56 -55s-56 24 -56 55s25 57 56 57s56 -26 56 -57z" />
    <glyph glyph-name="itilde" unicode="&#x129;" horiz-adv-x="333" 
d="M269 0h-192c-7 0 -12 4 -12 12v43c0 8 4 12 12 12h56v358h-56c-7 0 -12 4 -12 12v43c0 8 4 12 12 12h127c8 0 12 -4 12 -12v-413h53c8 0 12 -4 12 -12v-43c0 -8 -4 -12 -12 -12zM279 684h24c8 0 12 -4 12 -12c0 -71 -25 -113 -87 -113c-75 0 -92 63 -138 63
c-27 0 -41 -12 -41 -57c0 -8 -4 -12 -12 -12h-24c-8 0 -12 4 -12 12c0 66 27 108 86 108c69 0 90 -65 138 -66c31 0 42 15 42 65c0 8 4 12 12 12z" />
    <glyph glyph-name="jcircumflex" unicode="&#x135;" horiz-adv-x="343" 
d="M189 -63v488h-56c-7 0 -12 4 -12 12v43c0 8 4 12 12 12h127c8 0 12 -4 12 -12v-544c0 -113 -61 -170 -161 -170c-59 0 -91 31 -100 39c-7 6 -7 13 -2 19l23 30c5 5 12 7 18 2c5 -4 23 -19 54 -19c54 0 85 34 85 100zM389 604l-25 -29c-5 -6 -12 -7 -19 -2l-124 105
l-122 -105c-6 -5 -14 -4 -19 2l-25 29c-4 6 -4 14 2 19l155 136c3 3 7 4 10 4c4 0 6 -1 10 -5l155 -135c5 -6 6 -13 2 -19z" />
    <glyph glyph-name="kcommaaccent" unicode="&#x137;" horiz-adv-x="614" 
d="M273 -222v17c0 4 3 6 7 6c18 0 41 15 41 53c0 8 -2 11 -2 11s-5 -5 -19 -5c-23 0 -43 19 -43 47c0 26 21 47 47 47c34 0 55 -27 55 -73c0 -79 -36 -109 -79 -109c-4 0 -7 2 -7 6zM570 0h-54c-21 0 -39 11 -53 31l-177 240l-97 -90v-114h53c8 0 13 -4 13 -12v-43
c0 -8 -5 -12 -13 -12h-191c-8 0 -13 4 -13 12v43c0 8 5 12 13 12h55v584h-55c-8 0 -13 4 -13 12v43c0 8 5 12 13 12h126c8 0 12 -4 12 -12v-448l182 167h-36c-8 0 -12 4 -12 12v43c0 8 4 12 12 12h192c8 0 12 -4 12 -12v-43c0 -8 -4 -12 -12 -12h-65l-122 -107l187 -251h43
c8 0 12 -4 12 -12v-43c0 -8 -5 -12 -12 -12z" />
    <glyph glyph-name="lacute" unicode="&#x13a;" horiz-adv-x="293" 
d="M297 895l-168 -134c-7 -4 -14 -4 -19 3l-25 29c-5 6 -5 14 2 19l161 141c6 6 13 5 19 -1l31 -38c5 -6 5 -13 -1 -19zM242 0h-191c-8 0 -13 4 -13 12v43c0 8 5 12 13 12h55v584h-55c-8 0 -13 4 -13 12v43c0 8 5 12 13 12h111c20 0 27 -8 27 -25v-626h53c8 0 13 -4 13 -12
v-43c0 -8 -5 -12 -13 -12z" />
    <glyph glyph-name="lcaron" unicode="&#x13e;" horiz-adv-x="293" 
d="M251 567v17c0 4 3 6 6 6c18 0 41 15 41 53c0 9 -2 12 -2 12s-5 -5 -19 -5c-23 0 -43 18 -43 46c0 27 21 47 47 47c35 0 56 -26 56 -73c0 -79 -37 -109 -80 -109c-3 0 -6 2 -6 6zM242 0h-191c-8 0 -13 4 -13 12v43c0 8 5 12 13 12h55v584h-55c-8 0 -13 4 -13 12v43
c0 8 5 12 13 12h111c20 0 27 -8 27 -25v-626h53c8 0 13 -4 13 -12v-43c0 -8 -5 -12 -13 -12z" />
    <glyph glyph-name="lcommaaccent" unicode="&#x13c;" horiz-adv-x="293" 
d="M116 -222v17c0 4 3 6 7 6c18 0 41 15 41 53c0 8 -2 11 -2 11s-5 -5 -19 -5c-23 0 -43 19 -43 47c0 26 21 47 47 47c34 0 55 -27 55 -73c0 -79 -36 -109 -79 -109c-4 0 -7 2 -7 6zM242 0h-191c-8 0 -13 4 -13 12v43c0 8 5 12 13 12h55v584h-55c-8 0 -13 4 -13 12v43
c0 8 5 12 13 12h111c20 0 27 -8 27 -25v-626h53c8 0 13 -4 13 -12v-43c0 -8 -5 -12 -13 -12z" />
    <glyph glyph-name="ldot" unicode="&#x140;" horiz-adv-x="293" 
d="M242 0h-191c-8 0 -13 4 -13 12v43c0 8 5 12 13 12h55v584h-55c-8 0 -13 4 -13 12v43c0 8 5 12 13 12h111c20 0 27 -8 27 -25v-626h53c8 0 13 -4 13 -12v-43c0 -8 -5 -12 -13 -12z" />
    <glyph glyph-name="lslash" unicode="&#x142;" horiz-adv-x="293" 
d="M242 0h-191c-8 0 -13 4 -13 12v43c0 8 5 12 13 12h55v189l-88 -88c-5 -6 -13 -6 -18 0l-20 20c-6 6 -6 14 0 19l126 127v317h-55c-8 0 -13 4 -13 12v43c0 8 5 12 13 12h111c20 0 27 -8 27 -25v-277l94 94c6 6 13 6 19 0l20 -20c5 -6 5 -13 0 -19l-133 -132v-272h53
c8 0 13 -4 13 -12v-43c0 -8 -5 -12 -13 -12z" />
    <glyph glyph-name="nacute" unicode="&#x144;" horiz-adv-x="621" 
d="M425 706l-168 -134c-7 -4 -14 -4 -19 3l-25 29c-5 6 -5 14 2 19l161 141c6 6 13 5 19 -1l31 -38c5 -6 5 -13 -1 -19zM570 0h-95c-29 0 -43 11 -43 42v263c0 75 -36 122 -110 122c-101 0 -132 -84 -133 -85v-275h53c8 0 13 -4 13 -12v-43c0 -8 -5 -12 -13 -12h-191
c-8 0 -13 4 -13 12v43c0 8 5 12 13 12h55v358h-55c-8 0 -13 4 -13 12v43c0 8 5 12 13 12h117c8 0 13 -4 13 -12l-2 -68h3c12 20 53 87 161 87s170 -69 171 -174v-258h56c8 0 13 -4 13 -12v-43c0 -8 -5 -12 -13 -12z" />
    <glyph glyph-name="ncaron" unicode="&#x148;" horiz-adv-x="621" 
d="M472 713l-155 -135c-4 -4 -6 -5 -10 -5c-3 0 -7 1 -10 4l-155 136c-6 5 -6 13 -2 19l25 28c5 7 12 7 19 2l122 -105l124 105c7 5 14 5 19 -2l25 -28c4 -6 3 -13 -2 -19zM570 0h-95c-29 0 -43 11 -43 42v263c0 75 -36 122 -110 122c-101 0 -132 -84 -133 -85v-275h53
c8 0 13 -4 13 -12v-43c0 -8 -5 -12 -13 -12h-191c-8 0 -13 4 -13 12v43c0 8 5 12 13 12h55v358h-55c-8 0 -13 4 -13 12v43c0 8 5 12 13 12h117c8 0 13 -4 13 -12l-2 -68h3c12 20 53 87 161 87s170 -69 171 -174v-258h56c8 0 13 -4 13 -12v-43c0 -8 -5 -12 -13 -12z" />
    <glyph glyph-name="ncommaaccent" unicode="&#x146;" horiz-adv-x="621" 
d="M272 -222v17c0 4 3 6 7 6c18 0 41 15 41 53c0 8 -2 11 -2 11s-5 -5 -19 -5c-23 0 -43 19 -43 47c0 26 21 47 47 47c34 0 55 -27 55 -73c0 -79 -36 -109 -79 -109c-4 0 -7 2 -7 6zM570 0h-95c-29 0 -43 11 -43 42v263c0 75 -36 122 -110 122c-101 0 -132 -84 -133 -85
v-275h53c8 0 13 -4 13 -12v-43c0 -8 -5 -12 -13 -12h-191c-8 0 -13 4 -13 12v43c0 8 5 12 13 12h55v358h-55c-8 0 -13 4 -13 12v43c0 8 5 12 13 12h117c8 0 13 -4 13 -12l-2 -68h3c12 20 53 87 161 87s170 -69 171 -174v-258h56c8 0 13 -4 13 -12v-43c0 -8 -5 -12 -13 -12z
" />
    <glyph glyph-name="ntilde" unicode="&#xf1;" horiz-adv-x="621" 
d="M570 0h-95c-29 0 -43 11 -43 42v263c0 75 -36 122 -110 122c-101 0 -132 -84 -133 -85v-275h53c8 0 13 -4 13 -12v-43c0 -8 -5 -12 -13 -12h-191c-8 0 -13 4 -13 12v43c0 8 5 12 13 12h55v358h-55c-8 0 -13 4 -13 12v43c0 8 5 12 13 12h117c8 0 13 -4 13 -12l-2 -68h3
c12 20 53 87 161 87s170 -69 171 -174v-258h56c8 0 13 -4 13 -12v-43c0 -8 -5 -12 -13 -12zM429 684h24c8 0 12 -4 12 -12c0 -71 -25 -113 -87 -113c-75 0 -92 63 -138 63c-27 0 -41 -12 -41 -57c0 -8 -4 -12 -12 -12h-24c-8 0 -12 4 -12 12c0 66 27 108 86 108
c69 0 90 -65 138 -66c31 0 42 15 42 65c0 8 4 12 12 12z" />
    <glyph glyph-name="oacute" unicode="&#xf3;" horiz-adv-x="575" 
d="M430 706l-168 -134c-7 -4 -14 -4 -19 3l-25 29c-5 6 -5 14 2 19l161 141c6 6 13 5 19 -1l31 -38c5 -6 5 -13 -1 -19zM287 -7c-142 0 -249 98 -249 255c0 158 111 251 250 251s248 -95 248 -251s-106 -255 -249 -255zM287 63c90 0 166 71 166 184c0 114 -79 182 -165 182
c-87 0 -166 -68 -166 -182c0 -113 76 -184 165 -184z" />
    <glyph glyph-name="obreve" unicode="&#x14f;" horiz-adv-x="575" 
d="M287 -7c-142 0 -249 98 -249 255c0 158 111 251 250 251s248 -95 248 -251s-106 -255 -249 -255zM287 63c90 0 166 71 166 184c0 114 -79 182 -165 182c-87 0 -166 -68 -166 -182c0 -113 76 -184 165 -184zM386 715h32c8 0 13 -5 13 -13c0 -92 -60 -139 -141 -139
c-80 0 -139 47 -139 139c0 8 5 13 13 13h32c8 0 13 -5 13 -13c0 -57 37 -88 81 -88c45 0 83 31 83 88c0 8 5 13 13 13z" />
    <glyph glyph-name="ocircumflex" unicode="&#xf4;" horiz-adv-x="575" 
d="M460 604l-25 -29c-5 -6 -12 -7 -19 -2l-124 105l-122 -105c-6 -5 -14 -4 -19 2l-25 29c-4 6 -4 14 2 19l155 136c3 3 7 4 10 4c4 0 6 -1 10 -5l155 -135c5 -6 6 -13 2 -19zM287 -7c-142 0 -249 98 -249 255c0 158 111 251 250 251s248 -95 248 -251s-106 -255 -249 -255z
M287 63c90 0 166 71 166 184c0 114 -79 182 -165 182c-87 0 -166 -68 -166 -182c0 -113 76 -184 165 -184z" />
    <glyph glyph-name="omacron" unicode="&#x14d;" horiz-adv-x="575" 
d="M436 554h-296c-8 0 -13 5 -13 13v42c0 8 5 14 13 14h296c8 0 13 -6 13 -14v-42c0 -8 -5 -13 -13 -13zM287 -7c-142 0 -249 98 -249 255c0 158 111 251 250 251s248 -95 248 -251s-106 -255 -249 -255zM287 63c90 0 166 71 166 184c0 114 -79 182 -165 182
c-87 0 -166 -68 -166 -182c0 -113 76 -184 165 -184z" />
    <glyph glyph-name="ohungarumlaut" unicode="&#x151;" horiz-adv-x="575" 
d="M322 715l-168 -134c-7 -4 -14 -4 -19 3l-25 29c-5 6 -5 14 2 19l161 141c5 6 13 5 19 -1l31 -38c5 -7 5 -14 -1 -19zM494 715l-168 -134c-6 -4 -13 -4 -19 3l-25 29c-5 6 -5 14 2 19l161 141c6 6 14 5 19 -1l32 -38c4 -7 4 -14 -2 -19zM287 -7c-142 0 -249 98 -249 255
c0 158 111 251 250 251s248 -95 248 -251s-106 -255 -249 -255zM287 63c90 0 166 71 166 184c0 114 -79 182 -165 182c-87 0 -166 -68 -166 -182c0 -113 76 -184 165 -184z" />
    <glyph glyph-name="ograve" unicode="&#xf2;" horiz-adv-x="575" 
d="M287 -7c-142 0 -249 98 -249 255c0 158 111 251 250 251s248 -95 248 -251s-106 -255 -249 -255zM287 63c90 0 166 71 166 184c0 114 -79 182 -165 182c-87 0 -166 -68 -166 -182c0 -113 76 -184 165 -184zM352 604l-25 -29c-6 -7 -13 -7 -19 -2l-168 134
c-6 5 -6 12 -2 19l32 37c5 6 13 7 19 2l161 -142c7 -5 7 -13 2 -19z" />
    <glyph glyph-name="odieresis" unicode="&#xf6;" horiz-adv-x="575" 
d="M253 598c0 -24 -19 -42 -43 -42s-42 18 -42 42s18 43 42 43s43 -19 43 -43zM411 598c0 -24 -19 -42 -43 -42s-42 18 -42 42s18 43 42 43s43 -19 43 -43zM287 -7c-142 0 -249 98 -249 255c0 158 111 251 250 251s248 -95 248 -251s-106 -255 -249 -255zM287 63
c90 0 166 71 166 184c0 114 -79 182 -165 182c-87 0 -166 -68 -166 -182c0 -113 76 -184 165 -184z" />
    <glyph glyph-name="otilde" unicode="&#xf5;" horiz-adv-x="575" 
d="M287 -7c-142 0 -249 98 -249 255c0 158 111 251 250 251s248 -95 248 -251s-106 -255 -249 -255zM287 63c90 0 166 71 166 184c0 114 -79 182 -165 182c-87 0 -166 -68 -166 -182c0 -113 76 -184 165 -184zM416 684h24c8 0 12 -4 12 -12c0 -71 -25 -113 -87 -113
c-75 0 -92 63 -138 63c-27 0 -41 -12 -41 -57c0 -8 -4 -12 -12 -12h-24c-8 0 -12 4 -12 12c0 66 27 108 86 108c69 0 90 -65 138 -66c31 0 42 15 42 65c0 8 4 12 12 12z" />
    <glyph glyph-name="oe" unicode="&#x153;" horiz-adv-x="954" 
d="M700 -7c-89 0 -165 42 -204 119c-40 -76 -118 -119 -209 -119c-142 0 -249 98 -249 255c0 158 111 251 250 251c89 0 167 -43 207 -116c40 75 115 116 195 116c143 0 225 -95 223 -249c0 -8 -6 -14 -14 -14h-360c5 -117 87 -173 166 -173c86 0 145 54 159 77
c5 7 11 8 18 3l27 -27c7 -6 7 -12 3 -18c-12 -22 -81 -105 -212 -105zM287 63c90 0 166 70 166 183c0 115 -79 183 -165 183c-87 0 -166 -68 -166 -182c0 -113 76 -184 165 -184zM541 296h289c-4 82 -52 137 -138 137c-69 0 -138 -40 -151 -137z" />
    <glyph glyph-name="oslash" unicode="&#xf8;" horiz-adv-x="575" 
d="M177 -29h-42c-8 0 -12 5 -9 12l24 47c-68 42 -112 118 -112 218c0 158 111 251 250 251c31 0 63 -6 91 -17l7 15c3 8 9 13 17 13h42c8 0 12 -5 9 -13l-21 -40c63 -42 103 -114 103 -209c0 -156 -106 -255 -249 -255c-29 0 -57 5 -82 13l-12 -23c-4 -8 -9 -12 -16 -12z
M186 103l159 313c-18 8 -38 13 -57 13c-87 0 -166 -68 -166 -182c0 -65 26 -114 64 -144zM239 73c15 -7 33 -10 50 -10c89 0 164 71 164 184c0 60 -24 106 -57 136z" />
    <glyph glyph-name="racute" unicode="&#x155;" horiz-adv-x="421" 
d="M364 706l-168 -134c-7 -4 -14 -4 -19 3l-25 29c-5 6 -5 14 2 19l161 141c6 6 13 5 19 -1l31 -38c5 -6 5 -13 -1 -19zM242 0h-191c-8 0 -13 4 -13 12v43c0 8 5 12 13 12h55v358h-55c-8 0 -13 4 -13 12v43c0 8 5 12 13 12h117c8 0 13 -4 13 -12v-125h3s33 139 214 139
c8 0 13 -5 13 -13v-53c0 -8 -5 -13 -13 -13h-21c-121 0 -188 -94 -188 -180v-168h53c8 0 13 -4 13 -12v-43c0 -8 -5 -12 -13 -12z" />
    <glyph glyph-name="rcaron" unicode="&#x159;" horiz-adv-x="435" 
d="M377 713l-155 -135c-4 -4 -6 -5 -10 -5c-3 0 -7 1 -10 4l-155 136c-6 5 -6 13 -2 19l25 28c5 7 12 7 19 2l122 -105l124 105c7 5 14 5 19 -2l25 -28c4 -6 3 -13 -2 -19zM256 0h-191c-8 0 -13 4 -13 12v43c0 8 5 12 13 12h55v358h-55c-8 0 -13 4 -13 12v43c0 8 5 12 13 12
h117c8 0 13 -4 13 -12v-125h3s33 139 214 139c8 0 13 -5 13 -13v-53c0 -8 -5 -13 -13 -13h-21c-121 0 -188 -94 -188 -180v-168h53c8 0 13 -4 13 -12v-43c0 -8 -5 -12 -13 -12z" />
    <glyph glyph-name="rcommaaccent" unicode="&#x157;" horiz-adv-x="421" 
d="M118 -222v17c0 4 3 6 7 6c18 0 41 15 41 53c0 8 -2 11 -2 11s-5 -5 -19 -5c-23 0 -43 19 -43 47c0 26 21 47 47 47c34 0 55 -27 55 -73c0 -79 -36 -109 -79 -109c-4 0 -7 2 -7 6zM242 0h-191c-8 0 -13 4 -13 12v43c0 8 5 12 13 12h55v358h-55c-8 0 -13 4 -13 12v43
c0 8 5 12 13 12h117c8 0 13 -4 13 -12v-125h3s33 139 214 139c8 0 13 -5 13 -13v-53c0 -8 -5 -13 -13 -13h-21c-121 0 -188 -94 -188 -180v-168h53c8 0 13 -4 13 -12v-43c0 -8 -5 -12 -13 -12z" />
    <glyph glyph-name="sacute" unicode="&#x15b;" horiz-adv-x="486" 
d="M366 706l-168 -134c-7 -4 -14 -4 -19 3l-25 29c-5 6 -5 14 2 19l161 141c6 6 13 5 19 -1l31 -38c5 -6 5 -13 -1 -19zM260 -7c-103 0 -149 55 -157 72h-2s2 -49 2 -52c0 -8 -6 -13 -14 -13h-34c-8 0 -13 5 -13 13v150c0 8 5 13 13 13h39c8 0 14 -5 14 -13v-20
s28 -85 141 -85c71 0 108 29 108 78c0 99 -301 47 -301 221c0 89 72 142 167 142c75 0 118 -26 142 -58h2s-2 36 -2 37c0 8 5 13 13 13h32c8 0 13 -5 13 -13v-139c0 -8 -5 -13 -13 -13h-39c-8 0 -14 5 -14 13v14c0 28 -33 80 -124 80c-49 0 -95 -27 -95 -78
c0 -112 306 -53 306 -221c0 -73 -51 -141 -184 -141z" />
    <glyph glyph-name="scaron" unicode="&#x161;" horiz-adv-x="486" 
d="M403 713l-155 -135c-4 -4 -6 -5 -10 -5c-3 0 -7 1 -10 4l-155 136c-6 5 -6 13 -2 19l25 28c5 7 12 7 19 2l122 -105l124 105c7 5 14 5 19 -2l25 -28c4 -6 3 -13 -2 -19zM260 -7c-103 0 -149 55 -157 72h-2s2 -49 2 -52c0 -8 -6 -13 -14 -13h-34c-8 0 -13 5 -13 13v150
c0 8 5 13 13 13h39c8 0 14 -5 14 -13v-20s28 -85 141 -85c71 0 108 29 108 78c0 99 -301 47 -301 221c0 89 72 142 167 142c75 0 118 -26 142 -58h2s-2 36 -2 37c0 8 5 13 13 13h32c8 0 13 -5 13 -13v-139c0 -8 -5 -13 -13 -13h-39c-8 0 -14 5 -14 13v14
c0 28 -33 80 -124 80c-49 0 -95 -27 -95 -78c0 -112 306 -53 306 -221c0 -73 -51 -141 -184 -141z" />
    <glyph glyph-name="scedilla" unicode="&#x15f;" horiz-adv-x="486" 
d="M238 -156c-40 0 -66 19 -72 23c-5 3 -8 10 -3 16l10 12c6 6 12 6 17 3c6 -4 23 -13 44 -13c31 0 43 12 43 33c0 20 -16 26 -49 26c-18 0 -23 5 -19 17l12 35c-76 11 -111 54 -118 69h-2s2 -49 2 -52c0 -8 -6 -13 -14 -13h-34c-8 0 -13 5 -13 13v150c0 8 5 13 13 13h39
c8 0 14 -5 14 -13v-20s28 -85 141 -85c71 0 108 29 108 78c0 99 -301 47 -301 221c0 89 72 142 167 142c75 0 118 -26 142 -58h2s-2 36 -2 37c0 8 5 13 13 13h32c8 0 13 -5 13 -13v-139c0 -8 -5 -13 -13 -13h-39c-8 0 -14 5 -14 13v14c0 28 -33 80 -124 80
c-49 0 -95 -27 -95 -78c0 -112 306 -53 306 -221c0 -73 -51 -140 -182 -141l-6 -18c6 0 70 1 70 -56c0 -46 -33 -75 -88 -75z" />
    <glyph glyph-name="scircumflex" unicode="&#x15d;" horiz-adv-x="486" 
d="M400 604l-25 -29c-5 -6 -12 -7 -19 -2l-124 105l-122 -105c-6 -5 -14 -4 -19 2l-25 29c-4 6 -4 14 2 19l155 136c3 3 7 4 10 4c4 0 6 -1 10 -5l155 -135c5 -6 6 -13 2 -19zM260 -7c-103 0 -149 55 -157 72h-2s2 -49 2 -52c0 -8 -6 -13 -14 -13h-34c-8 0 -13 5 -13 13v150
c0 8 5 13 13 13h39c8 0 14 -5 14 -13v-20s28 -85 141 -85c71 0 108 29 108 78c0 99 -301 47 -301 221c0 89 72 142 167 142c75 0 118 -26 142 -58h2s-2 36 -2 37c0 8 5 13 13 13h32c8 0 13 -5 13 -13v-139c0 -8 -5 -13 -13 -13h-39c-8 0 -14 5 -14 13v14
c0 28 -33 80 -124 80c-49 0 -95 -27 -95 -78c0 -112 306 -53 306 -221c0 -73 -51 -141 -184 -141z" />
    <glyph glyph-name="scommaaccent" unicode="&#x219;" horiz-adv-x="486" 
d="M216 -222v17c0 4 3 6 7 6c18 0 41 15 41 53c0 8 -2 11 -2 11s-5 -5 -19 -5c-23 0 -43 19 -43 47c0 26 21 47 47 47c34 0 55 -27 55 -73c0 -79 -36 -109 -79 -109c-4 0 -7 2 -7 6zM260 -7c-103 0 -149 55 -157 72h-2s2 -49 2 -52c0 -8 -6 -13 -14 -13h-34
c-8 0 -13 5 -13 13v150c0 8 5 13 13 13h39c8 0 14 -5 14 -13v-20s28 -85 141 -85c71 0 108 29 108 78c0 99 -301 47 -301 221c0 89 72 142 167 142c75 0 118 -26 142 -58h2s-2 36 -2 37c0 8 5 13 13 13h32c8 0 13 -5 13 -13v-139c0 -8 -5 -13 -13 -13h-39c-8 0 -14 5 -14 13
v14c0 28 -33 80 -124 80c-49 0 -95 -27 -95 -78c0 -112 306 -53 306 -221c0 -73 -51 -141 -184 -141z" />
    <glyph glyph-name="tbar" unicode="&#x167;" horiz-adv-x="428" 
d="M375 82l24 -31c6 -6 4 -13 -2 -19c-9 -8 -42 -39 -101 -39c-100 0 -160 57 -160 170v262h-57c-8 0 -14 5 -14 13v41c0 8 6 13 14 13h57v29h-54c-7 0 -11 4 -11 11v16c0 7 4 11 11 11h54v34c0 8 5 14 13 14h56c8 0 14 -6 14 -14v-34h73c7 0 11 -4 11 -11v-16
c0 -7 -4 -11 -11 -11h-73v-29h126c8 0 14 -5 14 -13v-41c0 -8 -6 -13 -14 -13h-126v-260c0 -67 31 -101 85 -101c30 0 49 15 53 19c7 6 13 5 18 -1z" />
    <glyph glyph-name="tcaron" unicode="&#x165;" horiz-adv-x="401" 
d="M240 547v17c0 4 3 6 6 6c18 0 41 15 41 53c0 9 -2 12 -2 12s-5 -5 -19 -5c-23 0 -43 18 -43 46c0 27 21 47 47 47c35 0 56 -26 56 -73c0 -79 -37 -109 -80 -109c-3 0 -6 2 -6 6zM372 51l-24 31c-5 6 -11 7 -18 1c-4 -4 -23 -19 -53 -19c-54 0 -86 34 -86 101v260h127
c8 0 14 5 14 13v41c0 8 -6 13 -14 13h-127v101c0 8 -5 14 -13 14h-56c-8 0 -14 -6 -14 -14v-101h-56c-8 0 -14 -5 -14 -13v-41c0 -8 6 -13 14 -13h56v-262c0 -113 61 -170 161 -170c59 0 92 31 101 39c6 6 8 13 2 19z" />
    <glyph glyph-name="tcommaaccent" unicode="&#x163;" horiz-adv-x="401" 
d="M176 -222v17c0 4 3 6 7 6c18 0 41 15 41 53c0 8 -2 11 -2 11s-5 -5 -19 -5c-23 0 -43 19 -43 47c0 26 21 47 47 47c34 0 55 -27 55 -73c0 -79 -36 -109 -79 -109c-4 0 -7 2 -7 6zM348 82l24 -31c6 -6 4 -13 -2 -19c-9 -8 -42 -39 -101 -39c-100 0 -161 57 -161 170v262
h-56c-8 0 -14 5 -14 13v41c0 8 6 13 14 13h56v101c0 8 6 14 14 14h56c8 0 13 -6 13 -14v-101h127c8 0 14 -5 14 -13v-41c0 -8 -6 -13 -14 -13h-127v-260c0 -67 32 -101 86 -101c30 0 49 15 53 19c7 6 13 5 18 -1z" />
    <glyph glyph-name="uacute" unicode="&#xfa;" horiz-adv-x="608" 
d="M396 706l-168 -134c-7 -4 -14 -4 -19 3l-25 29c-5 6 -5 14 2 19l161 141c6 6 13 5 19 -1l31 -38c5 -6 5 -13 -1 -19zM557 0h-87c-29 0 -43 11 -43 42v37h-3c-11 -23 -48 -86 -156 -86s-173 69 -174 174v258h-57c-8 0 -12 4 -12 12v43c0 8 5 12 12 12h96
c29 0 43 -11 43 -42v-263c0 -75 36 -122 110 -122c100 0 133 83 133 85v275h-54c-8 0 -12 4 -12 12v43c0 8 5 12 12 12h124c8 0 12 -4 12 -12v-413h56c8 0 13 -4 13 -12v-43c0 -8 -5 -12 -13 -12z" />
    <glyph glyph-name="ubreve" unicode="&#x16d;" horiz-adv-x="608" 
d="M557 0h-87c-29 0 -43 11 -43 42v37h-3c-11 -23 -48 -86 -156 -86s-173 69 -174 174v258h-57c-8 0 -12 4 -12 12v43c0 8 5 12 12 12h96c29 0 43 -11 43 -42v-263c0 -75 36 -122 110 -122c100 0 133 83 133 85v275h-54c-8 0 -12 4 -12 12v43c0 8 5 12 12 12h124
c8 0 12 -4 12 -12v-413h56c8 0 13 -4 13 -12v-43c0 -8 -5 -12 -13 -12zM380 715h32c8 0 13 -5 13 -13c0 -92 -60 -139 -141 -139c-80 0 -139 47 -139 139c0 8 5 13 13 13h32c8 0 13 -5 13 -13c0 -57 37 -88 81 -88c45 0 83 31 83 88c0 8 5 13 13 13z" />
    <glyph glyph-name="ucircumflex" unicode="&#xfb;" horiz-adv-x="608" 
d="M452 604l-25 -29c-5 -6 -12 -7 -19 -2l-124 105l-122 -105c-6 -5 -14 -4 -19 2l-25 29c-4 6 -4 14 2 19l155 136c3 3 7 4 10 4c4 0 6 -1 10 -5l155 -135c5 -6 6 -13 2 -19zM557 0h-87c-29 0 -43 11 -43 42v37h-3c-11 -23 -48 -86 -156 -86s-173 69 -174 174v258h-57
c-8 0 -12 4 -12 12v43c0 8 5 12 12 12h96c29 0 43 -11 43 -42v-263c0 -75 36 -122 110 -122c100 0 133 83 133 85v275h-54c-8 0 -12 4 -12 12v43c0 8 5 12 12 12h124c8 0 12 -4 12 -12v-413h56c8 0 13 -4 13 -12v-43c0 -8 -5 -12 -13 -12z" />
    <glyph glyph-name="udieresis" unicode="&#xfc;" horiz-adv-x="608" 
d="M250 598c0 -24 -19 -42 -43 -42s-42 18 -42 42s18 43 42 43s43 -19 43 -43zM408 598c0 -24 -19 -42 -43 -42s-42 18 -42 42s18 43 42 43s43 -19 43 -43zM557 0h-87c-29 0 -43 11 -43 42v37h-3c-11 -23 -48 -86 -156 -86s-173 69 -174 174v258h-57c-8 0 -12 4 -12 12v43
c0 8 5 12 12 12h96c29 0 43 -11 43 -42v-263c0 -75 36 -122 110 -122c100 0 133 83 133 85v275h-54c-8 0 -12 4 -12 12v43c0 8 5 12 12 12h124c8 0 12 -4 12 -12v-413h56c8 0 13 -4 13 -12v-43c0 -8 -5 -12 -13 -12z" />
    <glyph glyph-name="uhungarumlaut" unicode="&#x171;" horiz-adv-x="608" 
d="M557 0h-87c-29 0 -43 11 -43 42v37h-3c-11 -23 -48 -86 -156 -86s-173 69 -174 174v258h-57c-8 0 -12 4 -12 12v43c0 8 5 12 12 12h96c29 0 43 -11 43 -42v-263c0 -75 36 -122 110 -122c100 0 133 83 133 85v275h-54c-8 0 -12 4 -12 12v43c0 8 5 12 12 12h124
c8 0 12 -4 12 -12v-413h56c8 0 13 -4 13 -12v-43c0 -8 -5 -12 -13 -12zM327 715l-168 -134c-7 -4 -14 -4 -19 3l-25 29c-5 6 -5 14 2 19l161 141c5 6 13 5 19 -1l31 -38c5 -7 5 -14 -1 -19zM499 715l-168 -134c-6 -4 -13 -4 -19 3l-25 29c-5 6 -5 14 2 19l161 141
c6 6 14 5 19 -1l32 -38c4 -7 4 -14 -2 -19z" />
    <glyph glyph-name="ugrave" unicode="&#xf9;" horiz-adv-x="608" 
d="M557 0h-87c-29 0 -43 11 -43 42v37h-3c-11 -23 -48 -86 -156 -86s-173 69 -174 174v258h-57c-8 0 -12 4 -12 12v43c0 8 5 12 12 12h96c29 0 43 -11 43 -42v-263c0 -75 36 -122 110 -122c100 0 133 83 133 85v275h-54c-8 0 -12 4 -12 12v43c0 8 5 12 12 12h124
c8 0 12 -4 12 -12v-413h56c8 0 13 -4 13 -12v-43c0 -8 -5 -12 -13 -12zM356 604l-25 -29c-6 -7 -13 -7 -19 -2l-168 134c-6 5 -6 12 -2 19l32 37c5 6 13 7 19 2l161 -142c7 -5 7 -13 2 -19z" />
    <glyph glyph-name="umacron" unicode="&#x16b;" horiz-adv-x="608" 
d="M557 0h-87c-29 0 -43 11 -43 42v37h-3c-11 -23 -48 -86 -156 -86s-173 69 -174 174v258h-57c-8 0 -12 4 -12 12v43c0 8 5 12 12 12h96c29 0 43 -11 43 -42v-263c0 -75 36 -122 110 -122c100 0 133 83 133 85v275h-54c-8 0 -12 4 -12 12v43c0 8 5 12 12 12h124
c8 0 12 -4 12 -12v-413h56c8 0 13 -4 13 -12v-43c0 -8 -5 -12 -13 -12zM435 554h-296c-8 0 -13 5 -13 13v42c0 8 5 14 13 14h296c8 0 13 -6 13 -14v-42c0 -8 -5 -13 -13 -13z" />
    <glyph glyph-name="uogonek" unicode="&#x173;" horiz-adv-x="608" 
d="M557 0h-14c-21 -10 -70 -39 -70 -82c0 -21 15 -34 38 -34c16 0 30 5 39 10c7 4 14 5 18 -1l9 -13c5 -7 2 -14 -4 -17c-7 -5 -33 -24 -73 -24c-48 0 -79 30 -79 73c0 49 42 78 69 88h-20c-29 0 -43 11 -43 42v37h-3c-11 -23 -48 -86 -156 -86s-173 69 -174 174v258h-57
c-8 0 -12 4 -12 12v43c0 8 5 12 12 12h96c29 0 43 -11 43 -42v-263c0 -75 36 -122 110 -122c100 0 133 83 133 85v275h-54c-8 0 -12 4 -12 12v43c0 8 5 12 12 12h124c8 0 12 -4 12 -12v-413h56c8 0 13 -4 13 -12v-43c0 -8 -5 -12 -13 -12z" />
    <glyph glyph-name="uring" unicode="&#x16f;" horiz-adv-x="608" 
d="M340 603c-16 -27 -51 -37 -78 -21s-37 52 -21 79s51 37 78 21s37 -52 21 -79zM317 623c6 15 -3 31 -18 36s-31 -2 -36 -18c-5 -15 3 -31 19 -36c15 -5 30 2 35 18zM557 0h-87c-29 0 -43 11 -43 42v37h-3c-11 -23 -48 -86 -156 -86s-173 69 -174 174v258h-57
c-8 0 -12 4 -12 12v43c0 8 5 12 12 12h96c29 0 43 -11 43 -42v-263c0 -75 36 -122 110 -122c100 0 133 83 133 85v275h-54c-8 0 -12 4 -12 12v43c0 8 5 12 12 12h124c8 0 12 -4 12 -12v-413h56c8 0 13 -4 13 -12v-43c0 -8 -5 -12 -13 -12z" />
    <glyph glyph-name="utilde" unicode="&#x169;" horiz-adv-x="608" 
d="M557 0h-87c-29 0 -43 11 -43 42v37h-3c-11 -23 -48 -86 -156 -86s-173 69 -174 174v258h-57c-8 0 -12 4 -12 12v43c0 8 5 12 12 12h96c29 0 43 -11 43 -42v-263c0 -75 36 -122 110 -122c100 0 133 83 133 85v275h-54c-8 0 -12 4 -12 12v43c0 8 5 12 12 12h124
c8 0 12 -4 12 -12v-413h56c8 0 13 -4 13 -12v-43c0 -8 -5 -12 -13 -12zM411 684h24c8 0 12 -4 12 -12c0 -71 -25 -113 -87 -113c-75 0 -92 63 -138 63c-27 0 -41 -12 -41 -57c0 -8 -4 -12 -12 -12h-24c-8 0 -12 4 -12 12c0 66 27 108 86 108c69 0 90 -65 138 -66
c31 0 42 15 42 65c0 8 4 12 12 12z" />
    <glyph glyph-name="wacute" unicode="&#x1e83;" horiz-adv-x="812" 
d="M536 706l-168 -134c-7 -4 -14 -4 -19 3l-25 29c-5 6 -5 14 2 19l161 141c6 6 13 5 19 -1l31 -38c5 -6 5 -13 -1 -19zM576 0h-59c-14 0 -22 6 -24 21l-85 335h-2l-85 -335c-3 -15 -10 -21 -25 -21h-58c-15 0 -20 7 -24 21l-132 404h-56c-7 0 -12 4 -12 12v43
c0 8 4 12 12 12h187c8 0 12 -4 12 -12v-43c0 -8 -5 -12 -12 -12h-46l101 -337h2l88 337h-39c-7 0 -12 4 -12 12v43c0 8 4 12 12 12h176c8 0 12 -4 12 -12v-43c0 -8 -5 -12 -12 -12h-39l88 -337h2l100 337h-45c-8 0 -13 4 -13 12v43c0 8 5 12 13 12h186c8 0 12 -4 12 -12v-43
c0 -8 -4 -12 -12 -12h-55l-132 -404c-5 -14 -10 -21 -24 -21z" />
    <glyph glyph-name="wcircumflex" unicode="&#x175;" horiz-adv-x="812" 
d="M577 604l-25 -29c-5 -6 -12 -7 -19 -2l-124 105l-122 -105c-6 -5 -14 -4 -19 2l-25 29c-4 6 -4 14 2 19l155 136c3 3 7 4 10 4c4 0 6 -1 10 -5l155 -135c5 -6 6 -13 2 -19zM576 0h-59c-14 0 -22 6 -24 21l-85 335h-2l-85 -335c-3 -15 -10 -21 -25 -21h-58
c-15 0 -20 7 -24 21l-132 404h-56c-7 0 -12 4 -12 12v43c0 8 4 12 12 12h187c8 0 12 -4 12 -12v-43c0 -8 -5 -12 -12 -12h-46l101 -337h2l88 337h-39c-7 0 -12 4 -12 12v43c0 8 4 12 12 12h176c8 0 12 -4 12 -12v-43c0 -8 -5 -12 -12 -12h-39l88 -337h2l100 337h-45
c-8 0 -13 4 -13 12v43c0 8 5 12 13 12h186c8 0 12 -4 12 -12v-43c0 -8 -4 -12 -12 -12h-55l-132 -404c-5 -14 -10 -21 -24 -21z" />
    <glyph glyph-name="wdieresis" unicode="&#x1e85;" horiz-adv-x="812" 
d="M375 598c0 -24 -19 -42 -43 -42s-42 18 -42 42s18 43 42 43s43 -19 43 -43zM533 598c0 -24 -19 -42 -43 -42s-42 18 -42 42s18 43 42 43s43 -19 43 -43zM576 0h-59c-14 0 -22 6 -24 21l-85 335h-2l-85 -335c-3 -15 -10 -21 -25 -21h-58c-15 0 -20 7 -24 21l-132 404h-56
c-7 0 -12 4 -12 12v43c0 8 4 12 12 12h187c8 0 12 -4 12 -12v-43c0 -8 -5 -12 -12 -12h-46l101 -337h2l88 337h-39c-7 0 -12 4 -12 12v43c0 8 4 12 12 12h176c8 0 12 -4 12 -12v-43c0 -8 -5 -12 -12 -12h-39l88 -337h2l100 337h-45c-8 0 -13 4 -13 12v43c0 8 5 12 13 12h186
c8 0 12 -4 12 -12v-43c0 -8 -4 -12 -12 -12h-55l-132 -404c-5 -14 -10 -21 -24 -21z" />
    <glyph glyph-name="wgrave" unicode="&#x1e81;" horiz-adv-x="812" 
d="M576 0h-59c-14 0 -22 6 -24 21l-85 335h-2l-85 -335c-3 -15 -10 -21 -25 -21h-58c-15 0 -20 7 -24 21l-132 404h-56c-7 0 -12 4 -12 12v43c0 8 4 12 12 12h187c8 0 12 -4 12 -12v-43c0 -8 -5 -12 -12 -12h-46l101 -337h2l88 337h-39c-7 0 -12 4 -12 12v43c0 8 4 12 12 12
h176c8 0 12 -4 12 -12v-43c0 -8 -5 -12 -12 -12h-39l88 -337h2l100 337h-45c-8 0 -13 4 -13 12v43c0 8 5 12 13 12h186c8 0 12 -4 12 -12v-43c0 -8 -4 -12 -12 -12h-55l-132 -404c-5 -14 -10 -21 -24 -21zM484 604l-25 -29c-6 -7 -13 -7 -19 -2l-168 134c-6 5 -6 12 -2 19
l32 37c5 6 13 7 19 2l161 -142c7 -5 7 -13 2 -19z" />
    <glyph glyph-name="yacute" unicode="&#xfd;" horiz-adv-x="590" 
d="M247 -63l27 74h-13c-13 0 -19 7 -26 25l-153 389h-55c-7 0 -12 4 -12 12v43c0 8 4 12 12 12h181c8 0 13 -4 13 -12v-43c0 -8 -5 -12 -13 -12h-41l129 -339h2l120 339h-45c-8 0 -12 4 -12 12v43c0 8 4 12 12 12h186c8 0 12 -4 12 -12v-43c0 -8 -4 -12 -12 -12h-56
l-178 -489c-39 -106 -75 -170 -170 -170c-59 0 -92 31 -101 39c-6 6 -8 12 -3 18l25 32c6 5 11 6 18 1c5 -4 22 -19 53 -19c51 0 74 29 100 100zM427 706l-168 -134c-7 -4 -14 -4 -19 3l-25 29c-5 6 -5 14 2 19l161 141c6 6 13 5 19 -1l31 -38c5 -6 5 -13 -1 -19z" />
    <glyph glyph-name="ycircumflex" unicode="&#x177;" horiz-adv-x="590" 
d="M247 -63l27 74h-13c-13 0 -19 7 -26 25l-153 389h-55c-7 0 -12 4 -12 12v43c0 8 4 12 12 12h181c8 0 13 -4 13 -12v-43c0 -8 -5 -12 -13 -12h-41l129 -339h2l120 339h-45c-8 0 -12 4 -12 12v43c0 8 4 12 12 12h186c8 0 12 -4 12 -12v-43c0 -8 -4 -12 -12 -12h-56
l-178 -489c-39 -106 -75 -170 -170 -170c-59 0 -92 31 -101 39c-6 6 -8 12 -3 18l25 32c6 5 11 6 18 1c5 -4 22 -19 53 -19c51 0 74 29 100 100zM467 604l-25 -29c-5 -6 -12 -7 -19 -2l-124 105l-122 -105c-6 -5 -14 -4 -19 2l-25 29c-4 6 -4 14 2 19l155 136c3 3 7 4 10 4
c4 0 6 -1 10 -5l155 -135c5 -6 6 -13 2 -19z" />
    <glyph glyph-name="ydieresis" unicode="&#xff;" horiz-adv-x="590" 
d="M247 -63l27 74h-13c-13 0 -19 7 -26 25l-153 389h-55c-7 0 -12 4 -12 12v43c0 8 4 12 12 12h181c8 0 13 -4 13 -12v-43c0 -8 -5 -12 -13 -12h-41l129 -339h2l120 339h-45c-8 0 -12 4 -12 12v43c0 8 4 12 12 12h186c8 0 12 -4 12 -12v-43c0 -8 -4 -12 -12 -12h-56
l-178 -489c-39 -106 -75 -170 -170 -170c-59 0 -92 31 -101 39c-6 6 -8 12 -3 18l25 32c6 5 11 6 18 1c5 -4 22 -19 53 -19c51 0 74 29 100 100zM265 598c0 -24 -19 -42 -43 -42s-42 18 -42 42s18 43 42 43s43 -19 43 -43zM423 598c0 -24 -19 -42 -43 -42s-42 18 -42 42
s18 43 42 43s43 -19 43 -43z" />
    <glyph glyph-name="ygrave" unicode="&#x1ef3;" horiz-adv-x="590" 
d="M247 -63l27 74h-13c-13 0 -19 7 -26 25l-153 389h-55c-7 0 -12 4 -12 12v43c0 8 4 12 12 12h181c8 0 13 -4 13 -12v-43c0 -8 -5 -12 -13 -12h-41l129 -339h2l120 339h-45c-8 0 -12 4 -12 12v43c0 8 4 12 12 12h186c8 0 12 -4 12 -12v-43c0 -8 -4 -12 -12 -12h-56
l-178 -489c-39 -106 -75 -170 -170 -170c-59 0 -92 31 -101 39c-6 6 -8 12 -3 18l25 32c6 5 11 6 18 1c5 -4 22 -19 53 -19c51 0 74 29 100 100zM389 604l-25 -29c-6 -7 -13 -7 -19 -2l-168 134c-6 5 -6 12 -2 19l32 37c5 6 13 7 19 2l161 -142c7 -5 7 -13 2 -19z" />
    <glyph glyph-name="zacute" unicode="&#x17a;" horiz-adv-x="519" 
d="M393 706l-168 -134c-7 -4 -14 -4 -19 3l-25 29c-5 6 -5 14 2 19l161 141c6 6 13 5 19 -1l31 -38c5 -6 5 -13 -1 -19zM468 0h-417c-8 0 -13 4 -13 12v41c0 19 6 25 15 34l324 338h-271v-77c0 -8 -4 -12 -12 -12h-43c-8 0 -13 4 -13 12v132c0 8 5 12 13 12h417
c8 0 13 -4 13 -12v-35c0 -14 -7 -24 -16 -32l-328 -346h275v79c0 8 5 12 13 12h43c8 0 13 -4 13 -12v-134c0 -8 -5 -12 -13 -12z" />
    <glyph glyph-name="zcaron" unicode="&#x17e;" horiz-adv-x="519" 
d="M430 713l-155 -135c-4 -4 -6 -5 -10 -5c-3 0 -7 1 -10 4l-155 136c-6 5 -6 13 -2 19l25 28c5 7 12 7 19 2l122 -105l124 105c7 5 14 5 19 -2l25 -28c4 -6 3 -13 -2 -19zM468 0h-417c-8 0 -13 4 -13 12v41c0 19 6 25 15 34l324 338h-271v-77c0 -8 -4 -12 -12 -12h-43
c-8 0 -13 4 -13 12v132c0 8 5 12 13 12h417c8 0 13 -4 13 -12v-35c0 -14 -7 -24 -16 -32l-328 -346h275v79c0 8 5 12 13 12h43c8 0 13 -4 13 -12v-134c0 -8 -5 -12 -13 -12z" />
    <glyph glyph-name="zdotaccent" unicode="&#x17c;" horiz-adv-x="519" 
d="M468 0h-417c-8 0 -13 4 -13 12v41c0 19 6 25 15 34l324 338h-271v-77c0 -8 -4 -12 -12 -12h-43c-8 0 -13 4 -13 12v132c0 8 5 12 13 12h417c8 0 13 -4 13 -12v-35c0 -14 -7 -24 -16 -32l-328 -346h275v79c0 8 5 12 13 12h43c8 0 13 -4 13 -12v-134c0 -8 -5 -12 -13 -12z
M319 618c0 -29 -23 -52 -52 -52s-52 23 -52 52s23 53 52 53s52 -24 52 -53z" />
    <glyph glyph-name="Aacute" unicode="&#xc1;" horiz-adv-x="841" 
d="M768 0h-226c-8 0 -12 4 -12 12v51c0 8 4 12 12 12h70l-65 173h-279l-65 -173h70c8 0 12 -4 12 -12v-51c0 -8 -4 -12 -12 -12h-225c-8 0 -12 4 -12 12v51c0 8 4 12 12 12h67l215 568h-54c-8 0 -13 4 -13 12v51c0 8 5 12 13 12h136c33 0 47 -13 58 -43l230 -600h68
c8 0 12 -4 12 -12v-51c0 -8 -5 -12 -12 -12zM520 317l-111 297h-3l-112 -297h226zM571 932l-168 -134c-7 -4 -14 -4 -19 3l-25 29c-5 6 -5 14 2 19l161 141c6 6 13 5 19 -1l31 -38c5 -6 5 -13 -1 -19z" />
    <glyph glyph-name="Abreve" unicode="&#x102;" horiz-adv-x="841" 
d="M768 0h-226c-8 0 -12 4 -12 12v51c0 8 4 12 12 12h70l-65 173h-279l-65 -173h70c8 0 12 -4 12 -12v-51c0 -8 -4 -12 -12 -12h-225c-8 0 -12 4 -12 12v51c0 8 4 12 12 12h67l215 568h-54c-8 0 -13 4 -13 12v51c0 8 5 12 13 12h136c33 0 47 -13 58 -43l230 -600h68
c8 0 12 -4 12 -12v-51c0 -8 -5 -12 -12 -12zM520 317l-111 297h-3l-112 -297h226zM498 941h32c8 0 13 -5 13 -13c0 -92 -60 -139 -141 -139c-80 0 -139 47 -139 139c0 8 5 13 13 13h32c8 0 13 -5 13 -13c0 -57 37 -88 81 -88c45 0 83 31 83 88c0 8 5 13 13 13z" />
    <glyph glyph-name="Acircumflex" unicode="&#xc2;" horiz-adv-x="841" 
d="M768 0h-226c-8 0 -12 4 -12 12v51c0 8 4 12 12 12h70l-65 173h-279l-65 -173h70c8 0 12 -4 12 -12v-51c0 -8 -4 -12 -12 -12h-225c-8 0 -12 4 -12 12v51c0 8 4 12 12 12h67l215 568h-54c-8 0 -13 4 -13 12v51c0 8 5 12 13 12h136c33 0 47 -13 58 -43l230 -600h68
c8 0 12 -4 12 -12v-51c0 -8 -5 -12 -12 -12zM520 317l-111 297h-3l-112 -297h226zM573 830l-25 -29c-5 -6 -12 -7 -19 -2l-124 105l-122 -105c-6 -5 -14 -4 -19 2l-25 29c-4 6 -4 14 2 19l155 136c3 3 7 4 10 4c4 0 6 -1 10 -5l155 -135c5 -6 6 -13 2 -19z" />
    <glyph glyph-name="Agrave" unicode="&#xc0;" horiz-adv-x="841" 
d="M768 0h-226c-8 0 -12 4 -12 12v51c0 8 4 12 12 12h70l-65 173h-279l-65 -173h70c8 0 12 -4 12 -12v-51c0 -8 -4 -12 -12 -12h-225c-8 0 -12 4 -12 12v51c0 8 4 12 12 12h67l215 568h-54c-8 0 -13 4 -13 12v51c0 8 5 12 13 12h136c33 0 47 -13 58 -43l230 -600h68
c8 0 12 -4 12 -12v-51c0 -8 -5 -12 -12 -12zM520 317l-111 297h-3l-112 -297h226zM496 830l-25 -29c-6 -7 -13 -7 -19 -2l-168 134c-6 5 -6 12 -2 19l32 37c5 6 13 7 19 2l161 -142c7 -5 7 -13 2 -19z" />
    <glyph glyph-name="Adieresis" unicode="&#xc4;" horiz-adv-x="841" 
d="M768 0h-226c-8 0 -12 4 -12 12v51c0 8 4 12 12 12h70l-65 173h-279l-65 -173h70c8 0 12 -4 12 -12v-51c0 -8 -4 -12 -12 -12h-225c-8 0 -12 4 -12 12v51c0 8 4 12 12 12h67l215 568h-54c-8 0 -13 4 -13 12v51c0 8 5 12 13 12h136c33 0 47 -13 58 -43l230 -600h68
c8 0 12 -4 12 -12v-51c0 -8 -5 -12 -12 -12zM520 317l-111 297h-3l-112 -297h226zM371 824c0 -24 -19 -42 -43 -42s-42 18 -42 42s18 43 42 43s43 -19 43 -43zM529 824c0 -24 -19 -42 -43 -42s-42 18 -42 42s18 43 42 43s43 -19 43 -43z" />
    <glyph glyph-name="Amacron" unicode="&#x100;" horiz-adv-x="841" 
d="M768 0h-226c-8 0 -12 4 -12 12v51c0 8 4 12 12 12h70l-65 173h-279l-65 -173h70c8 0 12 -4 12 -12v-51c0 -8 -4 -12 -12 -12h-225c-8 0 -12 4 -12 12v51c0 8 4 12 12 12h67l215 568h-54c-8 0 -13 4 -13 12v51c0 8 5 12 13 12h136c33 0 47 -13 58 -43l230 -600h68
c8 0 12 -4 12 -12v-51c0 -8 -5 -12 -12 -12zM520 317l-111 297h-3l-112 -297h226zM550 780h-296c-8 0 -13 5 -13 13v42c0 8 5 14 13 14h296c8 0 13 -6 13 -14v-42c0 -8 -5 -13 -13 -13z" />
    <glyph glyph-name="Aogonek" unicode="&#x104;" horiz-adv-x="852" 
d="M778 -107l9 -13c5 -7 2 -14 -4 -17c-7 -5 -33 -24 -73 -24c-48 0 -79 30 -79 73c0 49 42 78 69 88h-158c-8 0 -12 4 -12 12v51c0 8 4 12 12 12h70l-65 173h-279l-65 -173h70c8 0 12 -4 12 -12v-51c0 -8 -4 -12 -12 -12h-225c-8 0 -12 4 -12 12v51c0 8 4 12 12 12h67
l215 568h-54c-8 0 -13 4 -13 12v51c0 8 5 12 13 12h136c33 0 47 -13 58 -43l230 -600h68c8 0 12 -4 12 -12v-51c0 -8 -5 -12 -12 -12h-15c-21 -10 -70 -39 -70 -82c0 -21 15 -34 38 -34c16 0 30 5 39 10c7 4 14 5 18 -1zM520 317l-111 297h-3l-112 -297h226z" />
    <glyph glyph-name="Aring" unicode="&#xc5;" horiz-adv-x="841" 
d="M768 0h-226c-8 0 -12 4 -12 12v51c0 8 4 12 12 12h70l-65 173h-279l-65 -173h70c8 0 12 -4 12 -12v-51c0 -8 -4 -12 -12 -12h-225c-8 0 -12 4 -12 12v51c0 8 4 12 12 12h67l215 568h-54c-8 0 -13 4 -13 12v51c0 8 5 12 13 12h136c33 0 47 -13 58 -43l230 -600h68
c8 0 12 -4 12 -12v-51c0 -8 -5 -12 -12 -12zM520 317l-111 297h-3l-112 -297h226zM452 829c-16 -27 -51 -37 -78 -21s-37 52 -21 79s51 37 78 21s37 -52 21 -79zM429 849c6 15 -3 31 -18 36s-31 -2 -36 -18c-5 -15 3 -31 19 -36c15 -5 30 2 35 18z" />
    <glyph glyph-name="Atilde" unicode="&#xc3;" horiz-adv-x="841" 
d="M768 0h-226c-8 0 -12 4 -12 12v51c0 8 4 12 12 12h70l-65 173h-279l-65 -173h70c8 0 12 -4 12 -12v-51c0 -8 -4 -12 -12 -12h-225c-8 0 -12 4 -12 12v51c0 8 4 12 12 12h67l215 568h-54c-8 0 -13 4 -13 12v51c0 8 5 12 13 12h136c33 0 47 -13 58 -43l230 -600h68
c8 0 12 -4 12 -12v-51c0 -8 -5 -12 -12 -12zM520 317l-111 297h-3l-112 -297h226zM525 910h24c8 0 12 -4 12 -12c0 -71 -25 -113 -87 -113c-75 0 -92 63 -138 63c-27 0 -41 -12 -41 -57c0 -8 -4 -12 -12 -12h-24c-8 0 -12 4 -12 12c0 66 27 108 86 108c69 0 90 -65 138 -66
c31 0 42 15 42 65c0 8 4 12 12 12z" />
    <glyph glyph-name="AE" unicode="&#xc6;" horiz-adv-x="1044" 
d="M984 0h-532c-8 0 -12 4 -12 12v51c0 8 4 12 12 12h77v245h-209l-104 -245h69c8 0 13 -4 13 -12v-51c0 -8 -5 -12 -13 -12h-224c-8 0 -13 4 -13 12v51c0 8 4 12 13 12h67l242 568h-55c-7 0 -12 4 -12 12v51c0 8 4 12 12 12h669c7 0 12 -4 12 -12v-161c0 -8 -4 -13 -12 -13
h-54c-8 0 -13 5 -13 13v98h-301v-248h253c8 0 12 -4 12 -12v-51c0 -8 -4 -12 -12 -12h-253v-245h301v98c0 8 4 12 12 12h55c8 0 12 -4 12 -12v-161c0 -8 -5 -12 -12 -12zM529 395v248h-71l-108 -248h179z" />
    <glyph glyph-name="Cacute" unicode="&#x106;" horiz-adv-x="752" 
d="M505 932l-168 -134c-7 -4 -14 -4 -19 3l-25 29c-5 6 -5 14 2 19l161 141c6 6 13 5 19 -1l31 -38c5 -6 5 -13 -1 -19zM655 209l42 -28c8 -6 7 -12 3 -20c-16 -31 -98 -168 -311 -168c-190 0 -341 144 -341 370c0 228 159 361 336 361c132 0 197 -64 225 -107l-1 89
c-1 8 4 12 12 12h56c8 0 13 -4 13 -12v-218c0 -8 -5 -13 -13 -13h-63c-8 0 -12 5 -12 13v9c0 53 -86 145 -212 145c-120 0 -248 -90 -248 -282c0 -190 128 -283 251 -283c155 0 221 86 244 126c5 9 12 12 19 6z" />
    <glyph glyph-name="Ccaron" unicode="&#x10c;" horiz-adv-x="752" 
d="M548 939l-155 -135c-4 -4 -6 -5 -10 -5c-3 0 -7 1 -10 4l-155 136c-6 5 -6 13 -2 19l25 28c5 7 12 7 19 2l122 -105l124 105c7 5 14 5 19 -2l25 -28c4 -6 3 -13 -2 -19zM655 209l42 -28c8 -6 7 -12 3 -20c-16 -31 -98 -168 -311 -168c-190 0 -341 144 -341 370
c0 228 159 361 336 361c132 0 197 -64 225 -107l-1 89c-1 8 4 12 12 12h56c8 0 13 -4 13 -12v-218c0 -8 -5 -13 -13 -13h-63c-8 0 -12 5 -12 13v9c0 53 -86 145 -212 145c-120 0 -248 -90 -248 -282c0 -190 128 -283 251 -283c155 0 221 86 244 126c5 9 12 12 19 6z" />
    <glyph glyph-name="Ccedilla" unicode="&#xc7;" horiz-adv-x="752" 
d="M655 209l42 -28c8 -6 7 -12 3 -20c-16 -31 -98 -168 -311 -168c-190 0 -341 144 -341 370c0 228 159 361 336 361c132 0 197 -64 225 -107l-1 89c-1 8 4 12 12 12h56c8 0 13 -4 13 -12v-218c0 -8 -5 -13 -13 -13h-63c-8 0 -12 5 -12 13v9c0 53 -86 145 -212 145
c-120 0 -248 -90 -248 -282c0 -190 128 -283 251 -283c155 0 221 86 244 126c5 9 12 12 19 6zM373 -156c-40 0 -66 19 -72 23c-5 3 -8 10 -3 16l10 12c6 6 12 6 17 3c6 -4 23 -13 44 -13c31 0 43 12 43 33c0 20 -16 26 -49 26c-18 0 -23 5 -19 17l20 57l42 -1l-15 -42
c6 0 70 1 70 -56c0 -46 -33 -75 -88 -75z" />
    <glyph glyph-name="Ccircumflex" unicode="&#x108;" horiz-adv-x="752" 
d="M549 830l-25 -29c-5 -6 -12 -7 -19 -2l-124 105l-122 -105c-6 -5 -14 -4 -19 2l-25 29c-4 6 -4 14 2 19l155 136c3 3 7 4 10 4c4 0 6 -1 10 -5l155 -135c5 -6 6 -13 2 -19zM655 209l42 -28c8 -6 7 -12 3 -20c-16 -31 -98 -168 -311 -168c-190 0 -341 144 -341 370
c0 228 159 361 336 361c132 0 197 -64 225 -107l-1 89c-1 8 4 12 12 12h56c8 0 13 -4 13 -12v-218c0 -8 -5 -13 -13 -13h-63c-8 0 -12 5 -12 13v9c0 53 -86 145 -212 145c-120 0 -248 -90 -248 -282c0 -190 128 -283 251 -283c155 0 221 86 244 126c5 9 12 12 19 6z" />
    <glyph glyph-name="Cdotaccent" unicode="&#x10a;" horiz-adv-x="752" 
d="M655 209l42 -28c8 -6 7 -12 3 -20c-16 -31 -98 -168 -311 -168c-190 0 -341 144 -341 370c0 228 159 361 336 361c132 0 197 -64 225 -107l-1 89c-1 8 4 12 12 12h56c8 0 13 -4 13 -12v-218c0 -8 -5 -13 -13 -13h-63c-8 0 -12 5 -12 13v9c0 53 -86 145 -212 145
c-120 0 -248 -90 -248 -282c0 -190 128 -283 251 -283c155 0 221 86 244 126c5 9 12 12 19 6zM450 844c0 -29 -23 -52 -52 -52s-52 23 -52 52s23 53 52 53s52 -24 52 -53z" />
    <glyph glyph-name="Dcaron" unicode="&#x10e;" horiz-adv-x="740" 
d="M521 939l-155 -135c-4 -4 -6 -5 -10 -5c-3 0 -7 1 -10 4l-155 136c-6 5 -6 13 -2 19l25 28c5 7 12 7 19 2l122 -105l124 105c7 5 14 5 19 -2l25 -28c4 -6 3 -13 -2 -19zM342 0h-287c-7 0 -12 4 -12 12v51c0 8 4 12 12 12h77v568h-77c-7 0 -12 4 -12 12v51c0 8 4 12 12 12
h270c220 0 362 -133 362 -358c0 -224 -134 -360 -345 -360zM219 75h99c181 1 278 95 278 283c0 176 -94 285 -281 285h-96v-568z" />
    <glyph glyph-name="Dcroat" unicode="&#x110;" horiz-adv-x="741" 
d="M348 0h-287c-8 0 -13 4 -13 12v51c0 8 5 12 13 12h76v249h-68c-8 0 -14 5 -14 13v42c0 9 6 14 14 14h68v250h-76c-8 0 -13 4 -13 12v51c0 8 5 12 13 12h269c220 0 362 -133 362 -358c0 -224 -133 -360 -344 -360zM224 75h100c180 1 278 95 278 283
c0 176 -94 285 -281 285h-97v-250h153c8 0 13 -5 13 -14v-42c0 -8 -5 -13 -13 -13h-153v-249z" />
    <glyph glyph-name="Eacute" unicode="&#xc9;" horiz-adv-x="653" 
d="M441 932l-168 -134c-7 -4 -14 -4 -19 3l-25 29c-5 6 -5 14 2 19l161 141c6 6 13 5 19 -1l31 -38c5 -6 5 -13 -1 -19zM592 0h-531c-8 0 -13 4 -13 12v51c0 8 4 12 13 12h76v568h-76c-8 0 -13 4 -13 12v51c0 8 4 12 13 12h531c8 0 13 -4 13 -12v-161c0 -8 -5 -13 -13 -13
h-54c-8 0 -12 5 -12 13v98h-302v-248h253c8 0 13 -4 13 -12v-51c0 -8 -5 -12 -13 -12h-253v-245h301v98c0 8 5 12 13 12h54c8 0 13 -4 13 -12v-161c0 -8 -5 -12 -13 -12z" />
    <glyph glyph-name="Ebreve" unicode="&#x114;" horiz-adv-x="653" 
d="M592 0h-531c-8 0 -13 4 -13 12v51c0 8 4 12 13 12h76v568h-76c-8 0 -13 4 -13 12v51c0 8 4 12 13 12h531c8 0 13 -4 13 -12v-161c0 -8 -5 -13 -13 -13h-54c-8 0 -12 5 -12 13v98h-302v-248h253c8 0 13 -4 13 -12v-51c0 -8 -5 -12 -13 -12h-253v-245h301v98
c0 8 5 12 13 12h54c8 0 13 -4 13 -12v-161c0 -8 -5 -12 -13 -12zM412 941h32c8 0 13 -5 13 -13c0 -92 -60 -139 -141 -139c-80 0 -139 47 -139 139c0 8 5 13 13 13h32c8 0 13 -5 13 -13c0 -57 37 -88 81 -88c45 0 83 31 83 88c0 8 5 13 13 13z" />
    <glyph glyph-name="Ecaron" unicode="&#x11a;" horiz-adv-x="653" 
d="M488 939l-155 -135c-4 -4 -6 -5 -10 -5c-3 0 -7 1 -10 4l-155 136c-6 5 -6 13 -2 19l25 28c5 7 12 7 19 2l122 -105l124 105c7 5 14 5 19 -2l25 -28c4 -6 3 -13 -2 -19zM592 0h-531c-8 0 -13 4 -13 12v51c0 8 4 12 13 12h76v568h-76c-8 0 -13 4 -13 12v51c0 8 4 12 13 12
h531c8 0 13 -4 13 -12v-161c0 -8 -5 -13 -13 -13h-54c-8 0 -12 5 -12 13v98h-302v-248h253c8 0 13 -4 13 -12v-51c0 -8 -5 -12 -13 -12h-253v-245h301v98c0 8 5 12 13 12h54c8 0 13 -4 13 -12v-161c0 -8 -5 -12 -13 -12z" />
    <glyph glyph-name="Ecircumflex" unicode="&#xca;" horiz-adv-x="653" 
d="M473 830l-25 -29c-5 -6 -12 -7 -19 -2l-124 105l-122 -105c-6 -5 -14 -4 -19 2l-25 29c-4 6 -4 14 2 19l155 136c3 3 7 4 10 4c4 0 6 -1 10 -5l155 -135c5 -6 6 -13 2 -19zM592 0h-531c-8 0 -13 4 -13 12v51c0 8 4 12 13 12h76v568h-76c-8 0 -13 4 -13 12v51
c0 8 4 12 13 12h531c8 0 13 -4 13 -12v-161c0 -8 -5 -13 -13 -13h-54c-8 0 -12 5 -12 13v98h-302v-248h253c8 0 13 -4 13 -12v-51c0 -8 -5 -12 -13 -12h-253v-245h301v98c0 8 5 12 13 12h54c8 0 13 -4 13 -12v-161c0 -8 -5 -12 -13 -12z" />
    <glyph glyph-name="Edieresis" unicode="&#xcb;" horiz-adv-x="653" 
d="M285 824c0 -24 -19 -42 -43 -42s-42 18 -42 42s18 43 42 43s43 -19 43 -43zM443 824c0 -24 -19 -42 -43 -42s-42 18 -42 42s18 43 42 43s43 -19 43 -43zM592 0h-531c-8 0 -13 4 -13 12v51c0 8 4 12 13 12h76v568h-76c-8 0 -13 4 -13 12v51c0 8 4 12 13 12h531
c8 0 13 -4 13 -12v-161c0 -8 -5 -13 -13 -13h-54c-8 0 -12 5 -12 13v98h-302v-248h253c8 0 13 -4 13 -12v-51c0 -8 -5 -12 -13 -12h-253v-245h301v98c0 8 5 12 13 12h54c8 0 13 -4 13 -12v-161c0 -8 -5 -12 -13 -12z" />
    <glyph glyph-name="Edotaccent" unicode="&#x116;" horiz-adv-x="653" 
d="M592 0h-531c-8 0 -13 4 -13 12v51c0 8 4 12 13 12h76v568h-76c-8 0 -13 4 -13 12v51c0 8 4 12 13 12h531c8 0 13 -4 13 -12v-161c0 -8 -5 -13 -13 -13h-54c-8 0 -12 5 -12 13v98h-302v-248h253c8 0 13 -4 13 -12v-51c0 -8 -5 -12 -13 -12h-253v-245h301v98
c0 8 5 12 13 12h54c8 0 13 -4 13 -12v-161c0 -8 -5 -12 -13 -12zM376 844c0 -29 -23 -52 -52 -52s-52 23 -52 52s23 53 52 53s52 -24 52 -53z" />
    <glyph glyph-name="Egrave" unicode="&#xc8;" horiz-adv-x="653" 
d="M592 0h-531c-8 0 -13 4 -13 12v51c0 8 4 12 13 12h76v568h-76c-8 0 -13 4 -13 12v51c0 8 4 12 13 12h531c8 0 13 -4 13 -12v-161c0 -8 -5 -13 -13 -13h-54c-8 0 -12 5 -12 13v98h-302v-248h253c8 0 13 -4 13 -12v-51c0 -8 -5 -12 -13 -12h-253v-245h301v98
c0 8 5 12 13 12h54c8 0 13 -4 13 -12v-161c0 -8 -5 -12 -13 -12zM405 830l-25 -29c-6 -7 -13 -7 -19 -2l-168 134c-6 5 -6 12 -2 19l32 37c5 6 13 7 19 2l161 -142c7 -5 7 -13 2 -19z" />
    <glyph glyph-name="Emacron" unicode="&#x112;" horiz-adv-x="653" 
d="M592 0h-531c-8 0 -13 4 -13 12v51c0 8 4 12 13 12h76v568h-76c-8 0 -13 4 -13 12v51c0 8 4 12 13 12h531c8 0 13 -4 13 -12v-161c0 -8 -5 -13 -13 -13h-54c-8 0 -12 5 -12 13v98h-302v-248h253c8 0 13 -4 13 -12v-51c0 -8 -5 -12 -13 -12h-253v-245h301v98
c0 8 5 12 13 12h54c8 0 13 -4 13 -12v-161c0 -8 -5 -12 -13 -12zM466 780h-296c-8 0 -13 5 -13 13v42c0 8 5 14 13 14h296c8 0 13 -6 13 -14v-42c0 -8 -5 -13 -13 -13z" />
    <glyph glyph-name="Eogonek" unicode="&#x118;" horiz-adv-x="659" 
d="M592 0h-53c-21 -10 -70 -39 -70 -82c0 -21 15 -34 38 -34c16 0 30 5 39 10c7 4 14 5 18 -1l9 -13c5 -7 2 -14 -4 -17c-7 -5 -33 -24 -73 -24c-48 0 -79 30 -79 73c0 49 42 78 69 88h-425c-8 0 -13 4 -13 12v51c0 8 4 12 13 12h76v568h-76c-8 0 -13 4 -13 12v51
c0 8 4 12 13 12h531c8 0 13 -4 13 -12v-161c0 -8 -5 -13 -13 -13h-54c-8 0 -12 5 -12 13v98h-302v-248h253c8 0 13 -4 13 -12v-51c0 -8 -5 -12 -13 -12h-253v-245h301v98c0 8 5 12 13 12h54c8 0 13 -4 13 -12v-161c0 -8 -5 -12 -13 -12z" />
    <glyph glyph-name="Gbreve" unicode="&#x11e;" horiz-adv-x="750" 
d="M690 0h-53c-8 0 -13 4 -13 12l1 69c-41 -41 -112 -88 -233 -88c-194 0 -344 144 -344 370c0 232 167 361 341 361c129 0 192 -55 220 -95l-1 77c-1 8 4 12 12 12h56c8 0 13 -4 13 -12v-206c0 -8 -5 -12 -13 -12h-63c-8 0 -12 4 -12 12v12c0 53 -83 130 -208 130
c-128 0 -252 -106 -252 -282c0 -186 129 -283 254 -283c127 0 193 56 222 101v78h-186c-8 0 -12 5 -12 13v46c0 8 4 12 12 12h259c8 0 12 -4 12 -12v-303c0 -8 -4 -12 -12 -12zM493 941h32c8 0 13 -5 13 -13c0 -92 -60 -139 -141 -139c-80 0 -139 47 -139 139
c0 8 5 13 13 13h32c8 0 13 -5 13 -13c0 -57 37 -88 81 -88c45 0 83 31 83 88c0 8 5 13 13 13z" />
    <glyph glyph-name="Gcircumflex" unicode="&#x11c;" horiz-adv-x="750" 
d="M558 830l-25 -29c-5 -6 -12 -7 -19 -2l-124 105l-122 -105c-6 -5 -14 -4 -19 2l-25 29c-4 6 -4 14 2 19l155 136c3 3 7 4 10 4c4 0 6 -1 10 -5l155 -135c5 -6 6 -13 2 -19zM690 0h-53c-8 0 -13 4 -13 12l1 69c-41 -41 -112 -88 -233 -88c-194 0 -344 144 -344 370
c0 232 167 361 341 361c129 0 192 -55 220 -95l-1 77c-1 8 4 12 12 12h56c8 0 13 -4 13 -12v-206c0 -8 -5 -12 -13 -12h-63c-8 0 -12 4 -12 12v12c0 53 -83 130 -208 130c-128 0 -252 -106 -252 -282c0 -186 129 -283 254 -283c127 0 193 56 222 101v78h-186
c-8 0 -12 5 -12 13v46c0 8 4 12 12 12h259c8 0 12 -4 12 -12v-303c0 -8 -4 -12 -12 -12z" />
    <glyph glyph-name="Gcommaaccent" unicode="&#x122;" horiz-adv-x="750" 
d="M359 -222v17c0 4 3 6 7 6c18 0 41 15 41 53c0 8 -2 11 -2 11s-5 -5 -19 -5c-23 0 -43 19 -43 47c0 26 21 47 47 47c34 0 55 -27 55 -73c0 -79 -36 -109 -79 -109c-4 0 -7 2 -7 6zM690 0h-53c-8 0 -13 4 -13 12l1 69c-41 -41 -112 -88 -233 -88c-194 0 -344 144 -344 370
c0 232 167 361 341 361c129 0 192 -55 220 -95l-1 77c-1 8 4 12 12 12h56c8 0 13 -4 13 -12v-206c0 -8 -5 -12 -13 -12h-63c-8 0 -12 4 -12 12v12c0 53 -83 130 -208 130c-128 0 -252 -106 -252 -282c0 -186 129 -283 254 -283c127 0 193 56 222 101v78h-186
c-8 0 -12 5 -12 13v46c0 8 4 12 12 12h259c8 0 12 -4 12 -12v-303c0 -8 -4 -12 -12 -12z" />
    <glyph glyph-name="Gdotaccent" unicode="&#x120;" horiz-adv-x="750" 
d="M690 0h-53c-8 0 -13 4 -13 12l1 69c-41 -41 -112 -88 -233 -88c-194 0 -344 144 -344 370c0 232 167 361 341 361c129 0 192 -55 220 -95l-1 77c-1 8 4 12 12 12h56c8 0 13 -4 13 -12v-206c0 -8 -5 -12 -13 -12h-63c-8 0 -12 4 -12 12v12c0 53 -83 130 -208 130
c-128 0 -252 -106 -252 -282c0 -186 129 -283 254 -283c127 0 193 56 222 101v78h-186c-8 0 -12 5 -12 13v46c0 8 4 12 12 12h259c8 0 12 -4 12 -12v-303c0 -8 -4 -12 -12 -12zM442 844c0 -29 -23 -52 -52 -52s-52 23 -52 52s23 53 52 53s52 -24 52 -53z" />
    <glyph glyph-name="Hbar" unicode="&#x126;" horiz-adv-x="820" 
d="M760 0h-241c-8 0 -12 4 -12 12v51c0 8 4 12 12 12h77v245h-372v-245h77c8 0 13 -4 13 -12v-51c0 -8 -5 -12 -13 -12h-240c-8 0 -13 4 -13 12v51c0 8 4 12 13 12h76v414h-60c-7 0 -11 4 -11 11v29c0 7 4 11 11 11h60v103h-76c-8 0 -13 4 -13 12v51c0 8 4 12 13 12h240
c8 0 13 -4 13 -12v-51c0 -8 -5 -12 -13 -12h-77v-103h372v103h-77c-8 0 -12 4 -12 12v51c0 8 4 12 12 12h241c8 0 12 -4 12 -12v-51c0 -8 -4 -12 -12 -12h-77v-103h47c7 0 11 -4 11 -11v-29c0 -7 -4 -11 -11 -11h-47v-414h77c8 0 12 -4 12 -12v-51c0 -8 -4 -12 -12 -12z
M596 393v96h-372v-96h372z" />
    <glyph glyph-name="Hcircumflex" unicode="&#x124;" horiz-adv-x="820" 
d="M585 830l-25 -29c-5 -6 -12 -7 -19 -2l-124 105l-122 -105c-6 -5 -14 -4 -19 2l-25 29c-4 6 -4 14 2 19l155 136c3 3 7 4 10 4c4 0 6 -1 10 -5l155 -135c5 -6 6 -13 2 -19zM760 0h-241c-8 0 -12 4 -12 12v51c0 8 4 12 12 12h77v245h-372v-245h77c8 0 13 -4 13 -12v-51
c0 -8 -5 -12 -13 -12h-240c-8 0 -13 4 -13 12v51c0 8 4 12 13 12h76v568h-76c-8 0 -13 4 -13 12v51c0 8 4 12 13 12h240c8 0 13 -4 13 -12v-51c0 -8 -5 -12 -13 -12h-77v-250h372v250h-77c-8 0 -12 4 -12 12v51c0 8 4 12 12 12h241c8 0 12 -4 12 -12v-51
c0 -8 -4 -12 -12 -12h-77v-568h77c8 0 12 -4 12 -12v-51c0 -8 -4 -12 -12 -12z" />
    <glyph glyph-name="Iacute" unicode="&#xcd;" horiz-adv-x="391" 
d="M301 0h-240c-8 0 -13 4 -13 12v51c0 8 4 12 13 12h76v568h-76c-8 0 -13 4 -13 12v51c0 8 4 12 13 12h240c8 0 13 -4 13 -12v-51c0 -8 -5 -12 -13 -12h-77v-568h77c8 0 13 -4 13 -12v-51c0 -8 -5 -12 -13 -12zM338 908l-168 -134c-7 -4 -14 -4 -19 3l-25 29
c-5 6 -5 14 2 19l161 141c6 6 13 5 19 -1l31 -38c5 -6 5 -13 -1 -19z" />
    <glyph glyph-name="Ibreve" unicode="&#x12c;" horiz-adv-x="362" 
d="M301 0h-240c-8 0 -13 4 -13 12v51c0 8 4 12 13 12h76v568h-76c-8 0 -13 4 -13 12v51c0 8 4 12 13 12h240c8 0 13 -4 13 -12v-51c0 -8 -5 -12 -13 -12h-77v-568h77c8 0 13 -4 13 -12v-51c0 -8 -5 -12 -13 -12zM278 941h32c8 0 13 -5 13 -13c0 -92 -60 -139 -141 -139
c-80 0 -139 47 -139 139c0 8 5 13 13 13h32c8 0 13 -5 13 -13c0 -57 37 -88 81 -88c45 0 83 31 83 88c0 8 5 13 13 13z" />
    <glyph glyph-name="Icircumflex" unicode="&#xce;" horiz-adv-x="381" 
d="M309 0h-240c-8 0 -13 4 -13 12v51c0 8 4 12 13 12h76v568h-76c-8 0 -13 4 -13 12v51c0 8 4 12 13 12h240c8 0 13 -4 13 -12v-51c0 -8 -5 -12 -13 -12h-77v-568h77c8 0 13 -4 13 -12v-51c0 -8 -5 -12 -13 -12zM359 830l-25 -29c-5 -6 -12 -7 -19 -2l-124 105l-122 -105
c-6 -5 -14 -4 -19 2l-25 29c-4 6 -4 14 2 19l155 136c3 3 7 4 10 4c4 0 6 -1 10 -5l155 -135c5 -6 6 -13 2 -19z" />
    <glyph glyph-name="Idieresis" unicode="&#xcf;" horiz-adv-x="362" 
d="M301 0h-240c-8 0 -13 4 -13 12v51c0 8 4 12 13 12h76v568h-76c-8 0 -13 4 -13 12v51c0 8 4 12 13 12h240c8 0 13 -4 13 -12v-51c0 -8 -5 -12 -13 -12h-77v-568h77c8 0 13 -4 13 -12v-51c0 -8 -5 -12 -13 -12zM147 824c0 -24 -19 -42 -43 -42s-42 18 -42 42s18 43 42 43
s43 -19 43 -43zM305 824c0 -24 -19 -42 -43 -42s-42 18 -42 42s18 43 42 43s43 -19 43 -43z" />
    <glyph glyph-name="Idotaccent" unicode="&#x130;" horiz-adv-x="362" 
d="M301 0h-240c-8 0 -13 4 -13 12v51c0 8 4 12 13 12h76v568h-76c-8 0 -13 4 -13 12v51c0 8 4 12 13 12h240c8 0 13 -4 13 -12v-51c0 -8 -5 -12 -13 -12h-77v-568h77c8 0 13 -4 13 -12v-51c0 -8 -5 -12 -13 -12zM234 844c0 -29 -23 -52 -52 -52s-52 23 -52 52s23 53 52 53
s52 -24 52 -53z" />
    <glyph glyph-name="Igrave" unicode="&#xcc;" horiz-adv-x="378" 
d="M317 0h-240c-8 0 -13 4 -13 12v51c0 8 4 12 13 12h76v568h-76c-8 0 -13 4 -13 12v51c0 8 4 12 13 12h240c8 0 13 -4 13 -12v-51c0 -8 -5 -12 -13 -12h-77v-568h77c8 0 13 -4 13 -12v-51c0 -8 -5 -12 -13 -12zM249 808l-25 -29c-6 -7 -13 -7 -19 -2l-168 134
c-6 5 -6 12 -2 19l32 37c5 6 13 7 19 2l161 -142c7 -5 7 -13 2 -19z" />
    <glyph glyph-name="Iogonek" unicode="&#x12e;" horiz-adv-x="368" 
d="M306 -107l9 -13c5 -7 2 -14 -4 -17c-7 -5 -33 -24 -73 -24c-48 0 -79 30 -79 73c0 49 42 78 69 88h-167c-8 0 -13 4 -13 12v51c0 8 4 12 13 12h76v568h-76c-8 0 -13 4 -13 12v51c0 8 4 12 13 12h240c8 0 13 -4 13 -12v-51c0 -8 -5 -12 -13 -12h-77v-568h77
c8 0 13 -4 13 -12v-51c0 -8 -5 -12 -13 -12h-20c-21 -10 -70 -39 -70 -82c0 -21 15 -34 38 -34c16 0 30 5 39 10c7 4 14 5 18 -1z" />
    <glyph glyph-name="Itilde" unicode="&#x128;" horiz-adv-x="383" 
d="M311 0h-240c-8 0 -13 4 -13 12v51c0 8 4 12 13 12h76v568h-76c-8 0 -13 4 -13 12v51c0 8 4 12 13 12h240c8 0 13 -4 13 -12v-51c0 -8 -5 -12 -13 -12h-77v-568h77c8 0 13 -4 13 -12v-51c0 -8 -5 -12 -13 -12zM312 910h24c8 0 12 -4 12 -12c0 -71 -25 -113 -87 -113
c-75 0 -92 63 -138 63c-27 0 -41 -12 -41 -57c0 -8 -4 -12 -12 -12h-24c-8 0 -12 4 -12 12c0 66 27 108 86 108c69 0 90 -65 138 -66c31 0 42 15 42 65c0 8 4 12 12 12z" />
    <glyph glyph-name="Jcircumflex" unicode="&#x134;" horiz-adv-x="513" 
d="M449 830l-25 -29c-5 -6 -12 -7 -19 -2l-124 105l-122 -105c-6 -5 -14 -4 -19 2l-25 29c-4 6 -4 14 2 19l155 136c3 3 7 4 10 4c4 0 6 -1 10 -5l155 -135c5 -6 6 -13 2 -19zM288 262v381h-76c-8 0 -13 4 -13 12v51c0 8 5 12 13 12h240c8 0 13 -4 13 -12v-51
c0 -8 -5 -12 -13 -12h-77v-372c0 -200 -94 -271 -285 -271c-8 0 -13 4 -13 12v51c0 8 4 12 13 12c152 0 198 64 198 187z" />
    <glyph glyph-name="Kcommaaccent" unicode="&#x136;" horiz-adv-x="763" 
d="M314 -222v17c0 4 3 6 7 6c18 0 41 15 41 53c0 8 -2 11 -2 11s-5 -5 -19 -5c-23 0 -43 19 -43 47c0 26 21 47 47 47c34 0 55 -27 55 -73c0 -79 -36 -109 -79 -109c-4 0 -7 2 -7 6zM702 0h-87c-29 0 -45 18 -60 48l-94 191c-12 24 -26 52 -96 52h-141v-216h92
c8 0 13 -4 13 -12v-51c0 -8 -5 -12 -13 -12h-255c-8 0 -13 4 -13 12v51c0 8 4 12 13 12h76v568h-76c-8 0 -13 4 -13 12v51c0 8 4 12 13 12h224c8 0 12 -4 12 -12v-51c0 -8 -5 -12 -12 -12h-61v-281h105c133 0 209 63 209 281h-68c-8 0 -12 4 -12 12v51c0 8 4 12 12 12h223
c8 0 12 -4 12 -12v-51c0 -8 -4 -12 -12 -12h-69c0 -171 -51 -269 -136 -315c34 -16 48 -44 66 -80l87 -173h61c8 0 12 -4 12 -12v-51c0 -8 -5 -12 -12 -12z" />
    <glyph glyph-name="Lacute" unicode="&#x139;" horiz-adv-x="670" 
d="M425 932l-168 -134c-7 -4 -14 -4 -19 3l-25 29c-5 6 -5 14 2 19l161 141c6 6 13 5 19 -1l31 -38c5 -6 5 -13 -1 -19zM608 0h-547c-8 0 -13 4 -13 12v51c0 8 4 12 13 12h76v568h-76c-8 0 -13 4 -13 12v51c0 8 4 12 13 12h239c8 0 13 -5 13 -13v-49c0 -8 -5 -13 -13 -13
h-76v-568h318v98c0 8 5 12 13 12h54c8 0 12 -4 12 -12v-160c0 -8 -5 -13 -13 -13z" />
    <glyph glyph-name="Lcaron" unicode="&#x13d;" horiz-adv-x="670" 
d="M347 540v17c0 4 3 6 6 6c18 0 41 15 41 53c0 9 -2 12 -2 12s-5 -5 -19 -5c-23 0 -43 18 -43 46c0 27 21 47 47 47c35 0 56 -26 56 -73c0 -79 -37 -109 -80 -109c-3 0 -6 2 -6 6zM608 0h-547c-8 0 -13 4 -13 12v51c0 8 4 12 13 12h76v568h-76c-8 0 -13 4 -13 12v51
c0 8 4 12 13 12h239c8 0 13 -5 13 -13v-49c0 -8 -5 -13 -13 -13h-76v-568h318v98c0 8 5 12 13 12h54c8 0 12 -4 12 -12v-160c0 -8 -5 -13 -13 -13z" />
    <glyph glyph-name="Lcommaaccent" unicode="&#x13b;" horiz-adv-x="670" 
d="M282 -222v17c0 4 3 6 7 6c18 0 41 15 41 53c0 8 -2 11 -2 11s-5 -5 -19 -5c-23 0 -43 19 -43 47c0 26 21 47 47 47c34 0 55 -27 55 -73c0 -79 -36 -109 -79 -109c-4 0 -7 2 -7 6zM608 0h-547c-8 0 -13 4 -13 12v51c0 8 4 12 13 12h76v568h-76c-8 0 -13 4 -13 12v51
c0 8 4 12 13 12h239c8 0 13 -5 13 -13v-49c0 -8 -5 -13 -13 -13h-76v-568h318v98c0 8 5 12 13 12h54c8 0 12 -4 12 -12v-160c0 -8 -5 -13 -13 -13z" />
    <glyph glyph-name="Lslash" unicode="&#x141;" horiz-adv-x="677" 
d="M616 0h-548c-8 0 -12 4 -12 12v51c0 8 4 12 12 12h77v189l-66 -66c-6 -6 -13 -6 -19 0l-20 21c-6 5 -6 13 0 19l105 104v301h-77c-8 0 -12 4 -12 12v51c0 8 4 12 12 12h239c8 0 14 -5 14 -13v-49c0 -8 -6 -13 -14 -13h-75v-214l111 112c6 5 13 5 19 0l20 -21
c6 -6 6 -14 0 -19l-150 -151v-275h318v98c0 8 4 12 12 12h55c8 0 12 -4 12 -12v-160c0 -8 -5 -13 -13 -13z" />
    <glyph glyph-name="Ldot" unicode="&#x13f;" horiz-adv-x="670" 
d="M309 199c-26 0 -45 19 -45 45c0 25 19 46 45 46c25 0 45 -21 45 -46c0 -26 -20 -45 -45 -45zM608 0h-547c-8 0 -13 4 -13 12v51c0 8 4 12 13 12h76v568h-76c-8 0 -13 4 -13 12v51c0 8 4 12 13 12h239c8 0 13 -5 13 -13v-49c0 -8 -5 -13 -13 -13h-76v-568h318v98
c0 8 5 12 13 12h54c8 0 12 -4 12 -12v-160c0 -8 -5 -13 -13 -13z" />
    <glyph glyph-name="Nacute" unicode="&#x143;" horiz-adv-x="820" 
d="M520 932l-168 -134c-7 -4 -14 -4 -19 3l-25 29c-5 6 -5 14 2 19l161 141c6 6 13 5 19 -1l31 -38c5 -6 5 -13 -1 -19zM670 0h-54c-28 0 -39 12 -51 31l-289 452c-29 44 -50 84 -50 84h-2v-492h77c8 0 13 -4 13 -12v-51c0 -8 -5 -12 -13 -12h-240c-8 0 -13 4 -13 12v51
c0 8 4 12 13 12h76v568h-76c-8 0 -13 4 -13 12v51c0 8 4 12 13 12h140c28 0 40 -17 51 -34l285 -446c32 -50 57 -97 57 -97h2v502h-77c-8 0 -12 4 -12 12v51c0 8 4 12 12 12h241c8 0 12 -4 12 -12v-51c0 -8 -4 -12 -12 -12h-77v-631c0 -8 -5 -12 -13 -12z" />
    <glyph glyph-name="Ncaron" unicode="&#x147;" horiz-adv-x="820" 
d="M578 939l-155 -135c-4 -4 -6 -5 -10 -5c-3 0 -7 1 -10 4l-155 136c-6 5 -6 13 -2 19l25 28c5 7 12 7 19 2l122 -105l124 105c7 5 14 5 19 -2l25 -28c4 -6 3 -13 -2 -19zM670 0h-54c-28 0 -39 12 -51 31l-289 452c-29 44 -50 84 -50 84h-2v-492h77c8 0 13 -4 13 -12v-51
c0 -8 -5 -12 -13 -12h-240c-8 0 -13 4 -13 12v51c0 8 4 12 13 12h76v568h-76c-8 0 -13 4 -13 12v51c0 8 4 12 13 12h140c28 0 40 -17 51 -34l285 -446c32 -50 57 -97 57 -97h2v502h-77c-8 0 -12 4 -12 12v51c0 8 4 12 12 12h241c8 0 12 -4 12 -12v-51c0 -8 -4 -12 -12 -12
h-77v-631c0 -8 -5 -12 -13 -12z" />
    <glyph glyph-name="Ncommaaccent" unicode="&#x145;" horiz-adv-x="820" 
d="M379 -222v17c0 4 3 6 7 6c18 0 41 15 41 53c0 8 -2 11 -2 11s-5 -5 -19 -5c-23 0 -43 19 -43 47c0 26 21 47 47 47c34 0 55 -27 55 -73c0 -79 -36 -109 -79 -109c-4 0 -7 2 -7 6zM670 0h-54c-28 0 -39 12 -51 31l-289 452c-29 44 -50 84 -50 84h-2v-492h77
c8 0 13 -4 13 -12v-51c0 -8 -5 -12 -13 -12h-240c-8 0 -13 4 -13 12v51c0 8 4 12 13 12h76v568h-76c-8 0 -13 4 -13 12v51c0 8 4 12 13 12h140c28 0 40 -17 51 -34l285 -446c32 -50 57 -97 57 -97h2v502h-77c-8 0 -12 4 -12 12v51c0 8 4 12 12 12h241c8 0 12 -4 12 -12v-51
c0 -8 -4 -12 -12 -12h-77v-631c0 -8 -5 -12 -13 -12z" />
    <glyph glyph-name="Ntilde" unicode="&#xd1;" horiz-adv-x="820" 
d="M670 0h-54c-28 0 -39 12 -51 31l-289 452c-29 44 -50 84 -50 84h-2v-492h77c8 0 13 -4 13 -12v-51c0 -8 -5 -12 -13 -12h-240c-8 0 -13 4 -13 12v51c0 8 4 12 13 12h76v568h-76c-8 0 -13 4 -13 12v51c0 8 4 12 13 12h140c28 0 40 -17 51 -34l285 -446
c32 -50 57 -97 57 -97h2v502h-77c-8 0 -12 4 -12 12v51c0 8 4 12 12 12h241c8 0 12 -4 12 -12v-51c0 -8 -4 -12 -12 -12h-77v-631c0 -8 -5 -12 -13 -12zM539 910h24c8 0 12 -4 12 -12c0 -71 -25 -113 -87 -113c-75 0 -92 63 -138 63c-27 0 -41 -12 -41 -57
c0 -8 -4 -12 -12 -12h-24c-8 0 -12 4 -12 12c0 66 27 108 86 108c69 0 90 -65 138 -66c31 0 42 15 42 65c0 8 4 12 12 12z" />
    <glyph glyph-name="Oacute" unicode="&#xd3;" horiz-adv-x="793" 
d="M499 932l-168 -134c-7 -4 -14 -4 -19 3l-25 29c-5 6 -5 14 2 19l161 141c6 6 13 5 19 -1l31 -38c5 -6 5 -13 -1 -19zM397 -7c-196 0 -349 150 -349 370c0 228 168 361 349 361s347 -133 347 -361c0 -224 -151 -370 -347 -370zM397 74c126 0 254 98 254 286
c0 192 -135 285 -254 285s-255 -93 -255 -285c0 -188 129 -286 255 -286z" />
    <glyph glyph-name="Obreve" unicode="&#x14e;" horiz-adv-x="793" 
d="M397 -7c-196 0 -349 150 -349 370c0 228 168 361 349 361s347 -133 347 -361c0 -224 -151 -370 -347 -370zM397 74c126 0 254 98 254 286c0 192 -135 285 -254 285s-255 -93 -255 -285c0 -188 129 -286 255 -286zM493 941h32c8 0 13 -5 13 -13c0 -92 -60 -139 -141 -139
c-80 0 -139 47 -139 139c0 8 5 13 13 13h32c8 0 13 -5 13 -13c0 -57 37 -88 81 -88c45 0 83 31 83 88c0 8 5 13 13 13z" />
    <glyph glyph-name="Ocircumflex" unicode="&#xd4;" horiz-adv-x="793" 
d="M563 830l-25 -29c-5 -6 -12 -7 -19 -2l-124 105l-122 -105c-6 -5 -14 -4 -19 2l-25 29c-4 6 -4 14 2 19l155 136c3 3 7 4 10 4c4 0 6 -1 10 -5l155 -135c5 -6 6 -13 2 -19zM397 -7c-196 0 -349 150 -349 370c0 228 168 361 349 361s347 -133 347 -361
c0 -224 -151 -370 -347 -370zM397 74c126 0 254 98 254 286c0 192 -135 285 -254 285s-255 -93 -255 -285c0 -188 129 -286 255 -286z" />
    <glyph glyph-name="Odieresis" unicode="&#xd6;" horiz-adv-x="793" 
d="M360 824c0 -24 -19 -42 -43 -42s-42 18 -42 42s18 43 42 43s43 -19 43 -43zM518 824c0 -24 -19 -42 -43 -42s-42 18 -42 42s18 43 42 43s43 -19 43 -43zM397 -7c-196 0 -349 150 -349 370c0 228 168 361 349 361s347 -133 347 -361c0 -224 -151 -370 -347 -370zM397 74
c126 0 254 98 254 286c0 192 -135 285 -254 285s-255 -93 -255 -285c0 -188 129 -286 255 -286z" />
    <glyph glyph-name="Ograve" unicode="&#xd2;" horiz-adv-x="793" 
d="M397 -7c-196 0 -349 150 -349 370c0 228 168 361 349 361s347 -133 347 -361c0 -224 -151 -370 -347 -370zM397 74c126 0 254 98 254 286c0 192 -135 285 -254 285s-255 -93 -255 -285c0 -188 129 -286 255 -286zM475 830l-25 -29c-6 -7 -13 -7 -19 -2l-168 134
c-6 5 -6 12 -2 19l32 37c5 6 13 7 19 2l161 -142c7 -5 7 -13 2 -19z" />
    <glyph glyph-name="Ohungarumlaut" unicode="&#x150;" horiz-adv-x="793" 
d="M478 941l-168 -134c-7 -4 -14 -4 -19 3l-25 29c-5 6 -5 14 2 19l161 141c5 6 13 5 19 -1l31 -38c5 -7 5 -14 -1 -19zM650 941l-168 -134c-6 -4 -13 -4 -19 3l-25 29c-5 6 -5 14 2 19l161 141c6 6 14 5 19 -1l32 -38c4 -7 4 -14 -2 -19zM397 -7c-196 0 -349 150 -349 370
c0 228 168 361 349 361s347 -133 347 -361c0 -224 -151 -370 -347 -370zM397 74c126 0 254 98 254 286c0 192 -135 285 -254 285s-255 -93 -255 -285c0 -188 129 -286 255 -286z" />
    <glyph glyph-name="Omacron" unicode="&#x14c;" horiz-adv-x="793" 
d="M546 780h-296c-8 0 -13 5 -13 13v42c0 8 5 14 13 14h296c8 0 13 -6 13 -14v-42c0 -8 -5 -13 -13 -13zM397 -7c-196 0 -349 150 -349 370c0 228 168 361 349 361s347 -133 347 -361c0 -224 -151 -370 -347 -370zM397 74c126 0 254 98 254 286c0 192 -135 285 -254 285
s-255 -93 -255 -285c0 -188 129 -286 255 -286z" />
    <glyph glyph-name="Oslash" unicode="&#xd8;" horiz-adv-x="793" 
d="M308 -51h-60c-7 0 -11 4 -9 12l18 60c-125 53 -209 178 -209 342c0 228 168 361 349 361c23 0 46 -3 68 -8l17 55c2 8 8 12 16 12h59c8 0 11 -4 9 -12l-23 -78c116 -51 201 -166 201 -330c0 -224 -151 -370 -347 -370c-22 0 -42 3 -62 8l-12 -40c-2 -8 -8 -12 -15 -12z
M282 107l160 529c-19 6 -37 8 -54 8c-115 -4 -246 -96 -246 -284c0 -130 63 -214 140 -253zM359 81c16 -4 33 -6 50 -6c119 6 242 101 242 285c0 126 -62 207 -134 246z" />
    <glyph glyph-name="Otilde" unicode="&#xd5;" horiz-adv-x="793" 
d="M397 -7c-196 0 -349 150 -349 370c0 228 168 361 349 361s347 -133 347 -361c0 -224 -151 -370 -347 -370zM397 74c126 0 254 98 254 286c0 192 -135 285 -254 285s-255 -93 -255 -285c0 -188 129 -286 255 -286zM524 910h24c8 0 12 -4 12 -12c0 -71 -25 -113 -87 -113
c-75 0 -92 63 -138 63c-27 0 -41 -12 -41 -57c0 -8 -4 -12 -12 -12h-24c-8 0 -12 4 -12 12c0 66 27 108 86 108c69 0 90 -65 138 -66c31 0 42 15 42 65c0 8 4 12 12 12z" />
    <glyph glyph-name="Sacute" unicode="&#x15a;" horiz-adv-x="666" 
d="M460 932l-168 -134c-7 -4 -14 -4 -19 3l-25 29c-5 6 -5 14 2 19l161 141c6 6 13 5 19 -1l31 -38c5 -6 5 -13 -1 -19zM117 0h-56c-9 0 -13 4 -13 12v234c0 8 5 13 13 13h63c7 0 12 -5 12 -13v-21c0 -15 53 -151 214 -151c102 0 164 44 164 121c0 165 -444 78 -444 335
c0 109 88 194 234 194c103 0 163 -35 198 -79l-2 62c0 8 5 12 13 12h56c8 0 12 -4 12 -12v-218c0 -8 -4 -12 -12 -12h-63c-8 0 -12 4 -12 12v28c0 41 -47 125 -181 125c-90 0 -147 -48 -147 -112c0 -174 452 -89 452 -335c0 -108 -74 -202 -251 -202
c-139 0 -213 75 -239 117l1 -98c0 -8 -4 -12 -12 -12z" />
    <glyph glyph-name="Scaron" unicode="&#x160;" horiz-adv-x="666" 
d="M500 939l-155 -135c-4 -4 -6 -5 -10 -5c-3 0 -7 1 -10 4l-155 136c-6 5 -6 13 -2 19l25 28c5 7 12 7 19 2l122 -105l124 105c7 5 14 5 19 -2l25 -28c4 -6 3 -13 -2 -19zM117 0h-56c-9 0 -13 4 -13 12v234c0 8 5 13 13 13h63c7 0 12 -5 12 -13v-21c0 -15 53 -151 214 -151
c102 0 164 44 164 121c0 165 -444 78 -444 335c0 109 88 194 234 194c103 0 163 -35 198 -79l-2 62c0 8 5 12 13 12h56c8 0 12 -4 12 -12v-218c0 -8 -4 -12 -12 -12h-63c-8 0 -12 4 -12 12v28c0 41 -47 125 -181 125c-90 0 -147 -48 -147 -112c0 -174 452 -89 452 -335
c0 -108 -74 -202 -251 -202c-139 0 -213 75 -239 117l1 -98c0 -8 -4 -12 -12 -12z" />
    <glyph glyph-name="Scedilla" unicode="&#x15e;" horiz-adv-x="666" 
d="M336 -156c-40 0 -66 19 -72 23c-5 3 -8 10 -3 16l10 12c6 6 12 6 17 3c6 -4 23 -13 44 -13c31 0 43 12 43 33c0 20 -16 26 -49 26c-18 0 -23 5 -19 17l12 35c-108 14 -168 77 -191 114l1 -98c0 -8 -4 -12 -12 -12h-56c-9 0 -13 4 -13 12v234c0 8 5 13 13 13h63
c7 0 12 -5 12 -13v-21c0 -15 53 -151 214 -151c102 0 164 44 164 121c0 165 -444 78 -444 335c0 109 88 194 234 194c103 0 163 -35 198 -79l-2 62c0 8 5 12 13 12h56c8 0 12 -4 12 -12v-218c0 -8 -4 -12 -12 -12h-63c-8 0 -12 4 -12 12v28c0 41 -47 125 -181 125
c-90 0 -147 -48 -147 -112c0 -174 452 -89 452 -335c0 -108 -74 -202 -251 -202h-7l-6 -18c6 0 70 1 70 -56c0 -46 -33 -75 -88 -75z" />
    <glyph glyph-name="Scircumflex" unicode="&#x15c;" horiz-adv-x="666" 
d="M499 830l-25 -29c-5 -6 -12 -7 -19 -2l-124 105l-122 -105c-6 -5 -14 -4 -19 2l-25 29c-4 6 -4 14 2 19l155 136c3 3 7 4 10 4c4 0 6 -1 10 -5l155 -135c5 -6 6 -13 2 -19zM117 0h-56c-9 0 -13 4 -13 12v234c0 8 5 13 13 13h63c7 0 12 -5 12 -13v-21
c0 -15 53 -151 214 -151c102 0 164 44 164 121c0 165 -444 78 -444 335c0 109 88 194 234 194c103 0 163 -35 198 -79l-2 62c0 8 5 12 13 12h56c8 0 12 -4 12 -12v-218c0 -8 -4 -12 -12 -12h-63c-8 0 -12 4 -12 12v28c0 41 -47 125 -181 125c-90 0 -147 -48 -147 -112
c0 -174 452 -89 452 -335c0 -108 -74 -202 -251 -202c-139 0 -213 75 -239 117l1 -98c0 -8 -4 -12 -12 -12z" />
    <glyph glyph-name="Scommaaccent" unicode="&#x218;" horiz-adv-x="666" 
d="M310 -222v17c0 4 3 6 7 6c18 0 41 15 41 53c0 8 -2 11 -2 11s-5 -5 -19 -5c-23 0 -43 19 -43 47c0 26 21 47 47 47c34 0 55 -27 55 -73c0 -79 -36 -109 -79 -109c-4 0 -7 2 -7 6zM117 0h-56c-9 0 -13 4 -13 12v234c0 8 5 13 13 13h63c7 0 12 -5 12 -13v-21
c0 -15 53 -151 214 -151c102 0 164 44 164 121c0 165 -444 78 -444 335c0 109 88 194 234 194c103 0 163 -35 198 -79l-2 62c0 8 5 12 13 12h56c8 0 12 -4 12 -12v-218c0 -8 -4 -12 -12 -12h-63c-8 0 -12 4 -12 12v28c0 41 -47 125 -181 125c-90 0 -147 -48 -147 -112
c0 -174 452 -89 452 -335c0 -108 -74 -202 -251 -202c-139 0 -213 75 -239 117l1 -98c0 -8 -4 -12 -12 -12z" />
    <glyph glyph-name="Tbar" unicode="&#x166;" horiz-adv-x="727" 
d="M478 0h-233c-8 0 -13 5 -13 13v49c0 8 5 13 13 13h76v325h-103c-8 0 -14 6 -14 14v42c0 8 6 13 14 13h103v174h-189v-106c0 -8 -6 -14 -14 -14h-56c-8 0 -14 6 -14 14v168c0 8 6 13 14 13h603c8 0 14 -5 14 -13v-168c0 -8 -6 -14 -14 -14h-57c-8 0 -13 6 -13 14v106h-187
v-174h105c8 0 13 -5 13 -13v-42c0 -8 -5 -14 -13 -14h-105v-325h70c8 0 14 -5 14 -13v-49c0 -8 -6 -13 -14 -13z" />
    <glyph glyph-name="Tcaron" unicode="&#x164;" horiz-adv-x="727" 
d="M507 939l-155 -135c-4 -4 -6 -5 -10 -5c-3 0 -7 1 -10 4l-155 136c-6 5 -6 13 -2 19l25 28c5 7 12 7 19 2l122 -105l124 105c7 5 14 5 19 -2l25 -28c4 -6 3 -13 -2 -19zM478 0h-233c-8 0 -13 5 -13 13v49c0 8 5 13 13 13h76v568h-189v-106c0 -8 -6 -14 -14 -14h-56
c-8 0 -14 6 -14 14v168c0 8 6 13 14 13h603c8 0 14 -5 14 -13v-168c0 -8 -6 -14 -14 -14h-57c-8 0 -13 6 -13 14v106h-187v-568h70c8 0 14 -5 14 -13v-49c0 -8 -6 -13 -14 -13z" />
    <glyph glyph-name="Tcommaaccent" unicode="&#x162;" horiz-adv-x="727" 
d="M330 -222v17c0 4 3 6 7 6c18 0 41 15 41 53c0 8 -2 11 -2 11s-5 -5 -19 -5c-23 0 -43 19 -43 47c0 26 21 47 47 47c34 0 55 -27 55 -73c0 -79 -36 -109 -79 -109c-4 0 -7 2 -7 6zM478 0h-233c-8 0 -13 5 -13 13v49c0 8 5 13 13 13h76v568h-189v-106c0 -8 -6 -14 -14 -14
h-56c-8 0 -14 6 -14 14v168c0 8 6 13 14 13h603c8 0 14 -5 14 -13v-168c0 -8 -6 -14 -14 -14h-57c-8 0 -13 6 -13 14v106h-187v-568h70c8 0 14 -5 14 -13v-49c0 -8 -6 -13 -14 -13z" />
    <glyph glyph-name="Uacute" unicode="&#xda;" horiz-adv-x="814" 
d="M545 932l-168 -134c-7 -4 -14 -4 -19 3l-25 29c-5 6 -5 14 2 19l161 141c6 6 13 5 19 -1l31 -38c5 -6 5 -13 -1 -19zM590 260v383h-77c-8 0 -12 4 -12 12v51c0 8 4 12 12 12h241c8 0 12 -4 12 -12v-51c0 -8 -4 -12 -12 -12h-77v-374c0 -183 -100 -276 -269 -276
c-170 0 -271 93 -271 276v374h-76c-8 0 -13 4 -13 12v51c0 8 4 12 13 12h240c8 0 13 -4 13 -12v-51c0 -8 -5 -12 -13 -12h-77v-377c0 -110 44 -192 184 -192c130 0 182 76 182 186z" />
    <glyph glyph-name="Ubreve" unicode="&#x16c;" horiz-adv-x="814" 
d="M590 260v383h-77c-8 0 -12 4 -12 12v51c0 8 4 12 12 12h241c8 0 12 -4 12 -12v-51c0 -8 -4 -12 -12 -12h-77v-374c0 -183 -100 -276 -269 -276c-170 0 -271 93 -271 276v374h-76c-8 0 -13 4 -13 12v51c0 8 4 12 13 12h240c8 0 13 -4 13 -12v-51c0 -8 -5 -12 -13 -12h-77
v-377c0 -110 44 -192 184 -192c130 0 182 76 182 186zM508 941h32c8 0 13 -5 13 -13c0 -92 -60 -139 -141 -139c-80 0 -139 47 -139 139c0 8 5 13 13 13h32c8 0 13 -5 13 -13c0 -57 37 -88 81 -88c45 0 83 31 83 88c0 8 5 13 13 13z" />
    <glyph glyph-name="Ucircumflex" unicode="&#xdb;" horiz-adv-x="814" 
d="M575 830l-25 -29c-5 -6 -12 -7 -19 -2l-124 105l-122 -105c-6 -5 -14 -4 -19 2l-25 29c-4 6 -4 14 2 19l155 136c3 3 7 4 10 4c4 0 6 -1 10 -5l155 -135c5 -6 6 -13 2 -19zM590 260v383h-77c-8 0 -12 4 -12 12v51c0 8 4 12 12 12h241c8 0 12 -4 12 -12v-51
c0 -8 -4 -12 -12 -12h-77v-374c0 -183 -100 -276 -269 -276c-170 0 -271 93 -271 276v374h-76c-8 0 -13 4 -13 12v51c0 8 4 12 13 12h240c8 0 13 -4 13 -12v-51c0 -8 -5 -12 -13 -12h-77v-377c0 -110 44 -192 184 -192c130 0 182 76 182 186z" />
    <glyph glyph-name="Udieresis" unicode="&#xdc;" horiz-adv-x="814" 
d="M370 824c0 -24 -19 -42 -43 -42s-42 18 -42 42s18 43 42 43s43 -19 43 -43zM528 824c0 -24 -19 -42 -43 -42s-42 18 -42 42s18 43 42 43s43 -19 43 -43zM590 260v383h-77c-8 0 -12 4 -12 12v51c0 8 4 12 12 12h241c8 0 12 -4 12 -12v-51c0 -8 -4 -12 -12 -12h-77v-374
c0 -183 -100 -276 -269 -276c-170 0 -271 93 -271 276v374h-76c-8 0 -13 4 -13 12v51c0 8 4 12 13 12h240c8 0 13 -4 13 -12v-51c0 -8 -5 -12 -13 -12h-77v-377c0 -110 44 -192 184 -192c130 0 182 76 182 186z" />
    <glyph glyph-name="Ugrave" unicode="&#xd9;" horiz-adv-x="814" 
d="M590 260v383h-77c-8 0 -12 4 -12 12v51c0 8 4 12 12 12h241c8 0 12 -4 12 -12v-51c0 -8 -4 -12 -12 -12h-77v-374c0 -183 -100 -276 -269 -276c-170 0 -271 93 -271 276v374h-76c-8 0 -13 4 -13 12v51c0 8 4 12 13 12h240c8 0 13 -4 13 -12v-51c0 -8 -5 -12 -13 -12h-77
v-377c0 -110 44 -192 184 -192c130 0 182 76 182 186zM516 830l-25 -29c-6 -7 -13 -7 -19 -2l-168 134c-6 5 -6 12 -2 19l32 37c5 6 13 7 19 2l161 -142c7 -5 7 -13 2 -19z" />
    <glyph glyph-name="Uhungarumlaut" unicode="&#x170;" horiz-adv-x="814" 
d="M590 260v383h-77c-8 0 -12 4 -12 12v51c0 8 4 12 12 12h241c8 0 12 -4 12 -12v-51c0 -8 -4 -12 -12 -12h-77v-374c0 -183 -100 -276 -269 -276c-170 0 -271 93 -271 276v374h-76c-8 0 -13 4 -13 12v51c0 8 4 12 13 12h240c8 0 13 -4 13 -12v-51c0 -8 -5 -12 -13 -12h-77
v-377c0 -110 44 -192 184 -192c130 0 182 76 182 186zM465 941l-168 -134c-7 -4 -14 -4 -19 3l-25 29c-5 6 -5 14 2 19l161 141c5 6 13 5 19 -1l31 -38c5 -7 5 -14 -1 -19zM637 941l-168 -134c-6 -4 -13 -4 -19 3l-25 29c-5 6 -5 14 2 19l161 141c6 6 14 5 19 -1l32 -38
c4 -7 4 -14 -2 -19z" />
    <glyph glyph-name="Umacron" unicode="&#x16a;" horiz-adv-x="814" 
d="M590 260v383h-77c-8 0 -12 4 -12 12v51c0 8 4 12 12 12h241c8 0 12 -4 12 -12v-51c0 -8 -4 -12 -12 -12h-77v-374c0 -183 -100 -276 -269 -276c-170 0 -271 93 -271 276v374h-76c-8 0 -13 4 -13 12v51c0 8 4 12 13 12h240c8 0 13 -4 13 -12v-51c0 -8 -5 -12 -13 -12h-77
v-377c0 -110 44 -192 184 -192c130 0 182 76 182 186zM550 780h-296c-8 0 -13 5 -13 13v42c0 8 5 14 13 14h296c8 0 13 -6 13 -14v-42c0 -8 -5 -13 -13 -13z" />
    <glyph glyph-name="Uogonek" unicode="&#x172;" horiz-adv-x="814" 
d="M590 260v383h-77c-8 0 -12 4 -12 12v51c0 8 4 12 12 12h241c8 0 12 -4 12 -12v-51c0 -8 -4 -12 -12 -12h-77v-374c0 -176 -92 -268 -248 -275c-24 -14 -58 -41 -58 -76c0 -21 15 -34 38 -34c16 0 30 5 39 10c7 4 14 5 18 -1l9 -13c5 -7 2 -14 -4 -17
c-7 -5 -33 -24 -73 -24c-48 0 -79 30 -79 73c0 42 30 69 56 82c-150 11 -238 104 -238 275v374h-76c-8 0 -13 4 -13 12v51c0 8 4 12 13 12h240c8 0 13 -4 13 -12v-51c0 -8 -5 -12 -13 -12h-77v-377c0 -110 44 -192 184 -192c130 0 182 76 182 186z" />
    <glyph glyph-name="Uring" unicode="&#x16e;" horiz-adv-x="814" 
d="M459 829c-16 -27 -51 -37 -78 -21s-37 52 -21 79s51 37 78 21s37 -52 21 -79zM436 849c6 15 -3 31 -18 36s-31 -2 -36 -18c-5 -15 3 -31 19 -36c15 -5 30 2 35 18zM590 260v383h-77c-8 0 -12 4 -12 12v51c0 8 4 12 12 12h241c8 0 12 -4 12 -12v-51c0 -8 -4 -12 -12 -12
h-77v-374c0 -183 -100 -276 -269 -276c-170 0 -271 93 -271 276v374h-76c-8 0 -13 4 -13 12v51c0 8 4 12 13 12h240c8 0 13 -4 13 -12v-51c0 -8 -5 -12 -13 -12h-77v-377c0 -110 44 -192 184 -192c130 0 182 76 182 186z" />
    <glyph glyph-name="Utilde" unicode="&#x168;" horiz-adv-x="814" 
d="M590 260v383h-77c-8 0 -12 4 -12 12v51c0 8 4 12 12 12h241c8 0 12 -4 12 -12v-51c0 -8 -4 -12 -12 -12h-77v-374c0 -183 -100 -276 -269 -276c-170 0 -271 93 -271 276v374h-76c-8 0 -13 4 -13 12v51c0 8 4 12 13 12h240c8 0 13 -4 13 -12v-51c0 -8 -5 -12 -13 -12h-77
v-377c0 -110 44 -192 184 -192c130 0 182 76 182 186zM540 910h24c8 0 12 -4 12 -12c0 -71 -25 -113 -87 -113c-75 0 -92 63 -138 63c-27 0 -41 -12 -41 -57c0 -8 -4 -12 -12 -12h-24c-8 0 -12 4 -12 12c0 66 27 108 86 108c69 0 90 -65 138 -66c31 0 42 15 42 65
c0 8 4 12 12 12z" />
    <glyph glyph-name="Wacute" unicode="&#x1e82;" horiz-adv-x="1093" 
d="M710 932l-168 -134c-7 -4 -14 -4 -19 3l-25 29c-5 6 -5 14 2 19l161 141c6 6 13 5 19 -1l31 -38c5 -6 5 -13 -1 -19zM748 0h-38c-26 0 -40 12 -47 40l-116 508h-3l-114 -508c-7 -28 -21 -40 -48 -40h-37c-27 0 -39 13 -48 40l-183 603h-63c-8 0 -13 4 -13 12v51
c0 8 5 12 13 12h225c8 0 13 -4 13 -12v-51c0 -8 -5 -12 -13 -12h-70l155 -537h6l139 612h80l140 -612h6l155 537h-71c-8 0 -12 4 -12 12v51c0 8 5 12 12 12h226c8 0 12 -4 12 -12v-51c0 -8 -4 -12 -12 -12h-64l-183 -603c-8 -27 -21 -40 -47 -40z" />
    <glyph glyph-name="Wcircumflex" unicode="&#x174;" horiz-adv-x="1093" 
d="M695 830l-25 -29c-5 -6 -12 -7 -19 -2l-124 105l-122 -105c-6 -5 -14 -4 -19 2l-25 29c-4 6 -4 14 2 19l155 136c3 3 7 4 10 4c4 0 6 -1 10 -5l155 -135c5 -6 6 -13 2 -19zM748 0h-38c-26 0 -40 12 -47 40l-116 508h-3l-114 -508c-7 -28 -21 -40 -48 -40h-37
c-27 0 -39 13 -48 40l-183 603h-63c-8 0 -13 4 -13 12v51c0 8 5 12 13 12h225c8 0 13 -4 13 -12v-51c0 -8 -5 -12 -13 -12h-70l155 -537h6l139 612h80l140 -612h6l155 537h-71c-8 0 -12 4 -12 12v51c0 8 5 12 12 12h226c8 0 12 -4 12 -12v-51c0 -8 -4 -12 -12 -12h-64
l-183 -603c-8 -27 -21 -40 -47 -40z" />
    <glyph glyph-name="Wdieresis" unicode="&#x1e84;" horiz-adv-x="1093" 
d="M508 824c0 -24 -19 -42 -43 -42s-42 18 -42 42s18 43 42 43s43 -19 43 -43zM666 824c0 -24 -19 -42 -43 -42s-42 18 -42 42s18 43 42 43s43 -19 43 -43zM748 0h-38c-26 0 -40 12 -47 40l-116 508h-3l-114 -508c-7 -28 -21 -40 -48 -40h-37c-27 0 -39 13 -48 40l-183 603
h-63c-8 0 -13 4 -13 12v51c0 8 5 12 13 12h225c8 0 13 -4 13 -12v-51c0 -8 -5 -12 -13 -12h-70l155 -537h6l139 612h80l140 -612h6l155 537h-71c-8 0 -12 4 -12 12v51c0 8 5 12 12 12h226c8 0 12 -4 12 -12v-51c0 -8 -4 -12 -12 -12h-64l-183 -603c-8 -27 -21 -40 -47 -40z
" />
    <glyph glyph-name="Wgrave" unicode="&#x1e80;" horiz-adv-x="1093" 
d="M748 0h-38c-26 0 -40 12 -47 40l-116 508h-3l-114 -508c-7 -28 -21 -40 -48 -40h-37c-27 0 -39 13 -48 40l-183 603h-63c-8 0 -13 4 -13 12v51c0 8 5 12 13 12h225c8 0 13 -4 13 -12v-51c0 -8 -5 -12 -13 -12h-70l155 -537h6l139 612h80l140 -612h6l155 537h-71
c-8 0 -12 4 -12 12v51c0 8 5 12 12 12h226c8 0 12 -4 12 -12v-51c0 -8 -4 -12 -12 -12h-64l-183 -603c-8 -27 -21 -40 -47 -40zM617 830l-25 -29c-6 -7 -13 -7 -19 -2l-168 134c-6 5 -6 12 -2 19l32 37c5 6 13 7 19 2l161 -142c7 -5 7 -13 2 -19z" />
    <glyph glyph-name="Yacute" unicode="&#xdd;" horiz-adv-x="759" 
d="M500 0h-241c-7 0 -12 4 -12 12v51c0 8 4 12 12 12h77v214c-3 4 -147 264 -207 354h-68c-9 0 -13 4 -13 12v51c0 8 5 12 13 12h225c8 0 12 -4 12 -12v-51c0 -8 -4 -12 -12 -12h-66l157 -278h6l156 278h-66c-8 0 -12 4 -12 12v51c0 8 4 12 12 12h226c7 0 12 -4 12 -12v-51
c0 -8 -4 -12 -12 -12h-69c-62 -90 -204 -350 -207 -353v-215h77c8 0 12 -4 12 -12v-51c0 -8 -4 -12 -12 -12zM488 932l-168 -134c-7 -4 -14 -4 -19 3l-25 29c-5 6 -5 14 2 19l161 141c6 6 13 5 19 -1l31 -38c5 -6 5 -13 -1 -19z" />
    <glyph glyph-name="Ycircumflex" unicode="&#x176;" horiz-adv-x="759" 
d="M500 0h-241c-7 0 -12 4 -12 12v51c0 8 4 12 12 12h77v214c-3 4 -147 264 -207 354h-68c-9 0 -13 4 -13 12v51c0 8 5 12 13 12h225c8 0 12 -4 12 -12v-51c0 -8 -4 -12 -12 -12h-66l157 -278h6l156 278h-66c-8 0 -12 4 -12 12v51c0 8 4 12 12 12h226c7 0 12 -4 12 -12v-51
c0 -8 -4 -12 -12 -12h-69c-62 -90 -204 -350 -207 -353v-215h77c8 0 12 -4 12 -12v-51c0 -8 -4 -12 -12 -12zM530 830l-25 -29c-5 -6 -12 -7 -19 -2l-124 105l-122 -105c-6 -5 -14 -4 -19 2l-25 29c-4 6 -4 14 2 19l155 136c3 3 7 4 10 4c4 0 6 -1 10 -5l155 -135
c5 -6 6 -13 2 -19z" />
    <glyph glyph-name="Ygrave" unicode="&#x1ef2;" horiz-adv-x="759" 
d="M500 0h-241c-7 0 -12 4 -12 12v51c0 8 4 12 12 12h77v214c-3 4 -147 264 -207 354h-68c-9 0 -13 4 -13 12v51c0 8 5 12 13 12h225c8 0 12 -4 12 -12v-51c0 -8 -4 -12 -12 -12h-66l157 -278h6l156 278h-66c-8 0 -12 4 -12 12v51c0 8 4 12 12 12h226c7 0 12 -4 12 -12v-51
c0 -8 -4 -12 -12 -12h-69c-62 -90 -204 -350 -207 -353v-215h77c8 0 12 -4 12 -12v-51c0 -8 -4 -12 -12 -12zM489 830l-25 -29c-6 -7 -13 -7 -19 -2l-168 134c-6 5 -6 12 -2 19l32 37c5 6 13 7 19 2l161 -142c7 -5 7 -13 2 -19z" />
    <glyph glyph-name="Ydieresis" unicode="&#x178;" horiz-adv-x="759" 
d="M500 0h-241c-7 0 -12 4 -12 12v51c0 8 4 12 12 12h77v214c-3 4 -147 264 -207 354h-68c-9 0 -13 4 -13 12v51c0 8 5 12 13 12h225c8 0 12 -4 12 -12v-51c0 -8 -4 -12 -12 -12h-66l157 -278h6l156 278h-66c-8 0 -12 4 -12 12v51c0 8 4 12 12 12h226c7 0 12 -4 12 -12v-51
c0 -8 -4 -12 -12 -12h-69c-62 -90 -204 -350 -207 -353v-215h77c8 0 12 -4 12 -12v-51c0 -8 -4 -12 -12 -12zM342 824c0 -24 -19 -42 -43 -42s-42 18 -42 42s18 43 42 43s43 -19 43 -43zM500 824c0 -24 -19 -42 -43 -42s-42 18 -42 42s18 43 42 43s43 -19 43 -43z" />
    <glyph glyph-name="Zacute" unicode="&#x179;" horiz-adv-x="641" 
d="M442 932l-168 -134c-7 -4 -14 -4 -19 3l-25 29c-5 6 -5 14 2 19l161 141c6 6 13 5 19 -1l31 -38c5 -6 5 -13 -1 -19zM580 0h-518c-8 0 -14 5 -14 13v43c0 9 11 23 20 34l406 553h-342v-81c0 -8 -6 -14 -14 -14h-56c-8 0 -14 6 -14 14v143c0 8 6 13 14 13h518
c8 0 13 -5 13 -13v-37c0 -13 -10 -29 -20 -41l-406 -552h343v81c0 8 5 14 13 14h57c8 0 13 -6 13 -14v-143c0 -8 -5 -13 -13 -13z" />
    <glyph glyph-name="Zcaron" unicode="&#x17d;" horiz-adv-x="641" 
d="M500 939l-155 -135c-4 -4 -6 -5 -10 -5c-3 0 -7 1 -10 4l-155 136c-6 5 -6 13 -2 19l25 28c5 7 12 7 19 2l122 -105l124 105c7 5 14 5 19 -2l25 -28c4 -6 3 -13 -2 -19zM580 0h-518c-8 0 -14 5 -14 13v43c0 9 11 23 20 34l406 553h-342v-81c0 -8 -6 -14 -14 -14h-56
c-8 0 -14 6 -14 14v143c0 8 6 13 14 13h518c8 0 13 -5 13 -13v-37c0 -13 -10 -29 -20 -41l-406 -552h343v81c0 8 5 14 13 14h57c8 0 13 -6 13 -14v-143c0 -8 -5 -13 -13 -13z" />
    <glyph glyph-name="Zdotaccent" unicode="&#x17b;" horiz-adv-x="641" 
d="M580 0h-518c-8 0 -14 5 -14 13v43c0 9 11 23 20 34l406 553h-342v-81c0 -8 -6 -14 -14 -14h-56c-8 0 -14 6 -14 14v143c0 8 6 13 14 13h518c8 0 13 -5 13 -13v-37c0 -13 -10 -29 -20 -41l-406 -552h343v81c0 8 5 14 13 14h57c8 0 13 -6 13 -14v-143c0 -8 -5 -13 -13 -13z
M387 844c0 -29 -23 -52 -52 -52s-52 23 -52 52s23 53 52 53s52 -24 52 -53z" />
    <glyph glyph-name="Racute" unicode="&#x154;" horiz-adv-x="715" 
d="M442 932l-168 -134c-7 -4 -14 -4 -19 3l-25 29c-5 6 -5 14 2 19l161 141c6 6 13 5 19 -1l31 -38c5 -6 5 -13 -1 -19zM655 0h-87c-29 0 -45 18 -60 48l-94 191c-14 30 -28 49 -63 50h-127v-214h90c8 0 12 -4 12 -12v-51c0 -8 -5 -12 -12 -12h-253c-8 0 -13 4 -13 12v51
c0 8 4 12 13 12h76v568h-76c-8 0 -13 4 -13 12v51c0 8 4 12 13 12h308c138 0 241 -74 241 -216c0 -104 -52 -171 -147 -196c17 -13 30 -35 47 -67l84 -164h61c8 0 12 -4 12 -12v-51c0 -8 -5 -12 -12 -12zM224 360h128c103 0 170 35 170 139c0 110 -79 144 -170 144h-128
v-283z" />
    <glyph glyph-name="Rcaron" unicode="&#x158;" horiz-adv-x="715" 
d="M497 939l-155 -135c-4 -4 -6 -5 -10 -5c-3 0 -7 1 -10 4l-155 136c-6 5 -6 13 -2 19l25 28c5 7 12 7 19 2l122 -105l124 105c7 5 14 5 19 -2l25 -28c4 -6 3 -13 -2 -19zM655 0h-87c-29 0 -45 18 -60 48l-94 191c-14 30 -28 49 -63 50h-127v-214h90c8 0 12 -4 12 -12v-51
c0 -8 -5 -12 -12 -12h-253c-8 0 -13 4 -13 12v51c0 8 4 12 13 12h76v568h-76c-8 0 -13 4 -13 12v51c0 8 4 12 13 12h308c138 0 241 -74 241 -216c0 -104 -52 -171 -147 -196c17 -13 30 -35 47 -67l84 -164h61c8 0 12 -4 12 -12v-51c0 -8 -5 -12 -12 -12zM224 360h128
c103 0 170 35 170 139c0 110 -79 144 -170 144h-128v-283z" />
    <glyph glyph-name="Rcommaaccent" unicode="&#x156;" horiz-adv-x="715" 
d="M310 -222v17c0 4 3 6 7 6c18 0 41 15 41 53c0 8 -2 11 -2 11s-5 -5 -19 -5c-23 0 -43 19 -43 47c0 26 21 47 47 47c34 0 55 -27 55 -73c0 -79 -36 -109 -79 -109c-4 0 -7 2 -7 6zM655 0h-87c-29 0 -45 18 -60 48l-94 191c-14 30 -28 49 -63 50h-127v-214h90
c8 0 12 -4 12 -12v-51c0 -8 -5 -12 -12 -12h-253c-8 0 -13 4 -13 12v51c0 8 4 12 13 12h76v568h-76c-8 0 -13 4 -13 12v51c0 8 4 12 13 12h308c138 0 241 -74 241 -216c0 -104 -52 -171 -147 -196c17 -13 30 -35 47 -67l84 -164h61c8 0 12 -4 12 -12v-51
c0 -8 -5 -12 -12 -12zM224 360h128c103 0 170 35 170 139c0 110 -79 144 -170 144h-128v-283z" />
    <glyph glyph-name="AEacute" unicode="&#x1fc;" horiz-adv-x="1044" 
d="M764 932l-168 -134c-7 -4 -14 -4 -19 3l-25 29c-5 6 -5 14 2 19l161 141c6 6 13 5 19 -1l31 -38c5 -6 5 -13 -1 -19zM984 0h-532c-8 0 -12 4 -12 12v51c0 8 4 12 12 12h77v245h-209l-104 -245h69c8 0 13 -4 13 -12v-51c0 -8 -5 -12 -13 -12h-224c-8 0 -13 4 -13 12v51
c0 8 4 12 13 12h67l242 568h-55c-7 0 -12 4 -12 12v51c0 8 4 12 12 12h669c7 0 12 -4 12 -12v-161c0 -8 -4 -13 -12 -13h-54c-8 0 -13 5 -13 13v98h-301v-248h253c8 0 12 -4 12 -12v-51c0 -8 -4 -12 -12 -12h-253v-245h301v98c0 8 4 12 12 12h55c8 0 12 -4 12 -12v-161
c0 -8 -5 -12 -12 -12zM529 395v248h-71l-108 -248h179z" />
    <glyph glyph-name="Oslashacute" unicode="&#x1fe;" horiz-adv-x="793" 
d="M308 -51h-60c-7 0 -11 4 -9 12l18 60c-125 53 -209 178 -209 342c0 228 168 361 349 361c23 0 46 -3 68 -8l17 55c2 8 8 12 16 12h59c8 0 11 -4 9 -12l-23 -78c116 -51 201 -166 201 -330c0 -224 -151 -370 -347 -370c-22 0 -42 3 -62 8l-12 -40c-2 -8 -8 -12 -15 -12z
M282 107l160 529c-19 6 -37 8 -54 8c-115 -4 -246 -96 -246 -284c0 -130 63 -214 140 -253zM359 81c16 -4 33 -6 50 -6c119 6 242 101 242 285c0 126 -62 207 -134 246zM566 936l-168 -134c-7 -4 -14 -4 -19 3l-25 29c-5 6 -5 14 2 19l161 141c6 6 13 5 19 -1l31 -38
c5 -6 5 -13 -1 -19z" />
    <glyph glyph-name="OE" unicode="&#x152;" horiz-adv-x="907" 
d="M847 0h-454c-194 0 -345 145 -345 363c0 226 164 354 344 355h455c7 0 12 -4 12 -12v-161c0 -8 -4 -13 -12 -13h-55c-8 0 -12 5 -12 13v98h-301v-248h253c8 0 12 -4 12 -12v-51c0 -8 -4 -12 -12 -12h-253v-245h301v98c0 8 4 12 12 12h55c8 0 12 -4 12 -12v-161
c0 -8 -5 -12 -12 -12zM392 79v560c-118 -3 -250 -90 -250 -279c0 -186 125 -279 250 -281z" />
    <glyph glyph-name="aeacute" unicode="&#x1fd;" horiz-adv-x="890" 
d="M604 706l-168 -134c-7 -4 -14 -4 -19 3l-25 29c-5 6 -5 14 2 19l161 141c6 6 13 5 19 -1l31 -38c5 -6 5 -13 -1 -19zM636 -8c-91 0 -170 42 -212 119c-29 -43 -99 -119 -222 -119c-93 0 -164 52 -164 139c0 114 110 159 268 159h84v13c0 95 -53 124 -130 124
c-106 0 -147 -46 -151 -46c-5 -2 -11 -2 -15 3l-28 35c-5 6 -4 11 2 16c5 6 60 64 195 64c90 0 154 -27 183 -95c41 61 109 94 180 94c144 0 225 -94 223 -249c0 -8 -6 -14 -14 -14h-360c5 -117 87 -173 166 -173c86 0 145 54 159 77c5 7 11 8 18 3l27 -27c7 -6 8 -12 4 -18
c-13 -22 -81 -105 -213 -105zM397 167c-4 16 -7 51 -7 69h-79c-104 0 -187 -19 -187 -94c0 -45 40 -79 103 -79c114 0 165 99 170 104zM477 290h289c-4 82 -52 142 -138 142c-69 0 -138 -45 -151 -142z" />
    <glyph glyph-name="oslashacute" unicode="&#x1ff;" horiz-adv-x="575" 
d="M177 -29h-42c-8 0 -12 5 -9 12l24 47c-68 42 -112 118 -112 218c0 158 111 251 250 251c31 0 63 -6 91 -17l7 15c3 8 9 13 17 13h42c8 0 12 -5 9 -13l-21 -40c63 -42 103 -114 103 -209c0 -156 -106 -255 -249 -255c-29 0 -57 5 -82 13l-12 -23c-4 -8 -9 -12 -16 -12z
M186 103l159 313c-18 8 -38 13 -57 13c-87 0 -166 -68 -166 -182c0 -65 26 -114 64 -144zM239 73c15 -7 33 -10 50 -10c89 0 164 71 164 184c0 60 -24 106 -57 136zM418 706l-168 -134c-7 -4 -14 -4 -19 3l-25 29c-5 6 -5 14 2 19l161 141c6 6 13 5 19 -1l31 -38
c5 -6 5 -13 -1 -19z" />
    <glyph glyph-name="cent" unicode="&#xa2;" horiz-adv-x="539" 
d="M300 -13h-44c-7 0 -12 4 -12 12v54c-116 15 -206 106 -206 252c0 147 97 234 206 248v71c0 8 5 12 13 12h43c8 0 12 -4 12 -12v-73c65 -9 106 -40 123 -70h3l-3 56c0 8 5 12 13 12h38c8 0 12 -4 12 -12v-170c0 -8 -5 -12 -12 -12h-46c-7 0 -12 4 -12 12v17
c-1 42 -55 101 -142 101c-75 0 -164 -62 -164 -181s84 -184 167 -184c86 0 145 54 159 78c4 6 11 8 17 3l29 -29c7 -5 7 -11 3 -18c-12 -21 -72 -93 -185 -103v-52c0 -8 -5 -12 -12 -12z" />
    <glyph glyph-name="dollar" unicode="$" horiz-adv-x="646" 
d="M361 -86h-54c-8 0 -12 4 -12 12v75c-99 14 -153 70 -176 109h-2l2 -67c1 -8 -4 -12 -12 -12h-56c-8 0 -13 4 -13 12v188c0 8 5 12 13 12h63c7 0 12 -4 12 -12v-6c1 -18 55 -151 214 -151c102 0 164 44 164 121c0 176 -444 78 -444 335c0 106 83 189 223 194v69
c0 8 4 12 12 12h54c8 0 12 -4 12 -12v-79c66 -9 106 -37 131 -69l-2 39c0 8 5 12 13 12h56c8 0 12 -4 12 -12v-181c0 -8 -4 -12 -12 -12h-63c-8 0 -12 4 -12 12v13c-3 42 -46 126 -181 126c-90 0 -147 -48 -147 -112c0 -187 452 -89 452 -335c0 -105 -69 -195 -235 -201v-68
c0 -8 -4 -12 -12 -12z" />
    <glyph glyph-name="Euro" unicode="&#x20ac;" horiz-adv-x="716" 
d="M637 121l36 -43c5 -6 6 -13 0 -18c-46 -37 -113 -67 -218 -67c-155 0 -282 96 -324 254h-80c-8 0 -13 4 -13 12v37c0 8 5 12 13 12h68c-2 14 -3 37 -3 53c0 12 1 29 2 40h-67c-8 0 -13 4 -13 12v36c0 8 5 13 13 13h76c37 166 172 262 322 262c103 0 172 -46 199 -63
c6 -5 6 -11 2 -17l-34 -42c-4 -5 -11 -7 -17 -2c-25 18 -72 42 -146 42c-93 0 -196 -57 -229 -180h264c8 0 13 -5 13 -13v-36c0 -8 -5 -12 -13 -12h-277c-2 -12 -2 -28 -2 -41c0 -19 1 -36 3 -52h218c8 0 13 -4 13 -12v-37c0 -8 -5 -12 -13 -12h-199
c36 -116 133 -170 227 -170c72 0 122 16 162 44c6 4 12 6 17 0z" />
    <glyph glyph-name="florin" unicode="&#x192;" horiz-adv-x="507" 
d="M223 -62v488h-58c-7 0 -12 4 -12 12v43c0 8 4 12 12 12h58v61c0 113 61 170 161 170c59 0 92 -32 101 -40c7 -6 8 -11 3 -17l-24 -31c-5 -5 -11 -7 -17 -2c-5 4 -25 19 -55 19c-54 0 -86 -34 -86 -100v-60h128c8 0 12 -4 12 -12v-43c0 -8 -4 -12 -12 -12h-128v-489
c0 -113 -60 -171 -160 -171c-60 0 -93 32 -101 40c-7 6 -8 12 -3 18l24 30c5 6 11 8 17 2c5 -4 25 -18 55 -18c54 0 85 33 85 100z" />
    <glyph glyph-name="eng" unicode="&#x14b;" horiz-adv-x="552" 
d="M432 -63v368c0 75 -36 122 -110 122c-101 0 -132 -84 -133 -85v-275h53c8 0 13 -4 13 -12v-43c0 -8 -5 -12 -13 -12h-191c-8 0 -13 4 -13 12v43c0 8 5 12 13 12h55v358h-55c-8 0 -13 4 -13 12v43c0 8 5 12 13 12h98c22 0 32 -6 32 -30l-2 -50h3c12 20 53 87 161 87
s170 -69 171 -174v-389c1 -113 -61 -170 -160 -170c-60 0 -92 31 -101 39c-7 6 -7 13 -2 19l23 30c5 5 12 7 18 2c5 -4 23 -19 54 -19c54 0 86 34 86 100z" />
    <glyph glyph-name="Eng" unicode="&#x14a;" horiz-adv-x="801" 
d="M375 -219v50c0 8 4 13 12 13c150 0 199 50 199 155v4c-15 5 -23 14 -31 28l-289 452c-28 44 -50 84 -50 84h-2v-492h77c8 0 13 -4 13 -12v-51c0 -8 -5 -12 -13 -12h-240c-8 0 -13 4 -13 12v51c0 8 5 12 13 12h76v568h-76c-8 0 -13 4 -13 12v51c0 8 5 12 13 12h140
c28 0 41 -17 51 -34l285 -446c32 -50 57 -97 57 -97h2v502h-77c-7 0 -12 4 -12 12v51c0 8 4 12 12 12h241c8 0 12 -4 12 -12v-51c0 -8 -4 -12 -12 -12h-77v-629c-1 -163 -81 -246 -286 -246c-8 0 -12 5 -12 13z" />
    <glyph glyph-name="Thorn" unicode="&#xde;" horiz-adv-x="626" 
d="M296 0h-245c-8 0 -13 4 -13 12v45c0 8 5 12 13 12h70v580h-68c-8 0 -13 4 -13 12v45c0 8 5 12 13 12h139c9 0 13 -4 13 -12l-1 -122h143c140 0 240 -74 240 -215c0 -137 -88 -210 -251 -210h-134v-90h94c9 0 13 -4 13 -12v-45c0 -8 -5 -12 -13 -12zM203 230h141
c92 0 156 38 156 139c0 102 -74 140 -156 140h-141v-279z" />
    <glyph glyph-name="bullet" unicode="&#x2022;" horiz-adv-x="263" 
d="M131 239c-60 0 -93 37 -93 96c0 57 33 97 93 97c57 0 94 -40 94 -97c0 -59 -37 -96 -94 -96z" />
    <glyph glyph-name="question" unicode="?" horiz-adv-x="582" 
d="M303 127h-69c-9 0 -13 4 -13 12c0 229 232 233 232 374c0 78 -61 131 -164 131c-114 0 -162 -64 -163 -145c0 -8 -5 -12 -12 -12h-63c-8 0 -13 4 -13 12c0 112 68 225 251 225c165 0 255 -91 255 -204c0 -205 -228 -193 -228 -381c0 -8 -5 -12 -13 -12zM322 4
c0 -30 -23 -53 -53 -53c-29 0 -53 23 -53 53s24 53 53 53c30 0 53 -23 53 -53z" />
    <glyph glyph-name="fraction" unicode="&#x2044;" horiz-adv-x="405" 
d="M108 -74h-60c-7 0 -11 4 -9 12l242 810c3 8 9 12 17 12h59c8 0 11 -4 8 -12l-242 -810c-2 -8 -8 -12 -15 -12z" />
    <glyph glyph-name="thorn" unicode="&#xfe;" 
d="M252 -226h-201c-8 0 -13 5 -13 13v42c0 8 5 13 13 13h56v808h-54c-8 0 -13 4 -13 12v43c0 8 5 12 13 12h124c8 0 13 -4 13 -12v-298c27 53 81 92 159 92c133 0 225 -98 225 -252c0 -148 -87 -254 -224 -254c-89 0 -142 50 -163 98h-2s2 -22 2 -36v-213h65
c8 0 13 -5 13 -13v-42c0 -8 -5 -13 -13 -13zM338 63c88 0 154 72 154 182c0 114 -67 184 -154 184c-84 0 -153 -66 -153 -183c0 -114 68 -183 153 -183z" />
    <glyph glyph-name="yen" unicode="&#xa5;" horiz-adv-x="759" 
d="M500 0h-241c-7 0 -12 4 -12 12v51c0 8 4 12 12 12h77v140h-125c-7 0 -12 5 -12 13v39c0 8 4 12 12 12h113v26l-29 50h-124c-8 0 -13 5 -13 13v39c0 8 5 12 13 12h84l-126 224h-68c-9 0 -13 4 -13 12v51c0 8 5 12 13 12h225c8 0 12 -4 12 -12v-51c0 -8 -4 -12 -12 -12h-66
l157 -278h6l156 278h-66c-8 0 -12 4 -12 12v51c0 8 4 12 12 12h226c7 0 12 -4 12 -12v-51c0 -8 -4 -12 -12 -12h-69l-126 -224h80c8 0 12 -4 12 -12v-39c0 -8 -4 -13 -12 -13h-121l-30 -50v-26h109c8 0 12 -4 12 -12v-39c0 -8 -4 -13 -12 -13h-119v-140h77c8 0 12 -4 12 -12
v-51c0 -8 -4 -12 -12 -12z" />
    <glyph glyph-name="sterling" unicode="&#xa3;" horiz-adv-x="598" 
d="M548 0h-488c-7 0 -12 4 -12 12v48c0 12 3 17 11 22c23 17 112 64 112 154c0 23 -5 42 -12 60h-108c-8 0 -13 4 -13 12v37c0 8 5 12 13 12h73c-23 39 -45 79 -45 143c0 137 106 224 253 224c136 0 224 -78 224 -206v-16c0 -8 -5 -12 -13 -12h-61c-8 0 -13 4 -13 12v17
c0 72 -52 127 -137 127c-84 0 -162 -43 -162 -152c0 -58 28 -94 54 -137h190c8 0 13 -4 13 -12v-37c0 -8 -5 -12 -13 -12h-161c5 -17 9 -38 9 -58c0 -69 -49 -129 -91 -163h377c8 0 12 -4 12 -12v-51c0 -8 -5 -12 -12 -12z" />
    <glyph glyph-name="germandbls" unicode="&#xdf;" horiz-adv-x="697" 
d="M232 0h-181c-8 0 -13 4 -13 12v45c0 8 5 12 13 12h57v413c0 153 101 242 221 242s174 -64 174 -136c0 -114 -126 -102 -126 -200c0 -116 282 -66 282 -251c0 -86 -90 -149 -200 -149c-164 0 -199 126 -206 144c-4 7 -2 13 6 17l35 16c8 3 14 2 17 -6
c4 -5 32 -102 141 -102c67 0 119 36 119 82c0 128 -276 70 -276 244c0 121 124 115 124 191c0 39 -25 75 -91 75c-69 0 -136 -58 -136 -167v-413h40c8 0 12 -4 12 -12v-45c0 -8 -5 -12 -12 -12z" />
    <glyph glyph-name="section" unicode="&#xa7;" horiz-adv-x="646" 
d="M107 -224h-56c-8 0 -13 4 -13 12v234c0 8 5 12 13 12h63c7 0 12 -4 12 -12v-22c1 -18 55 -150 214 -150c102 0 164 43 164 121c0 176 -444 78 -444 335c0 43 13 82 39 114c-24 27 -39 62 -39 110c0 109 88 194 234 194c103 0 163 -35 198 -79l-2 62c0 8 5 12 13 12h56
c8 0 12 -4 12 -12v-218c0 -8 -4 -12 -12 -12h-63c-8 0 -12 4 -12 12v25c0 40 -43 128 -181 128c-90 0 -147 -48 -147 -112c0 -187 452 -89 452 -335c0 -45 -12 -87 -40 -120c25 -26 40 -59 40 -104c0 -108 -74 -202 -251 -202c-139 0 -213 75 -238 116h-2l2 -97
c1 -8 -4 -12 -12 -12zM480 124c16 19 24 42 24 71c0 122 -206 108 -324 174c-16 -18 -24 -39 -24 -63c0 -128 206 -119 324 -182z" />
    <glyph glyph-name="questiondown" unicode="&#xbf;" horiz-adv-x="582" 
d="M468 -37h63c8 0 13 -4 13 -12c0 -112 -69 -225 -251 -225c-165 0 -255 91 -255 204c0 205 228 193 228 381c0 8 5 12 13 12h69c8 0 13 -4 13 -12c0 -229 -232 -233 -232 -374c0 -77 61 -131 164 -131c114 0 162 64 163 145c0 8 5 12 12 12zM366 446
c0 -30 -24 -53 -53 -53c-30 0 -53 23 -53 53s23 53 53 53c29 0 53 -23 53 -53z" />
    <glyph glyph-name="paragraph" unicode="&#xb6;" horiz-adv-x="663" 
d="M557 -78h-63c-7 0 -12 4 -12 12v709h-72v-709c0 -8 -4 -12 -12 -12h-62c-8 0 -13 4 -13 12v302h-40c-144 0 -245 73 -245 237s101 245 235 245h340c8 0 12 -4 12 -12v-51c0 -8 -5 -12 -12 -12h-44v-709c0 -8 -5 -12 -12 -12z" />
    <glyph glyph-name="quotesinglbase" unicode="&#x201a;" horiz-adv-x="179" 
d="M55 -90v17c0 4 3 6 6 6c18 0 41 15 41 53c0 9 -2 12 -2 12s-5 -5 -19 -5c-23 0 -43 18 -43 46c0 27 21 47 47 47c35 0 56 -26 56 -73c0 -79 -37 -108 -80 -108c-3 0 -6 2 -6 5z" />
    <glyph glyph-name="quotedblbase" unicode="&#x201e;" horiz-adv-x="330" 
d="M55 -90v17c0 4 3 6 6 6c18 0 41 15 41 53c0 9 -2 12 -2 12s-5 -5 -19 -5c-23 0 -43 18 -43 46c0 27 21 47 47 47c35 0 56 -26 56 -73c0 -79 -37 -108 -80 -108c-3 0 -6 2 -6 5zM205 -90v17c0 4 3 6 7 6c18 0 41 15 41 53c0 9 -2 12 -2 12s-5 -5 -19 -5
c-23 0 -43 18 -43 46c0 27 21 47 47 47c34 0 55 -26 55 -73c0 -79 -36 -108 -79 -108c-4 0 -7 2 -7 5z" />
    <glyph glyph-name="multiply" unicode="&#xd7;" horiz-adv-x="352" 
d="M308 203l-40 -40c-5 -5 -11 -5 -17 0l-75 75l-77 -78c-6 -5 -13 -5 -19 0l-36 36c-5 6 -5 14 0 20l77 77l-78 78c-6 6 -6 12 0 18l40 40c5 6 11 6 17 0l78 -80l77 77c5 6 12 6 18 0l36 -36c5 -6 5 -14 0 -19l-76 -76l75 -74c5 -6 5 -12 0 -18z" />
    <glyph glyph-name="plusminus" unicode="&#xb1;" horiz-adv-x="401" 
d="M349 329h-106v-107c0 -8 -5 -13 -12 -13h-58c-7 0 -12 5 -12 13v107h-109c-8 0 -14 5 -14 13v51c0 8 6 13 14 13h109v110c0 8 4 12 12 12h58c8 0 12 -4 12 -12v-110h106c8 0 13 -5 13 -13v-51c0 -8 -5 -13 -13 -13zM349 91h-297c-8 0 -14 5 -14 13v51c0 8 6 13 14 13h297
c8 0 13 -5 13 -13v-51c0 -8 -5 -13 -13 -13z" />
    <glyph glyph-name="percent" unicode="%" horiz-adv-x="753" 
d="M183 359c-92 0 -145 75 -145 185c0 104 55 180 145 180c91 0 144 -76 144 -180c0 -110 -52 -185 -144 -185zM183 414c53 0 85 46 85 128s-31 127 -85 127s-85 -46 -85 -127s32 -128 85 -128zM571 -7c-92 0 -145 75 -145 185c0 104 54 180 145 180c90 0 144 -76 144 -180
c0 -110 -52 -185 -144 -185zM571 48c53 0 84 46 84 128s-31 127 -84 127c-54 0 -85 -46 -85 -127s31 -128 85 -128zM276 -74h-60c-7 0 -11 4 -9 12l243 810c2 8 8 12 16 12h59c8 0 11 -4 9 -12l-243 -810c-2 -8 -8 -12 -15 -12z" />
    <glyph glyph-name="perthousand" unicode="&#x2030;" horiz-adv-x="1085" 
d="M183 359c-92 0 -145 75 -145 185c0 104 55 180 145 180c91 0 144 -76 144 -180c0 -110 -52 -185 -144 -185zM183 414c53 0 85 46 85 128s-31 127 -85 127s-85 -46 -85 -127s32 -128 85 -128zM571 -7c-92 0 -145 75 -145 185c0 104 54 180 145 180c90 0 144 -76 144 -180
c0 -110 -52 -185 -144 -185zM571 48c53 0 84 46 84 128s-31 127 -84 127c-54 0 -85 -46 -85 -127s31 -128 85 -128zM903 -7c-92 0 -145 75 -145 185c0 104 54 180 145 180c90 0 144 -76 144 -180c0 -110 -52 -185 -144 -185zM903 48c53 0 84 46 84 128s-31 127 -84 127
c-54 0 -86 -46 -86 -127s32 -128 86 -128zM276 -74h-60c-7 0 -11 4 -9 12l242 810c3 8 9 12 17 12h59c8 0 11 -4 8 -12l-242 -810c-2 -8 -8 -12 -15 -12z" />
    <glyph glyph-name="dotlessi" unicode="&#x131;" horiz-adv-x="293" 
d="M242 0h-191c-8 0 -13 4 -13 12v43c0 8 5 12 13 12h55v358h-55c-8 0 -13 4 -13 12v43c0 8 5 12 13 12h126c8 0 12 -4 12 -12v-413h53c8 0 13 -4 13 -12v-43c0 -8 -5 -12 -13 -12z" />
    <glyph glyph-name="trademark" unicode="&#x2122;" horiz-adv-x="1035" 
d="M313 288h-155c-5 0 -8 3 -8 8v38c0 5 3 8 8 8h46v322h-111v-54c0 -5 -3 -8 -8 -8h-38c-5 0 -9 3 -9 8v101c0 4 4 7 9 7h376c5 0 8 -3 8 -7v-101c0 -5 -3 -8 -8 -8h-39c-4 0 -8 3 -8 8v54h-108v-322h45c4 0 8 -3 8 -8v-38c0 -5 -4 -8 -8 -8zM989 288h-145c-4 0 -7 3 -7 7
v40c0 4 3 7 7 7h39v287h-1l-112 -280c-5 -13 -14 -19 -27 -19c-12 0 -21 6 -25 19l-112 280h-2v-287h39c5 0 7 -3 7 -7v-40c0 -4 -3 -7 -7 -7h-144c-4 0 -7 3 -7 7v40c0 4 3 7 7 7h44v322h-44c-4 0 -7 3 -7 7v40c0 5 3 7 7 7h103c15 0 24 -7 29 -20l87 -214
c10 -26 25 -72 25 -72h2s14 44 25 72l86 214c5 13 14 20 29 20h104c5 0 8 -2 8 -7v-40c0 -4 -3 -7 -8 -7h-44v-322h44c5 0 8 -3 8 -7v-40c0 -4 -3 -7 -8 -7z" />
    <glyph glyph-name="divide" unicode="&#xf7;" horiz-adv-x="414" 
d="M363 221h-311c-8 0 -14 5 -14 13v51c0 8 6 13 14 13h311c8 0 13 -5 13 -13v-51c0 -8 -5 -13 -13 -13zM249 138c0 -23 -18 -41 -41 -41s-42 18 -42 41c0 24 19 42 42 42s41 -18 41 -42zM249 387c0 -23 -18 -42 -41 -42s-42 19 -42 42s19 41 42 41s41 -18 41 -41z" />
    <glyph glyph-name="notequal" unicode="&#x2260;" horiz-adv-x="423" 
d="M372 100h-181l-14 -47c-2 -8 -8 -12 -15 -12h-41c-7 0 -11 4 -9 12l14 47h-74c-8 0 -14 5 -14 13v51c0 8 6 13 14 13h97l48 158h-145c-8 0 -14 6 -14 14v50c0 8 6 14 14 14h168l20 66c3 8 9 12 17 12h40c8 0 11 -4 8 -12l-20 -66h87c8 0 13 -6 13 -14v-50
c0 -8 -5 -14 -13 -14h-110l-48 -158h158c8 0 13 -5 13 -13v-51c0 -8 -5 -13 -13 -13z" />
    <glyph glyph-name="onehalf" unicode="&#xbd;" horiz-adv-x="703" 
d="M238 -74h-59c-8 0 -11 4 -9 12l242 810c3 8 9 12 17 12h59c8 0 11 -4 8 -12l-242 -810c-2 -8 -8 -12 -16 -12zM655 0h-243c-6 0 -10 3 -10 10v21c1 147 200 119 200 221c0 38 -26 59 -67 59c-49 0 -76 -22 -76 -62c0 -6 -3 -8 -7 -8h-39c-5 0 -8 3 -8 8
c0 56 39 113 130 113c83 0 124 -50 124 -107c0 -132 -187 -120 -196 -207h151v35c0 6 3 8 8 8h35c6 0 8 -3 8 -8v-73c0 -7 -4 -10 -10 -10zM262 362h-191c-6 0 -9 3 -9 10v29c0 6 3 9 9 9h73v250l-73 -55c-3 -2 -7 -3 -10 1l-21 28c-2 3 -2 6 3 10l97 74c3 2 7 3 13 3h39
c6 0 8 -4 8 -9v-302h62c6 0 10 -3 10 -9v-29c0 -7 -4 -10 -10 -10z" />
    <glyph glyph-name="onethird" unicode="&#x2153;" horiz-adv-x="698" 
d="M238 -74h-59c-8 0 -11 4 -9 12l242 810c3 8 9 12 17 12h59c8 0 11 -4 8 -12l-242 -810c-2 -8 -8 -12 -16 -12zM527 -4c-83 0 -115 50 -122 58c-3 3 -3 6 0 8l26 24c3 3 5 3 8 0c15 -15 37 -40 88 -40c52 0 76 21 76 58c0 38 -27 60 -75 60h-18c-5 0 -8 2 -8 7v29
c0 5 3 7 8 7h14c28 0 68 13 68 54c0 29 -21 49 -63 49c-36 0 -59 -21 -59 -45c0 -5 -2 -8 -6 -8h-39c-4 0 -6 3 -6 8c0 57 43 96 110 96c86 0 119 -53 119 -95c0 -50 -43 -76 -58 -78c18 -3 69 -23 69 -90c0 -61 -53 -102 -132 -102zM262 362h-191c-6 0 -9 3 -9 10v29
c0 6 3 9 9 9h73v250l-73 -55c-3 -2 -7 -3 -10 1l-21 28c-2 3 -2 6 3 10l97 74c3 2 7 3 13 3h39c6 0 8 -4 8 -9v-302h62c6 0 10 -3 10 -9v-29c0 -7 -4 -10 -10 -10z" />
    <glyph glyph-name="eth" unicode="&#xf0;" horiz-adv-x="611" 
d="M397 602l-48 -49c-5 -5 -13 -5 -18 0l-20 21c-6 5 -6 13 0 19l40 40c-19 7 -41 12 -65 12c-98 0 -136 -65 -136 -110c0 -8 -5 -12 -12 -12h-61c-8 0 -12 4 -12 12c0 112 86 189 220 189c48 0 91 -10 128 -29l48 49c6 5 13 5 19 0l20 -21c5 -5 5 -13 0 -19l-40 -40
c76 -61 113 -174 113 -311c0 -214 -96 -360 -274 -360c-161 0 -260 102 -260 238c0 137 84 231 246 231c94 0 157 -29 192 -51c-5 89 -32 155 -80 191zM481 339c-25 17 -85 55 -178 55c-109 0 -174 -64 -174 -159c0 -94 63 -161 171 -161c113 0 178 96 181 265z" />
    <glyph glyph-name="logicalnot" unicode="&#xac;" horiz-adv-x="565" 
d="M514 141h-46c-8 0 -13 4 -13 12v171h-403c-8 0 -14 5 -14 13v43c0 8 6 13 14 13h461c8 0 13 -5 13 -13v-227c0 -8 -4 -12 -12 -12z" />
    <glyph glyph-name="degree" unicode="&#xb0;" horiz-adv-x="220" 
d="M110 419c-38 0 -72 25 -72 77c0 43 32 75 72 75s72 -32 72 -75c0 -52 -34 -77 -72 -77zM110 457c17 0 34 13 34 39c0 22 -16 37 -34 37s-34 -15 -34 -37c0 -26 17 -39 34 -39z" />
    <glyph glyph-name="approxequal" unicode="&#x2248;" horiz-adv-x="391" 
d="M317 441h23c8 0 13 -4 13 -12c0 -71 -26 -113 -88 -113c-74 0 -91 66 -137 66c-27 0 -41 -15 -41 -60c0 -8 -5 -12 -13 -12h-23c-8 0 -13 4 -13 12c0 67 27 108 86 108c70 0 90 -66 138 -67c31 0 42 16 42 66c0 8 5 12 13 12zM317 285h23c8 0 13 -4 13 -12
c0 -71 -26 -113 -88 -113c-74 0 -91 66 -137 66c-27 0 -41 -15 -41 -60c0 -8 -5 -12 -13 -12h-23c-8 0 -13 4 -13 12c0 66 27 108 86 108c70 0 90 -67 138 -67c31 0 42 16 42 66c0 8 5 12 13 12z" />
    <glyph glyph-name="copyright" unicode="&#xa9;" horiz-adv-x="670" 
d="M632 348c0 -161 -136 -297 -297 -297s-297 136 -297 297s136 297 297 297s297 -136 297 -297zM580 348c0 135 -110 244 -245 244s-244 -109 -244 -244s109 -244 244 -244s245 109 245 244zM441 283l28 -18c5 -4 6 -8 3 -12c-10 -19 -50 -78 -139 -78s-165 65 -165 176
s76 176 165 176s129 -59 139 -78c3 -4 2 -8 -2 -12l-29 -20c-5 -3 -8 -3 -11 2c-13 23 -39 52 -97 52c-55 0 -106 -38 -106 -119c0 -82 51 -121 108 -121c62 0 84 30 95 49c3 5 7 6 11 3z" />
    <glyph glyph-name="registered" unicode="&#xae;" horiz-adv-x="670" 
d="M632 348c0 -161 -136 -297 -297 -297s-297 136 -297 297s136 297 297 297s297 -136 297 -297zM335 100c137 0 248 111 248 248s-111 248 -248 248s-248 -111 -248 -248s111 -248 248 -248zM480 179h-46c-13 0 -19 10 -25 22l-51 99c-8 15 -13 22 -26 22h-52v-97h37
c4 0 6 -2 6 -5v-35c0 -4 -2 -6 -6 -6h-117c-3 0 -5 2 -5 6v35c0 3 2 5 5 5h31v255h-31c-3 0 -5 2 -5 6v35c0 3 2 5 5 5h148c65 0 114 -32 114 -103c0 -50 -25 -83 -69 -95c6 -6 11 -18 18 -30l37 -72h32c3 0 5 -2 5 -5v-36c0 -4 -2 -6 -5 -6zM280 365h65c45 0 67 19 67 57
s-26 58 -67 58h-65v-115z" />
    <glyph glyph-name="ordfeminine" unicode="&#xaa;" horiz-adv-x="328" 
d="M125 471c-47 0 -87 26 -87 75c0 48 40 73 111 73h59v3c0 37 -8 60 -59 60c-47 0 -67 -21 -69 -21c-2 -1 -5 -1 -7 2l-16 21c-2 3 -2 6 0 7c0 0 28 33 94 33c73 0 104 -38 104 -104v-106h29c3 0 5 -2 5 -5v-28c0 -4 -2 -6 -5 -6h-49c-15 0 -22 5 -22 21v13h-1
c-11 -11 -37 -38 -87 -38zM137 512c35 0 58 17 71 32v44h-56c-46 0 -64 -12 -64 -37c0 -24 19 -39 49 -39z" />
    <glyph glyph-name="ordmasculine" unicode="&#xba;" horiz-adv-x="317" 
d="M159 471c-65 0 -121 49 -121 128c0 80 57 125 121 125s120 -46 120 -125c0 -78 -55 -128 -120 -128zM159 513c41 0 77 29 77 85s-39 85 -77 85s-78 -30 -78 -85s37 -85 78 -85z" />
    <glyph glyph-name="at" unicode="@" horiz-adv-x="783" 
d="M609 -27l16 -35c3 -7 1 -13 -6 -16c0 0 -85 -48 -227 -48c-200 0 -354 151 -354 356c0 217 178 395 388 395c203 0 319 -125 319 -272c0 -189 -121 -275 -221 -275h-20c-29 0 -43 9 -39 38l3 25c0 -1 -37 -66 -104 -66c-71 0 -144 45 -144 170c0 129 93 209 195 209
c59 0 82 -30 90 -46l4 25c1 7 6 11 13 11h30c8 0 11 -5 10 -12l-38 -295h22c64 0 135 70 135 214c0 122 -99 207 -255 207c-185 0 -318 -158 -318 -328c0 -171 127 -288 284 -288c136 0 200 37 200 37c7 4 14 2 17 -6zM481 231l13 103c-2 16 -18 67 -78 67
c-66 0 -136 -57 -136 -154c0 -82 50 -113 98 -113c51 0 99 59 103 97z" />
    <glyph glyph-name="ampersand" unicode="&#x26;" horiz-adv-x="674" 
d="M603 0h-81c-19 0 -32 15 -48 37l-21 30c-41 -43 -99 -74 -180 -74c-164 0 -236 108 -236 202c0 132 107 184 171 211c-24 28 -68 87 -68 155c0 104 74 163 167 163c82 0 165 -47 165 -157c0 -101 -82 -150 -153 -186l133 -189c18 37 26 81 26 150c0 8 5 12 13 12h132
c8 0 12 -4 12 -12v-37c0 -8 -5 -12 -12 -12h-74c-2 -47 -16 -111 -49 -168l40 -56h63c8 0 13 -4 13 -12v-45c0 -8 -5 -12 -13 -12zM410 126l-158 221c-42 -19 -126 -58 -126 -150c0 -82 69 -131 148 -131c60 0 105 23 136 60zM279 435c55 24 117 53 117 129
c0 46 -29 88 -85 88c-55 0 -91 -35 -91 -92c0 -51 37 -98 59 -125z" />
    <glyph glyph-name="asterisk" unicode="*" horiz-adv-x="413" 
d="M223 420h-34c-8 0 -14 6 -13 13l11 113l-68 -89c-5 -6 -14 -7 -20 -1l-23 24c-6 6 -6 15 0 20l91 69l-115 -12c-8 -1 -14 5 -14 13v34c0 8 6 15 14 13l114 -14l-91 72c-6 5 -6 14 0 19l24 24c6 5 14 6 19 0l71 -89l-13 113c-1 7 5 13 13 13h34c7 0 15 -5 13 -13l-11 -114
l69 90c5 6 14 6 19 0l24 -23c6 -6 6 -15 -1 -20l-89 -73l113 16c8 1 14 -5 14 -13v-34c0 -8 -6 -14 -14 -14l-111 11l88 -68c6 -5 5 -13 0 -19l-24 -24c-5 -6 -14 -6 -19 0l-71 87l13 -111c2 -8 -6 -13 -13 -13z" />
    <glyph glyph-name="a.alt" 
d="M562 0h-87c-29 0 -43 11 -43 42v58h-2c-23 -52 -72 -107 -167 -107c-137 0 -225 106 -225 254c0 154 93 252 225 252c95 0 146 -47 166 -91h1v71c0 8 5 13 12 13h52c7 0 12 -5 12 -13v-412h56c8 0 12 -4 12 -12v-43c0 -8 -4 -12 -12 -12zM275 63c84 0 152 69 152 183
c0 117 -69 183 -152 183c-87 0 -155 -70 -155 -184c0 -110 67 -182 155 -182z" />
    <glyph glyph-name="Imacron" horiz-adv-x="350" 
d="M301 0h-240c-8 0 -13 4 -13 12v51c0 8 4 12 13 12h76v568h-76c-8 0 -13 4 -13 12v51c0 8 4 12 13 12h240c8 0 13 -4 13 -12v-51c0 -8 -5 -12 -13 -12h-77v-568h77c8 0 13 -4 13 -12v-51c0 -8 -5 -12 -13 -12zM329 780h-296c-8 0 -13 5 -13 13v42c0 8 5 14 13 14h296
c8 0 13 -6 13 -14v-42c0 -8 -5 -13 -13 -13z" />
    <glyph glyph-name="Eth" unicode="&#xd0;" horiz-adv-x="741" 
d="M348 0h-287c-8 0 -13 4 -13 12v51c0 8 5 12 13 12h76v249h-68c-8 0 -14 5 -14 13v42c0 9 6 14 14 14h68v250h-76c-8 0 -13 4 -13 12v51c0 8 5 12 13 12h269c220 0 362 -133 362 -358c0 -224 -133 -360 -344 -360zM224 75h100c180 1 278 95 278 283
c0 176 -94 285 -281 285h-97v-250h153c8 0 13 -5 13 -14v-42c0 -8 -5 -13 -13 -13h-153v-249z" />
    <glyph glyph-name="aacute.alt" 
d="M562 0h-87c-29 0 -43 11 -43 42v58h-2c-23 -52 -72 -107 -167 -107c-137 0 -225 106 -225 254c0 154 93 252 225 252c95 0 146 -47 166 -91h1v71c0 8 5 13 12 13h52c7 0 12 -5 12 -13v-412h56c8 0 12 -4 12 -12v-43c0 -8 -4 -12 -12 -12zM275 63c84 0 152 69 152 183
c0 117 -69 183 -152 183c-87 0 -155 -70 -155 -184c0 -110 67 -182 155 -182zM421 706l-168 -134c-7 -4 -14 -4 -19 3l-25 29c-5 6 -5 14 2 19l161 141c6 6 13 5 19 -1l31 -38c5 -6 5 -13 -1 -19z" />
    <glyph glyph-name="abreve.alt" 
d="M562 0h-87c-29 0 -43 11 -43 42v58h-2c-23 -52 -72 -107 -167 -107c-137 0 -225 106 -225 254c0 154 93 252 225 252c95 0 146 -47 166 -91h1v71c0 8 5 13 12 13h52c7 0 12 -5 12 -13v-412h56c8 0 12 -4 12 -12v-43c0 -8 -4 -12 -12 -12zM275 63c84 0 152 69 152 183
c0 117 -69 183 -152 183c-87 0 -155 -70 -155 -184c0 -110 67 -182 155 -182zM387 715h32c8 0 13 -5 13 -13c0 -92 -60 -139 -141 -139c-80 0 -139 47 -139 139c0 8 5 13 13 13h32c8 0 13 -5 13 -13c0 -57 37 -88 81 -88c45 0 83 31 83 88c0 8 5 13 13 13z" />
    <glyph glyph-name="acircumflex.alt" 
d="M562 0h-87c-29 0 -43 11 -43 42v58h-2c-23 -52 -72 -107 -167 -107c-137 0 -225 106 -225 254c0 154 93 252 225 252c95 0 146 -47 166 -91h1v71c0 8 5 13 12 13h52c7 0 12 -5 12 -13v-412h56c8 0 12 -4 12 -12v-43c0 -8 -4 -12 -12 -12zM275 63c84 0 152 69 152 183
c0 117 -69 183 -152 183c-87 0 -155 -70 -155 -184c0 -110 67 -182 155 -182zM469 604l-25 -29c-5 -6 -12 -7 -19 -2l-124 105l-122 -105c-6 -5 -14 -4 -19 2l-25 29c-4 6 -4 14 2 19l155 136c3 3 7 4 10 4c4 0 6 -1 10 -5l155 -135c5 -6 6 -13 2 -19z" />
    <glyph glyph-name="adieresis.alt" 
d="M562 0h-87c-29 0 -43 11 -43 42v58h-2c-23 -52 -72 -107 -167 -107c-137 0 -225 106 -225 254c0 154 93 252 225 252c95 0 146 -47 166 -91h1v71c0 8 5 13 12 13h52c7 0 12 -5 12 -13v-412h56c8 0 12 -4 12 -12v-43c0 -8 -4 -12 -12 -12zM275 63c84 0 152 69 152 183
c0 117 -69 183 -152 183c-87 0 -155 -70 -155 -184c0 -110 67 -182 155 -182zM261 598c0 -24 -19 -42 -43 -42s-42 18 -42 42s18 43 42 43s43 -19 43 -43zM419 598c0 -24 -19 -42 -43 -42s-42 18 -42 42s18 43 42 43s43 -19 43 -43z" />
    <glyph glyph-name="agrave.alt" 
d="M562 0h-87c-29 0 -43 11 -43 42v58h-2c-23 -52 -72 -107 -167 -107c-137 0 -225 106 -225 254c0 154 93 252 225 252c95 0 146 -47 166 -91h1v71c0 8 5 13 12 13h52c7 0 12 -5 12 -13v-412h56c8 0 12 -4 12 -12v-43c0 -8 -4 -12 -12 -12zM275 63c84 0 152 69 152 183
c0 117 -69 183 -152 183c-87 0 -155 -70 -155 -184c0 -110 67 -182 155 -182zM373 604l-25 -29c-6 -7 -13 -7 -19 -2l-168 134c-6 5 -6 12 -2 19l32 37c5 6 13 7 19 2l161 -142c7 -5 7 -13 2 -19z" />
    <glyph glyph-name="amacron.alt" 
d="M562 0h-87c-29 0 -43 11 -43 42v58h-2c-23 -52 -72 -107 -167 -107c-137 0 -225 106 -225 254c0 154 93 252 225 252c95 0 146 -47 166 -91h1v71c0 8 5 13 12 13h52c7 0 12 -5 12 -13v-412h56c8 0 12 -4 12 -12v-43c0 -8 -4 -12 -12 -12zM275 63c84 0 152 69 152 183
c0 117 -69 183 -152 183c-87 0 -155 -70 -155 -184c0 -110 67 -182 155 -182zM432 554h-296c-8 0 -13 5 -13 13v42c0 8 5 14 13 14h296c8 0 13 -6 13 -14v-42c0 -8 -5 -13 -13 -13z" />
    <glyph glyph-name="aogonek.alt" 
d="M571 -107l9 -13c5 -7 2 -14 -4 -17c-7 -5 -33 -24 -73 -24c-48 0 -79 30 -79 73c0 49 42 78 69 88h-18c-29 0 -43 11 -43 42v58h-2c-23 -52 -72 -107 -167 -107c-137 0 -225 106 -225 254c0 154 93 252 225 252c95 0 146 -47 166 -91h1v71c0 8 5 13 12 13h52
c7 0 12 -5 12 -13v-412h56c8 0 12 -4 12 -12v-43c0 -8 -4 -12 -12 -12h-16c-21 -10 -70 -39 -70 -82c0 -21 15 -34 38 -34c16 0 30 5 39 10c7 4 14 5 18 -1zM275 63c84 0 152 69 152 183c0 117 -69 183 -152 183c-87 0 -155 -70 -155 -184c0 -110 67 -182 155 -182z" />
    <glyph glyph-name="aring.alt" 
d="M562 0h-87c-29 0 -43 11 -43 42v58h-2c-23 -52 -72 -107 -167 -107c-137 0 -225 106 -225 254c0 154 93 252 225 252c95 0 146 -47 166 -91h1v71c0 8 5 13 12 13h52c7 0 12 -5 12 -13v-412h56c8 0 12 -4 12 -12v-43c0 -8 -4 -12 -12 -12zM275 63c84 0 152 69 152 183
c0 117 -69 183 -152 183c-87 0 -155 -70 -155 -184c0 -110 67 -182 155 -182zM339 603c-16 -27 -51 -37 -78 -21s-37 52 -21 79s51 37 78 21s37 -52 21 -79zM316 623c6 15 -3 31 -18 36s-31 -2 -36 -18c-5 -15 3 -31 19 -36c15 -5 30 2 35 18z" />
    <glyph glyph-name="atilde.alt" 
d="M562 0h-87c-29 0 -43 11 -43 42v58h-2c-23 -52 -72 -107 -167 -107c-137 0 -225 106 -225 254c0 154 93 252 225 252c95 0 146 -47 166 -91h1v71c0 8 5 13 12 13h52c7 0 12 -5 12 -13v-412h56c8 0 12 -4 12 -12v-43c0 -8 -4 -12 -12 -12zM275 63c84 0 152 69 152 183
c0 117 -69 183 -152 183c-87 0 -155 -70 -155 -184c0 -110 67 -182 155 -182zM412 684h24c8 0 12 -4 12 -12c0 -71 -25 -113 -87 -113c-75 0 -92 63 -138 63c-27 0 -41 -12 -41 -57c0 -8 -4 -12 -12 -12h-24c-8 0 -12 4 -12 12c0 66 27 108 86 108c69 0 90 -65 138 -66
c31 0 42 15 42 65c0 8 4 12 12 12z" />
    <glyph glyph-name="y.alt" horiz-adv-x="557" 
d="M501 480l1 -499c0 -148 -103 -215 -239 -215c-131 0 -185 60 -193 66c-6 5 -9 12 -3 18l25 37c5 6 12 5 18 1c9 -7 52 -50 152 -50c89 0 165 39 165 143v98h-3c-11 -23 -48 -86 -156 -86s-173 69 -174 174v258h-57c-8 0 -12 4 -12 12v43c0 8 5 12 12 12h96
c29 0 43 -11 43 -42v-263c0 -75 36 -122 110 -122c100 0 133 83 133 85v275h-54c-8 0 -12 4 -12 12v43c0 8 5 12 12 12h124c8 0 12 -4 12 -12z" />
    <glyph glyph-name="yacute.alt" horiz-adv-x="557" 
d="M501 480l1 -499c0 -148 -103 -215 -239 -215c-131 0 -185 60 -193 66c-6 5 -9 12 -3 18l25 37c5 6 12 5 18 1c9 -7 52 -50 152 -50c89 0 165 39 165 143v98h-3c-11 -23 -48 -86 -156 -86s-173 69 -174 174v258h-57c-8 0 -12 4 -12 12v43c0 8 5 12 12 12h96
c29 0 43 -11 43 -42v-263c0 -75 36 -122 110 -122c100 0 133 83 133 85v275h-54c-8 0 -12 4 -12 12v43c0 8 5 12 12 12h124c8 0 12 -4 12 -12zM396 706l-168 -134c-7 -4 -14 -4 -19 3l-25 29c-5 6 -5 14 2 19l161 141c6 6 13 5 19 -1l31 -38c5 -6 5 -13 -1 -19z" />
    <glyph glyph-name="ycircumflex.alt" horiz-adv-x="557" 
d="M501 480l1 -499c0 -148 -103 -215 -239 -215c-131 0 -185 60 -193 66c-6 5 -9 12 -3 18l25 37c5 6 12 5 18 1c9 -7 52 -50 152 -50c89 0 165 39 165 143v98h-3c-11 -23 -48 -86 -156 -86s-173 69 -174 174v258h-57c-8 0 -12 4 -12 12v43c0 8 5 12 12 12h96
c29 0 43 -11 43 -42v-263c0 -75 36 -122 110 -122c100 0 133 83 133 85v275h-54c-8 0 -12 4 -12 12v43c0 8 5 12 12 12h124c8 0 12 -4 12 -12zM452 604l-25 -29c-5 -6 -12 -7 -19 -2l-124 105l-122 -105c-6 -5 -14 -4 -19 2l-25 29c-4 6 -4 14 2 19l155 136c3 3 7 4 10 4
c4 0 6 -1 10 -5l155 -135c5 -6 6 -13 2 -19z" />
    <glyph glyph-name="ydieresis.alt" horiz-adv-x="557" 
d="M501 480l1 -499c0 -148 -103 -215 -239 -215c-131 0 -185 60 -193 66c-6 5 -9 12 -3 18l25 37c5 6 12 5 18 1c9 -7 52 -50 152 -50c89 0 165 39 165 143v98h-3c-11 -23 -48 -86 -156 -86s-173 69 -174 174v258h-57c-8 0 -12 4 -12 12v43c0 8 5 12 12 12h96
c29 0 43 -11 43 -42v-263c0 -75 36 -122 110 -122c100 0 133 83 133 85v275h-54c-8 0 -12 4 -12 12v43c0 8 5 12 12 12h124c8 0 12 -4 12 -12zM250 598c0 -24 -19 -42 -43 -42s-42 18 -42 42s18 43 42 43s43 -19 43 -43zM408 598c0 -24 -19 -42 -43 -42s-42 18 -42 42
s18 43 42 43s43 -19 43 -43z" />
    <glyph glyph-name="ygrave.alt" horiz-adv-x="557" 
d="M501 480l1 -499c0 -148 -103 -215 -239 -215c-131 0 -185 60 -193 66c-6 5 -9 12 -3 18l25 37c5 6 12 5 18 1c9 -7 52 -50 152 -50c89 0 165 39 165 143v98h-3c-11 -23 -48 -86 -156 -86s-173 69 -174 174v258h-57c-8 0 -12 4 -12 12v43c0 8 5 12 12 12h96
c29 0 43 -11 43 -42v-263c0 -75 36 -122 110 -122c100 0 133 83 133 85v275h-54c-8 0 -12 4 -12 12v43c0 8 5 12 12 12h124c8 0 12 -4 12 -12zM356 604l-25 -29c-6 -7 -13 -7 -19 -2l-168 134c-6 5 -6 12 -2 19l32 37c5 6 13 7 19 2l161 -142c7 -5 7 -13 2 -19z" />
    <glyph glyph-name="k.alt" horiz-adv-x="633" 
d="M288 233h37c56 0 133 37 133 105c0 50 -44 95 -101 95c-110 0 -162 -125 -167 -188l-1 -178h53c8 0 13 -4 13 -12v-43c0 -8 -5 -12 -13 -12h-191c-8 0 -13 4 -13 12l1 43c0 8 4 12 12 12h55l1 584h-56c-7 0 -13 4 -12 12l-1 43c1 8 5 12 13 12h126c8 0 12 -4 12 -12v-322
c19 38 69 115 173 115c117 0 178 -75 178 -162c0 -93 -93 -141 -164 -148l151 -122h43c8 0 13 -4 13 -12l-1 -43c0 -8 -5 -12 -12 -12h-54c-21 0 -39 14 -55 31l-180 153c-3 2 -6 5 -6 10l1 27c0 8 4 12 12 12z" />
    <glyph glyph-name="kcommaaccent.alt" horiz-adv-x="633" 
d="M288 233h37c56 0 133 37 133 105c0 50 -44 95 -101 95c-110 0 -162 -125 -167 -188l-1 -178h53c8 0 13 -4 13 -12v-43c0 -8 -5 -12 -13 -12h-191c-8 0 -13 4 -13 12l1 43c0 8 4 12 12 12h55l1 584h-56c-7 0 -13 4 -12 12l-1 43c1 8 5 12 13 12h126c8 0 12 -4 12 -12v-322
c19 38 69 115 173 115c117 0 178 -75 178 -162c0 -93 -93 -141 -164 -148l151 -122h43c8 0 13 -4 13 -12l-1 -43c0 -8 -5 -12 -12 -12h-54c-21 0 -39 14 -55 31l-180 153c-3 2 -6 5 -6 10l1 27c0 8 4 12 12 12zM285 -222v17c0 4 3 6 7 6c18 0 41 15 41 53c0 8 -2 11 -2 11
s-5 -5 -19 -5c-23 0 -43 19 -43 47c0 26 21 47 47 47c34 0 55 -27 55 -73c0 -79 -36 -109 -79 -109c-4 0 -7 2 -7 6z" />
    <glyph glyph-name="n" unicode="n" horiz-adv-x="621" 
d="M570 0h-95c-29 0 -43 11 -43 42v263c0 75 -36 122 -110 122c-101 0 -132 -84 -133 -85v-275h53c8 0 13 -4 13 -12v-43c0 -8 -5 -12 -13 -12h-191c-8 0 -13 4 -13 12v43c0 8 5 12 13 12h55v358h-55c-8 0 -13 4 -13 12v43c0 8 5 12 13 12h117c8 0 13 -4 13 -12l-2 -68h3
c12 20 53 87 161 87s170 -69 171 -174v-258h56c8 0 13 -4 13 -12v-43c0 -8 -5 -12 -13 -12z" />
    <glyph glyph-name="periodcentered" unicode="&#xb7;" horiz-adv-x="151" 
d="M123 290c0 -27 -21 -47 -47 -47c-27 0 -48 20 -48 47c0 26 21 47 48 47c26 0 47 -21 47 -47z" />
    </font>
</defs>
</svg>
